<?xml version="1.0" encoding="UTF-8"?>
<svg version="1.1" xmlns="http://www.w3.org/2000/svg" width="1062" height="1068">
<path d="M0 0 C350.46 0 700.92 0 1062 0 C1062 352.44 1062 704.88 1062 1068 C711.54 1068 361.08 1068 0 1068 C0 715.56 0 363.12 0 0 Z " fill="#2394DF" transform="translate(0,0)"/>
<path d="M0 0 C350.46 0 700.92 0 1062 0 C1062 352.44 1062 704.88 1062 1068 C711.54 1068 361.08 1068 0 1068 C0 715.56 0 363.12 0 0 Z M495 9 C493.43052851 9.14005403 491.85597363 9.22556 490.28125 9.28125 C489.34925781 9.31863281 488.41726563 9.35601562 487.45703125 9.39453125 C485.48567708 9.46484375 483.51432292 9.53515625 481.54296875 9.60546875 C480.61097656 9.64285156 479.67898438 9.68023437 478.71875 9.71875 C477.86216797 9.74904297 477.00558594 9.77933594 476.12304688 9.81054688 C473.9465398 9.87425345 473.9465398 9.87425345 472 11 C468.91994088 11.31500605 465.83900088 11.51083648 462.75 11.71875 C460.04134007 11.83187492 460.04134007 11.83187492 458 13 C455.62876754 13.23029956 453.25258057 13.41119942 450.875 13.5625 C448.95300781 13.68818359 448.95300781 13.68818359 446.9921875 13.81640625 C446.00476563 13.87699219 445.01734375 13.93757812 444 14 C443.67 14.99 443.34 15.98 443 17 C442.41734375 16.96519531 441.8346875 16.93039063 441.234375 16.89453125 C435.03962572 16.68998764 429.75080482 17.63373146 423.78515625 19.265625 C420.52106756 20.12628233 417.34925789 20.61940251 414 21 C414 21.66 414 22.32 414 23 C412.700625 22.979375 411.40125 22.95875 410.0625 22.9375 C408.70834367 22.91600546 407.35243917 22.92851801 406 23 C405.67 23.33 405.34 23.66 405 24 C402.66666667 24.33333333 400.33333333 24.66666667 398 25 C397.67 25.33 397.34 25.66 397 26 C395.4840625 26.185625 395.4840625 26.185625 393.9375 26.375 C390.88577976 26.85940004 388.83936787 27.36949648 386.0625 28.5 C383.30328911 29.60794569 380.89733234 30.22572982 377.9375 30.5 C373.66766555 31.0422012 370.84550798 32.15736076 367 34 C367 34.66 367 35.32 367 36 C365.9171875 36.185625 365.9171875 36.185625 364.8125 36.375 C362.01559907 36.91299903 362.01559907 36.91299903 359.5625 38 C356.72050091 39.10907282 354.01406808 39.57943236 351 40 C351 40.66 351 41.32 351 42 C350.030625 42.0825 349.06125 42.165 348.0625 42.25 C344.95911359 42.67998727 342.50899729 43.58699685 339.6875 44.9375 C336.36177849 46.52361334 333.38454563 47.40054299 329.75 48 C325.46737522 48.73473161 323.2834565 50.09179567 320 53 C317.1875 53.75 317.1875 53.75 315 54 C315 54.66 315 55.32 315 56 C314.29488281 55.93296875 313.58976562 55.8659375 312.86328125 55.796875 C309.22296549 56.05512387 307.27279414 57.32522935 304.1875 59.25 C299.5407246 62.08171851 294.90218942 64.64317816 290 67 C290 67.66 290 68.32 290 69 C288.68 69 287.36 69 286 69 C286 69.66 286 70.32 286 71 C285.42765625 71.13277344 284.8553125 71.26554687 284.265625 71.40234375 C282.02349125 71.99380317 279.91420381 72.73288854 277.75 73.5625 C277.04359375 73.83191406 276.3371875 74.10132812 275.609375 74.37890625 C275.07828125 74.58386719 274.5471875 74.78882812 274 75 C274 75.66 274 76.32 274 77 C272.9171875 77.4021875 272.9171875 77.4021875 271.8125 77.8125 C268.97881941 78.9214487 268.97881941 78.9214487 266.5 80.5625 C263.94325637 82.03262759 261.89973855 82.58575164 259 83 C259 83.66 259 84.32 259 85 C258.071875 85.2165625 258.071875 85.2165625 257.125 85.4375 C254.96741678 85.93152225 254.96741678 85.93152225 253 87 C253 87.66 253 88.32 253 89 C251.68 89 250.36 89 249 89 C249 89.66 249 90.32 249 91 C248.071875 91.2165625 248.071875 91.2165625 247.125 91.4375 C244.96741678 91.93152225 244.96741678 91.93152225 243 93 C243 93.99 243 94.98 243 96 C240.03 96.99 240.03 96.99 237 98 C237 98.66 237 99.32 237 100 C236.34 100 235.68 100 235 100 C235 100.99 235 101.98 235 103 C231.535 103.495 231.535 103.495 228 104 C228 104.66 228 105.32 228 106 C225.03 106.99 225.03 106.99 222 108 C222 108.66 222 109.32 222 110 C221.01 110 220.02 110 219 110 C218.67 111.65 218.34 113.3 218 115 C216.68 115 215.36 115 214 115 C214 115.66 214 116.32 214 117 C212.02 117.99 212.02 117.99 210 119 C210 119.66 210 120.32 210 121 C209.41734375 121.11601563 208.8346875 121.23203125 208.234375 121.3515625 C205.85372375 122.0424508 204.26928088 122.9511481 202.25 124.375 C201.63640625 124.79523438 201.0228125 125.21546875 200.390625 125.6484375 C199.93171875 126.09445313 199.4728125 126.54046875 199 127 C199 127.99 199 128.98 199 130 C198.01 130 197.02 130 196 130 C196 130.66 196 131.32 196 132 C195.443125 132.061875 194.88625 132.12375 194.3125 132.1875 C191.00931958 133.3480769 189.28105267 135.40213446 187 138 C187 138.66 187 139.32 187 140 C186.071875 140.2165625 186.071875 140.2165625 185.125 140.4375 C182.96741678 140.93152225 182.96741678 140.93152225 181 142 C181 142.66 181 143.32 181 144 C180.41283203 144.09369873 179.82566406 144.18739746 179.22070312 144.28393555 C176.4848031 145.16612494 175.39544405 146.33964143 173.46875 148.45703125 C172.82292969 149.15763672 172.17710937 149.85824219 171.51171875 150.58007812 C170.84785156 151.31677734 170.18398437 152.05347656 169.5 152.8125 C168.17754289 154.2569313 166.85463926 155.70095394 165.53125 157.14453125 C164.60505859 158.15700928 164.60505859 158.15700928 163.66015625 159.18994141 C158.47714027 164.84095324 158.47714027 164.84095324 155 166 C155 166.66 155 167.32 155 168 C154.34 168 153.68 168 153 168 C151.9935725 169.66279327 150.99414593 171.32983484 150 173 C149.01 173.66 148.02 174.32 147 175 C147 175.66 147 176.32 147 177 C146.34 177 145.68 177 145 177 C145 177.66 145 178.32 145 179 C144.34 179 143.68 179 143 179 C143 179.66 143 180.32 143 181 C142.34 181 141.68 181 141 181 C141 181.66 141 182.32 141 183 C140.34 183 139.68 183 139 183 C139 183.66 139 184.32 139 185 C138.01 185.33 137.02 185.66 136 186 C133.72638745 189.76865248 133.72638745 189.76865248 133 194 C132.01 194 131.02 194 130 194 C130 194.66 130 195.32 130 196 C129.34 196 128.68 196 128 196 C127.505 198.97 127.505 198.97 127 202 C126.34 202 125.68 202 125 202 C125 202.99 125 203.98 125 205 C123.68 205.33 122.36 205.66 121 206 C121 206.99 121 207.98 121 209 C119.02 209.99 119.02 209.99 117 211 C117 212.32 117 213.64 117 215 C116.34 215 115.68 215 115 215 C115 215.66 115 216.32 115 217 C114.4225 217.0825 113.845 217.165 113.25 217.25 C110.32205399 218.225982 108.94755463 219.63511223 107 222 C107 222.99 107 223.98 107 225 C106.34 225 105.68 225 105 225 C104.67 227.31 104.34 229.62 104 232 C103.34 232 102.68 232 102 232 C102 232.66 102 233.32 102 234 C101.01 234 100.02 234 99 234 C99 234.66 99 235.32 99 236 C98.34 236 97.68 236 97 236 C96.2884375 237.6396875 96.2884375 237.6396875 95.5625 239.3125 C95.16224609 240.23482422 95.16224609 240.23482422 94.75390625 241.17578125 C94.10038058 242.75711021 93.54108198 244.37675406 93 246 C92.34 246 91.68 246 91 246 C90.18501438 247.6029053 89.37310073 249.20737278 88.5625 250.8125 C87.88380859 252.15248047 87.88380859 252.15248047 87.19140625 253.51953125 C85.9168395 256.03999478 85.9168395 256.03999478 85 259 C84.34 259 83.68 259 83 259 C83 260.32 83 261.64 83 263 C82.34 263 81.68 263 81 263 C80.01 264.6396875 80.01 264.6396875 79 266.3125 C78.62875 266.92738281 78.2575 267.54226563 77.875 268.17578125 C76.78376001 270.11361926 76.78376001 270.11361926 77 273 C76.01 273 75.02 273 74 273 C74 274.32 74 275.64 74 277 C73.34 277 72.68 277 72 277 C70.9923048 278.7664657 69.99408286 280.53833823 69 282.3125 C68.1646875 283.79169922 68.1646875 283.79169922 67.3125 285.30078125 C65.78135247 287.94942471 65.78135247 287.94942471 66 291 C65.34 291 64.68 291 64 291 C64 292.65 64 294.3 64 296 C63.34 296 62.68 296 62 296 C62 297.32 62 298.64 62 300 C61.34 300 60.68 300 60 300 C59.51891725 301.41601714 59.04021859 302.83284437 58.5625 304.25 C58.29566406 305.03890625 58.02882812 305.8278125 57.75390625 306.640625 C57.08045292 308.74821988 56.50849405 310.84753973 56 313 C55.34 313 54.68 313 54 313 C54 314.32 54 315.64 54 317 C53.01 317.33 52.02 317.66 51 318 C47.16490308 323.80554328 46.28435109 330.18979136 46 337 C45.01 337 44.02 337 43 337 C43 338.65 43 340.3 43 342 C42.34 342 41.68 342 41 342 C40.566875 343.60875 40.566875 343.60875 40.125 345.25 C39 349 39 349 37.875 351.125 C36.76481414 353.50396971 36.85596128 355.40730309 37 358 C36.34 358 35.68 358 35 358 C35 360.31 35 362.62 35 365 C34.34 365 33.68 365 33 365 C33 366.98 33 368.96 33 371 C32.34 371 31.68 371 31 371 C30.896875 371.99 30.79375 372.98 30.6875 374 C30.2029817 377.42574912 29.12092699 380.39247558 27.828125 383.60546875 C26.39301247 387.75511016 25.564321 392.05094845 24.6484375 396.33984375 C24 399 24 399 23 400 C22.814375 401.485 22.814375 401.485 22.625 403 C22.2460808 405.9471493 21.54166373 408.57036017 20.5625 411.375 C17.80123423 419.37454935 16.6814208 426.52225339 17 435 C16.34 435 15.68 435 15 435 C14.95101563 435.92683594 14.90203125 436.85367187 14.8515625 437.80859375 C14.77679688 439.00613281 14.70203125 440.20367187 14.625 441.4375 C14.52058594 443.22994141 14.52058594 443.22994141 14.4140625 445.05859375 C14.27742187 446.02925781 14.14078125 446.99992187 14 448 C13.34 448.33 12.68 448.66 12 449 C11.56844788 451.48545575 11.56844788 451.48545575 11.4375 454.375 C11.23313343 457.53642575 11.00622117 459.98133648 10 463 C9.93029948 465.39490986 9.91551997 467.79167691 9.9375 470.1875 C9.95103516 472.09595703 9.95103516 472.09595703 9.96484375 474.04296875 C9.97644531 475.01878906 9.98804688 475.99460937 10 477 C9.34 477 8.68 477 8 477 C7.96241577 478.02939697 7.96241577 478.02939697 7.92407227 479.07958984 C7.80828573 482.17825817 7.68548115 485.27660923 7.5625 488.375 C7.52318359 489.45523437 7.48386719 490.53546875 7.44335938 491.6484375 C7.40146484 492.6796875 7.35957031 493.7109375 7.31640625 494.7734375 C7.27974854 495.72653809 7.24309082 496.67963867 7.20532227 497.66162109 C7 500 7 500 6 502 C5.90403154 503.80191684 5.87204237 505.60739518 5.87060547 507.41186523 C5.86745331 508.54321396 5.86430115 509.67456268 5.86105347 510.8401947 C5.8630777 512.06726639 5.86510193 513.29433807 5.8671875 514.55859375 C5.86623077 515.81382339 5.86527405 517.06905304 5.86428833 518.36231995 C5.86360673 521.02128521 5.86496029 523.68015908 5.86962891 526.33911133 C5.87532031 529.7466344 5.87204992 533.15407861 5.86605644 536.56159878 C5.86157206 539.81059992 5.86471302 543.05959157 5.8671875 546.30859375 C5.86516327 547.5336412 5.86313904 548.75868866 5.86105347 550.02085876 C5.86420563 551.15535965 5.86735779 552.28986053 5.87060547 553.45874023 C5.87140106 554.45864487 5.87219666 555.4585495 5.87301636 556.48875427 C5.89409324 559.12880364 5.89409324 559.12880364 7 562 C7.1394182 564.1746364 7.225333 566.35286661 7.28125 568.53125 C7.31863281 569.81644531 7.35601562 571.10164062 7.39453125 572.42578125 C7.44814662 574.46660845 7.50019059 576.50747234 7.55224609 578.54833984 C7.60409451 580.52190925 7.66134874 582.4953343 7.71875 584.46875 C7.74904297 585.64888672 7.77933594 586.82902344 7.81054688 588.04492188 C7.87765422 591.05776834 7.87765422 591.05776834 9 594 C9.17959445 596.35183203 9.32007176 598.70674563 9.4375 601.0625 C9.52794987 611.8404354 9.52794987 611.8404354 14 621 C14.37890625 623.56640625 14.37890625 623.56640625 14.5625 626.5625 C14.49797212 630.09416808 14.49797212 630.09416808 16 633 C16.27279255 634.47416122 16.49064621 635.95859184 16.68359375 637.4453125 C16.80669922 638.35796875 16.92980469 639.270625 17.05664062 640.2109375 C17.30746953 642.13010018 17.55749017 644.0493687 17.80664062 645.96875 C18.46954746 654.55811274 18.46954746 654.55811274 22 662 C22.12375 663.010625 22.2475 664.02125 22.375 665.0625 C22.85227994 668.0693636 23.34283866 670.13009544 24.4375 672.875 C25.84972002 676.42260584 26.69646909 679.90793394 27.46875 683.640625 C28.23257847 687.03292202 29.2547619 690.33165475 30.28125 693.65234375 C30.89358513 695.65241663 31.45253083 697.66870745 32 699.6875 C33.08055863 703.26685047 34.52047574 706.56750372 36 710 C36.51355003 711.49541511 37.01302187 712.995722 37.5 714.5 C38.78365823 718.44408979 40.33293169 722.19908425 42 726 C42.65159405 727.60183538 43.29698292 729.20620325 43.9375 730.8125 C44.27523437 731.658125 44.61296875 732.50375 44.9609375 733.375 C45.66078098 735.14302563 46.3533561 736.91394361 47.0390625 738.6875 C48.74522818 743.06361961 50.56531396 746.97747524 53 751 C53.433125 752.19367187 53.86625 753.38734375 54.3125 754.6171875 C55.97587549 759.133746 58.13573929 763.28074581 60.4375 767.5 C61.20795868 768.92658284 61.9774943 770.3536646 62.74609375 771.78125 C63.12290283 772.47984131 63.49971191 773.17843262 63.88793945 773.89819336 C64.98393637 775.96963957 66.0331848 778.05870649 67.0703125 780.16015625 C68.72808498 783.50363889 70.5309533 786.72763269 72.4375 789.9375 C74.45124877 793.34897735 76.43246516 796.76326872 78.3125 800.25 C80.72871131 804.63289493 83.35499311 808.87785525 86 813.125 C86.41548096 813.7943457 86.83096191 814.46369141 87.2590332 815.15332031 C89.32625589 818.45079061 91.45347706 821.66181666 93.75 824.8046875 C96 828 96 828 97 831 C97.66 831 98.32 831 99 831 C99.26683594 831.55558594 99.53367187 832.11117187 99.80859375 832.68359375 C103.81335498 840.46990002 108.93498539 847.36712608 114.55078125 854.05078125 C116.77399326 856.72785473 118.91740688 859.44689607 121.04492188 862.19946289 C125.71444361 868.23693183 130.55709521 873.97171202 135.75 879.5703125 C137.62792894 881.59821494 139.45023515 883.65327395 141.25 885.75 C151.69373517 897.74918508 162.64399498 909.68555026 174.74609375 920.02734375 C177.10412292 922.09113011 179.39335505 924.21637065 181.68212891 926.35620117 C187.58210528 931.86732707 193.61700624 937.04914897 200 942 C201.02222656 942.81726563 202.04445312 943.63453125 203.09765625 944.4765625 C246.13109917 978.86174472 294.5613386 1006.34353882 346 1026 C346.97710937 1026.37640625 347.95421875 1026.7528125 348.9609375 1027.140625 C354.30759984 1029.14749546 359.65883325 1030.80415576 365.19921875 1032.19140625 C368.12677339 1033.03659985 370.93696164 1034.10177589 373.78295898 1035.18579102 C404.32377862 1046.40191628 437.78739277 1052.05127075 470 1056 C471.00178284 1056.12375 471.00178284 1056.12375 472.02380371 1056.25 C538.11244857 1064.29314567 608.11884384 1059.03601417 672 1040 C673.19625 1039.66613281 674.3925 1039.33226562 675.625 1038.98828125 C718.80351718 1026.88317875 760.47548418 1008.92079648 799 986 C799.89122559 985.47051758 800.78245117 984.94103516 801.70068359 984.39550781 C840.745965 961.04357619 875.81704156 932.17723462 908 900.125 C908.78922852 899.34044434 909.57845703 898.55588867 910.39160156 897.74755859 C914.58699745 893.54056335 918.61848763 889.24996593 922.49414062 884.74658203 C924.36445516 882.57728401 926.30672177 880.47894296 928.25 878.375 C933.28815391 872.78460325 937.88542589 866.89967328 942.48144531 860.94677734 C944.0275653 858.96466147 945.60014443 857.00633775 947.1796875 855.05078125 C984.81498277 808.12098398 1011.42963054 753.59252982 1031 697 C1031.30953613 696.11521973 1031.61907227 695.23043945 1031.93798828 694.31884766 C1049.9870622 642.66832777 1057.16614127 586.51562766 1057.3125 532 C1057.31511841 531.04676849 1057.31773682 530.09353699 1057.32043457 529.11141968 C1057.32674795 507.26824788 1055.55557202 485.68066973 1053 464 C1052.85046875 462.72688965 1052.7009375 461.4537793 1052.546875 460.14208984 C1049.38890489 434.60419965 1043.65472192 408.57217111 1036 384 C1035.69030273 383.00371582 1035.38060547 382.00743164 1035.06152344 380.98095703 C1019.38056486 330.81811634 997.08984014 283.75205795 968 240 C967.52949219 239.28956543 967.05898438 238.57913086 966.57421875 237.84716797 C952.04490516 215.99562465 935.48251432 193.80086106 916.55078125 175.546875 C914.89337921 173.89364778 913.3901415 172.15925422 911.875 170.375 C904.92636611 162.32838784 897.25022755 154.74032463 889.14453125 147.86328125 C886.83801888 145.8592623 884.60742005 143.78715575 882.37524414 141.70117188 C876.12098891 135.86036878 869.70955968 130.31821852 863 125 C862.20988525 124.36843994 862.20988525 124.36843994 861.40380859 123.72412109 C849.30693571 114.05580045 836.87371524 104.91523853 824.125 96.125 C822.96641479 95.3218335 822.96641479 95.3218335 821.78442383 94.50244141 C817.39877479 91.50279856 812.95091616 88.7935066 808.28173828 86.25976562 C804.23859122 84.02751238 800.31950185 81.58829897 796.375 79.1875 C788.0551712 74.1648455 779.65130019 69.42424364 771 65 C770.32952637 64.65453125 769.65905273 64.3090625 768.96826172 63.953125 C761.87430348 60.30621934 754.81914369 56.763728 747.35546875 53.92578125 C744.68871211 52.87765302 742.10139397 51.70092246 739.5 50.5 C735.22639711 48.53126159 730.91514888 46.74545352 726.53125 45.0390625 C723.79969593 43.91777642 721.16134552 42.65334293 718.5 41.375 C714.10804113 39.34030719 710.02812717 38.25947888 705.2734375 37.45703125 C701.95287368 36.78949522 699.06398464 35.41851141 696 34 C685.85915209 29.90807891 675.24996826 27.21705216 664.62109375 24.7109375 C662 24 662 24 659.70947266 23.04541016 C656.83293173 21.93553917 654.03671058 21.23004342 651.02734375 20.5625 C649.87943359 20.30726562 648.73152344 20.05203125 647.54882812 19.7890625 C646.35708984 19.52867188 645.16535156 19.26828125 643.9375 19 C642.19049805 18.60941406 642.19049805 18.60941406 640.40820312 18.2109375 C630.64138237 16.0562517 620.87951124 14.01515605 610.875 13.4375 C605.20923913 13.10461957 605.20923913 13.10461957 603 12 C601.02440132 11.79533366 599.04411189 11.63450941 597.0625 11.5 C593.76955062 11.2759354 591.13836918 11.04612306 588 10 C586.43275048 9.86435583 584.86112997 9.77597143 583.2890625 9.71875 C582.37382813 9.68136719 581.45859375 9.64398438 580.515625 9.60546875 C579.56171875 9.57066406 578.6078125 9.53585937 577.625 9.5 C575.74204958 9.43073616 573.85922543 9.3579315 571.9765625 9.28125 C571.14205566 9.25095703 570.30754883 9.22066406 569.44775391 9.18945312 C567 9 567 9 564.75343323 8.49624634 C561.61691756 7.93095774 558.68485395 7.87283474 555.49731445 7.87060547 C554.20279861 7.86745331 552.90828278 7.86430115 551.57453918 7.86105347 C550.17078619 7.8628429 548.76703351 7.86489376 547.36328125 7.8671875 C545.91790246 7.86651354 544.47252379 7.86554275 543.02714539 7.86428833 C540.0053092 7.86281709 536.98350265 7.86494839 533.96166992 7.86962891 C530.0844377 7.87534122 526.20727447 7.8720341 522.33004475 7.86605644 C519.34898861 7.8624484 516.36794894 7.86359027 513.38689232 7.86618423 C511.95671773 7.86685204 510.52654165 7.86603019 509.09636879 7.86370468 C507.10241346 7.86117257 505.10845289 7.86571445 503.11450195 7.87060547 C501.97930618 7.87140106 500.84411041 7.87219666 499.67451477 7.87301636 C497.0268836 7.81810339 497.0268836 7.81810339 495 9 Z " fill="#FEFEFE" transform="translate(0,0)"/>
<path d="M0 0 C1.0521167 0.69887329 1.0521167 0.69887329 2.12548828 1.41186523 C2.87685059 1.92177002 3.62821289 2.4316748 4.40234375 2.95703125 C5.58739502 3.75572632 5.58739502 3.75572632 6.79638672 4.57055664 C21.5344315 14.58620998 35.6796526 25.33211065 49.33984375 36.76953125 C50.29793945 37.57100586 50.29793945 37.57100586 51.27539062 38.38867188 C57.31762761 43.46169724 63.31099549 48.53323813 68.79296875 54.21875 C70.44619597 55.87615204 72.18058953 57.37938975 73.96484375 58.89453125 C82.03690241 65.86513941 89.65574368 73.5683393 96.55078125 81.703125 C98.37670382 83.81210543 100.27110695 85.84783292 102.1784668 87.88305664 C108.13091969 94.25766931 113.54612502 100.93912556 118.85351562 107.85498047 C120.38369047 109.82601055 121.94371714 111.7698956 123.51171875 113.7109375 C170.40826786 172.16548198 203.17695549 243.53954714 218.33984375 316.76953125 C218.56655762 317.86426758 218.79327148 318.95900391 219.02685547 320.08691406 C223.35786895 341.27518414 226.66597872 362.13614018 227.33984375 383.76953125 C221.57879828 380.89261368 218.24990674 377.70741609 214.27734375 372.70703125 C199.17244232 354.62585934 178.81568744 344.08189586 156.33984375 337.76953125 C163.94431134 364.27548799 175.71817472 397.83004315 200.54296875 412.82421875 C204.37936572 414.84249716 207.57419443 414.90413857 211.83984375 414.89453125 C212.98453125 414.89710938 214.12921875 414.8996875 215.30859375 414.90234375 C218.38664234 414.90637533 218.38664234 414.90637533 221.33984375 413.76953125 C224.96484375 413.64453125 224.96484375 413.64453125 228.33984375 413.76953125 C230.1305598 415.5602473 229.67273726 418.02692676 229.765625 420.45703125 C229.69234447 428.48070194 226.97768927 434.66180761 223.52734375 441.76953125 C222.92747738 443.04764735 222.32910978 444.32646785 221.73217773 445.60595703 C219.97412473 449.34705697 218.16336503 453.05989172 216.33984375 456.76953125 C215.85483398 457.76178711 215.36982422 458.75404297 214.87011719 459.77636719 C207.08463977 475.54435145 197.90769722 490.51674281 188.4375 505.3203125 C176.22929451 524.4327002 169.80857572 541.79662684 174.68359375 564.65625 C175.49187777 568.18004619 176.33658081 571.69355754 177.1875 575.20727539 C179.11140528 583.27408477 180.33459385 590.45538535 179.33984375 598.76953125 C179.26636719 599.46691406 179.19289063 600.16429687 179.1171875 600.8828125 C175.84689511 619.03857368 160.63258948 633.33541722 147.33984375 644.76953125 C138.5139133 652.61082443 133.5151333 662.28347101 128.40234375 672.76953125 C124.67722299 680.40391226 120.76188021 687.1912427 115.33984375 693.76953125 C114.56898438 694.7440625 113.798125 695.71859375 113.00390625 696.72265625 C100.6170684 711.48194008 79.63817459 721.77124821 60.69140625 724.24609375 C54.76236262 724.50387826 50.39018648 724.17330835 45.70703125 720.3515625 C41.99189494 716.05261906 40.87752661 712.179268 40.0625 706.60546875 C38.48460961 697.08843559 35.20604465 688.37692041 31.77734375 679.39453125 C21.18069461 651.41937752 21.58458086 629.04710684 31.07421875 600.53515625 C35.88955154 585.7011194 38.9655517 568.15454381 33.52734375 553.01953125 C30.91163031 547.9684984 27.20654967 543.63783703 23.3503418 539.48144531 C15.13584986 530.56112197 14.79012975 522.32208882 14.83984375 510.64453125 C14.85194882 507.78709803 14.83809319 504.93149281 14.80859375 502.07421875 C14.81310547 500.81593262 14.81761719 499.55764648 14.82226562 498.26123047 C14.17865865 493.60289699 12.25004974 490.39476479 8.6640625 487.34375 C8.12394531 487.05113281 7.58382812 486.75851562 7.02734375 486.45703125 C6.49496094 486.15152344 5.96257812 485.84601563 5.4140625 485.53125 C-16.12327124 477.62205964 -42.95348796 486.77578561 -63.95996094 492.109375 C-81.60703817 496.42381414 -99.53168592 497.03496709 -115.84765625 488.14453125 C-133.88678803 476.43080931 -141.61390493 457.09894576 -146.08776855 436.8324585 C-152.6984198 404.70045511 -154.81265466 374.20082552 -136.36669922 345.77636719 C-134.65869039 343.21978938 -132.92503173 340.68130475 -131.18994141 338.14306641 C-124.78410612 328.6612239 -121.00323536 318.52537488 -117.92675781 307.56738281 C-115.23199087 298.33984751 -110.63093427 291.25027102 -102.66015625 285.76953125 C-92.45441467 280.76647328 -81.54949023 278.87334548 -70.47265625 276.83203125 C-68.67212135 276.49099958 -66.87174892 276.14910908 -65.0715332 275.80639648 C-51.74280121 273.28332522 -38.38886366 270.88936582 -25.02075195 268.58422852 C-24.34722687 268.46785034 -23.67370178 268.35147217 -22.97976685 268.23156738 C-21.181703 267.92167482 -19.38322595 267.61418239 -17.5847168 267.30688477 C-15.24079695 266.87621713 -12.966107 266.36080067 -10.66015625 265.76953125 C-5.44317464 265.18129488 -0.83712787 265.28988488 3.72265625 268.2421875 C6.44888316 270.81695736 8.07032451 273.98789155 9.88671875 277.23828125 C14.17901329 284.71518142 19.89323561 289.60670817 28.14453125 292.375 C37.89697866 294.12766404 46.89823058 293.60534797 55.609375 288.703125 C58.50320144 286.65384876 60.88932448 284.39177018 63.40234375 281.89453125 C66.72539791 278.78213029 68.86098555 277.09961764 73.46484375 276.83203125 C80.42670913 277.44977423 86.85578132 280.23870996 93.24951172 282.90087891 C96.04070441 284.06077888 98.84985671 285.17347888 101.65917969 286.28857422 C103.55170453 287.04196787 105.44004398 287.80585037 107.328125 288.5703125 C112.39620734 290.58834269 116.91284538 292.03827914 122.28125 290.05078125 C125.02600186 288.62969887 127.03878092 287.21458064 128.77734375 284.64453125 C130.70494108 274.79236712 128.87241615 266.52849727 123.58984375 258.08203125 C115.51037983 246.71533446 104.60410777 243.83670112 91.46484375 240.95703125 C66.01816776 235.05842187 43.83607638 225.7610305 23.77734375 208.76953125 C19.68548942 205.41211231 15.88636977 205.40400513 10.7890625 205.515625 C8.17144522 205.67129312 8.17144522 205.67129312 5.27734375 207.01953125 C2.56898894 210.86364775 2.83585826 214.29579898 2.64453125 218.91015625 C2.25539952 222.56200784 1.0822273 224.35955783 -1.66015625 226.76953125 C-4.52623754 228.20257189 -6.47316408 228.0759728 -9.66015625 227.76953125 C-13.92795109 225.40862347 -17.45299655 222.30246937 -21.046875 219.0390625 C-24.61578186 216.23060068 -28.31341016 216.41324059 -32.66015625 216.76953125 C-41.79501114 219.74867843 -47.0319348 226.86258171 -52.59765625 234.26953125 C-60.679987 244.95321097 -71.03148385 253.41976015 -84.66015625 255.76953125 C-94.71824567 256.80436605 -102.27714447 255.61148151 -110.66015625 249.76953125 C-116.5164549 244.71807654 -120.7642888 238.18167891 -122.0390625 230.48046875 C-122.33957204 224.8386445 -120.90668795 220.38357309 -117.66015625 215.76953125 C-112.32033496 210.81112577 -107.77702524 210.35368999 -100.77734375 209.78320312 C-95.82064286 209.2626574 -92.56605134 208.09254661 -88.66015625 204.76953125 C-87.68664847 201.13295815 -87.68664847 201.13295815 -87.66015625 197.76953125 C-88.68109375 197.21265625 -88.68109375 197.21265625 -89.72265625 196.64453125 C-94.57700163 193.54601292 -99.52176337 190.30479704 -101.66015625 184.76953125 C-102.36093442 179.83148972 -102.21574026 175.88069927 -99.97265625 171.39453125 C-94.92123731 165.66048813 -89.48244769 163.22268979 -82.54296875 160.50195312 C-76.58992379 158.0477261 -72.54648579 154.69479835 -69.22265625 149.08203125 C-68.80886719 148.39882813 -68.39507813 147.715625 -67.96875 147.01171875 C-67.05210478 145.44110873 -66.14960354 143.86219802 -65.2578125 142.27734375 C-59.90988513 132.94329545 -54.35640198 126.6812318 -43.78515625 123.58203125 C-42.23828125 123.17984375 -42.23828125 123.17984375 -40.66015625 122.76953125 C-40.57884162 121.33297271 -40.52082066 119.89508295 -40.47265625 118.45703125 C-40.43785156 117.65652344 -40.40304687 116.85601562 -40.3671875 116.03125 C-40.72868796 113.24046643 -41.46713554 112.47002958 -43.66015625 110.76953125 C-48.58731249 108.54057962 -53.34051108 108.25344627 -58.66015625 108.76953125 C-60.33238925 109.42210998 -61.99942776 110.08820674 -63.66015625 110.76953125 C-69.9585116 111.60931196 -73.48610029 110.42392733 -78.61328125 106.67578125 C-84.61659068 101.08491293 -87.54451646 92.83115664 -87.99609375 84.74609375 C-88.49358525 61.05679928 -80.50439565 38.66655925 -64.47265625 21.01953125 C-51.52441602 8.94251832 -16.46532148 -10.98338131 0 0 Z " fill="#A0E267" transform="translate(805.66015625,110.23046875)"/>
<path d="M0 0 C2.52841134 1.91327771 4.2842815 3.91494369 6.265625 6.38671875 C12.38872472 13.41541977 20.06196674 17.81237592 28.125 22.328125 C30.7213133 24.01757 32.01461372 25.66666865 32.875 28.671875 C33.24299513 32.57120797 32.88612782 34.94035946 30.65625 38.22265625 C20.56899166 48.95306193 7.02956823 55.42685631 -5.796875 62.26171875 C-24.7274249 72.36891961 -41.27618669 83.50265424 -49.61328125 104.0859375 C-52.59635604 114.3702443 -50.34003428 123.39157295 -45.671875 132.76171875 C-40.9409379 140.43217116 -35.22447722 147.7266506 -27.671875 152.76171875 C-21.33862065 153.49915248 -18.24516428 150.96719481 -13.4140625 147.203125 C-4.8897339 139.61380111 -1.16993988 130.59215643 2.68359375 120.15234375 C6.68197238 109.34389866 10.66172845 100.53579315 21.3671875 95.265625 C35.08219875 89.37584523 52.21668535 88.17478569 66.62890625 92.65625 C80.433409 98.30990308 89.2682567 104.97450162 95.328125 118.76171875 C98.08648246 128.99271735 97.1651906 140.37493799 92.328125 149.76171875 C87.40352269 157.43830471 79.36842631 161.0248498 71.140625 164.32421875 C64.30469378 167.08842714 58.41442542 170.00467182 54.9921875 176.87890625 C53.80034445 180.25813185 53.51991864 183.3102801 54.328125 186.76171875 C55.47460039 188.8005287 55.47460039 188.8005287 56.890625 190.76171875 C58.89594587 193.6614583 59.70996557 195.40320782 59.390625 198.94921875 C57.95879437 204.08696394 55.86763119 206.70947782 51.46484375 209.71875 C36.93188262 217.53659432 21.37667361 222.87067878 5.27148438 226.39990234 C-10.64428272 229.90800911 -26.8124441 235.12156635 -36.3203125 249.203125 C-40.37418403 256.43630187 -42.18074548 264.06027467 -43.84838867 272.11206055 C-46.60069711 285.11619871 -51.67765531 294.44706833 -62.859375 301.76171875 C-64.83286897 303.03223135 -66.81153623 304.29415462 -68.79296875 305.55224609 C-71.53644832 307.31825412 -74.20391301 309.17898983 -76.859375 311.07421875 C-77.69855469 311.66847656 -78.53773438 312.26273437 -79.40234375 312.875 C-84.24379274 316.89981904 -87.34673693 321.59849268 -88.671875 327.76171875 C-88.99765198 331.33614008 -89.15001849 334.91848344 -89.20581055 338.50683594 C-89.38614591 344.94002406 -90.86928876 349.52066559 -94.984375 354.63671875 C-98.02089147 357.03768526 -99.90460893 357.27327322 -103.671875 357.76171875 C-104.0342627 357.16222412 -104.39665039 356.56272949 -104.77001953 355.94506836 C-106.43908238 353.19241571 -108.11788535 350.44582681 -109.796875 347.69921875 C-110.36664063 346.75626953 -110.93640625 345.81332031 -111.5234375 344.84179688 C-115.83691325 337.8078904 -120.11046774 330.99052233 -127.171875 326.44921875 C-127.8834375 325.97871094 -128.595 325.50820313 -129.328125 325.0234375 C-134.57373805 322.19954914 -139.24181675 321.44698357 -145.171875 321.38671875 C-146.4403125 321.35835938 -147.70875 321.33 -149.015625 321.30078125 C-154.42440649 321.98265755 -157.4409865 324.36449397 -160.984375 328.38671875 C-165.17463016 334.2841149 -164.75817794 341.80726476 -163.671875 348.76171875 C-158.91874993 364.96370761 -146.36176155 375.55678861 -133.43896484 385.39990234 C-119.35625459 396.25281169 -106.48904682 408.63595392 -95.671875 422.76171875 C-95.12950195 423.46006836 -94.58712891 424.15841797 -94.02832031 424.87792969 C-82.4630449 439.79906148 -72.22407814 455.24000458 -62.984375 471.69921875 C-62.5618042 472.45090332 -62.1392334 473.20258789 -61.70385742 473.97705078 C-61.31818604 474.67813965 -60.93251465 475.37922852 -60.53515625 476.1015625 C-60.19782471 476.71378662 -59.86049316 477.32601074 -59.51293945 477.95678711 C-58.62218554 479.86835277 -58.11732881 481.70457848 -57.671875 483.76171875 C-56.95386719 483.40078125 -56.23585937 483.03984375 -55.49609375 482.66796875 C-34.21343001 473.12655039 -7.69241632 480.16895008 13.328125 487.76171875 C14.13459473 488.0453125 14.94106445 488.32890625 15.77197266 488.62109375 C62.30992141 505.0780421 62.30992141 505.0780421 72.578125 524.07421875 C73.2863679 526.61208914 73.78265145 529.11048054 74.265625 531.69921875 C75.67875477 539.08254795 78.7711548 545.05532838 84.84375 549.67578125 C95.6682829 556.44884612 104.57127274 558.9571783 117.30078125 558.75390625 C119.27278118 558.73637515 121.24478674 558.71946832 123.21679688 558.703125 C126.29500273 558.6723405 129.37291936 558.63698712 132.45092773 558.59033203 C150.69251122 558.32883555 169.07386818 558.93758505 183.390625 572.07421875 C187.90947887 577.20093875 191.50040731 583.33636168 191.953125 590.26171875 C191.49245408 597.54287861 187.08648128 603.55695403 183.328125 609.57421875 C175.29494475 622.96829504 173.37634565 637.29686668 170.99951172 652.4699707 C168.08352717 670.86250426 163.47253943 689.61228526 148.60546875 702.16796875 C146.07881314 703.93619429 143.49545845 705.14587722 140.703125 706.44921875 C133.97804716 709.97408713 131.98672313 714.88576108 129.328125 721.76171875 C123.00313729 738.09528076 115.72036675 751.52568619 104.42578125 764.99609375 C93.90349986 777.61384625 89.34108608 787.28576146 90.328125 803.76171875 C90.77447512 806.08052435 90.77447512 806.08052435 91.328125 807.76171875 C73.41839727 800.6478748 56.51795882 791.93419134 39.87744141 782.23632812 C37.63898819 780.94153236 35.3861813 779.68092049 33.12109375 778.43359375 C31.96028852 777.77327499 30.8000672 777.11192791 29.640625 776.44921875 C28.68800781 775.91683594 27.73539063 775.38445313 26.75390625 774.8359375 C21.23714078 770.11870326 19.26512274 762.32605407 16.953125 755.63671875 C16.65277344 754.7748999 16.35242188 753.91308105 16.04296875 753.02514648 C13.8799598 746.68727929 12.04118735 740.29655514 10.328125 733.82421875 C5.87484169 717.05926522 0.85727949 700.93725066 -7.671875 685.76171875 C-8.50138672 684.27285156 -8.50138672 684.27285156 -9.34765625 682.75390625 C-16.85087326 670.18288396 -26.43534492 661.58106823 -38.671875 653.76171875 C-67.8820761 634.85713916 -82.55043315 614.47420308 -90.25488281 580.16552734 C-91.7922724 571.30303442 -92.28008381 561.39021267 -87.1171875 553.734375 C-86.40175781 552.75791016 -86.40175781 552.75791016 -85.671875 551.76171875 C-81.19694179 544.87895235 -81.19694179 544.87895235 -80.10546875 536.87109375 C-81.08234469 533.23307301 -83.08495595 530.26486583 -85.1640625 527.15625 C-88.19967422 522.33544693 -89.25259809 518.47216248 -88.671875 512.76171875 C-86.30041984 505.93031098 -81.70727941 500.79712316 -76.671875 495.76171875 C-77.36152344 495.02308594 -78.05117187 494.28445313 -78.76171875 493.5234375 C-83.36081165 488.56847712 -87.8761831 483.60014542 -92.109375 478.32421875 C-95.95297557 473.54550247 -100.04147664 469.07014188 -104.23022461 464.59790039 C-107.34741445 461.25072548 -110.30761298 457.83166852 -113.171875 454.26171875 C-129.73204288 433.7997847 -148.63627515 419.40845128 -173.609375 410.3046875 C-187.00852313 405.39052672 -187.00852313 405.39052672 -190.671875 398.76171875 C-194.85531392 388.5687046 -195.73984856 376.90055016 -197.39331055 366.08740234 C-200.74703331 344.19304489 -200.74703331 344.19304489 -210.046875 324.32421875 C-212.2977445 320.89278003 -212.99594077 318.76520526 -212.88671875 314.65625 C-212.86254883 313.68905029 -212.83837891 312.72185059 -212.81347656 311.7253418 C-212.59253307 307.10114678 -212.27872762 302.49718524 -211.859375 297.88671875 C-211.76954346 296.8913208 -211.67971191 295.89592285 -211.5871582 294.87036133 C-209.80507379 275.95388747 -206.50507769 257.36199676 -202.671875 238.76171875 C-202.46224121 237.72982422 -202.25260742 236.69792969 -202.03662109 235.63476562 C-194.81144869 200.59351376 -182.84874672 166.39287093 -167.71582031 134.00976562 C-166.7209868 131.86747682 -165.75165179 129.71552561 -164.7890625 127.55859375 C-159.20820638 115.18735351 -152.49732173 103.48114746 -145.671875 91.76171875 C-145.16076172 90.88016113 -144.64964844 89.99860352 -144.12304688 89.09033203 C-134.33118469 72.26096785 -123.54567766 56.19337564 -111.671875 40.76171875 C-110.89585937 39.73046875 -110.11984375 38.69921875 -109.3203125 37.63671875 C-103.09610783 29.39132877 -96.48578048 21.52451335 -89.671875 13.76171875 C-89.21796387 13.24319336 -88.76405273 12.72466797 -88.29638672 12.19042969 C-81.07354409 3.96255329 -81.07354409 3.96255329 -78.671875 2.76171875 C-77.04657241 3.42160009 -75.42449814 4.09112909 -73.82421875 4.80957031 C-60.9248694 10.47012294 -47.2584418 11.14761646 -34.046875 6.01171875 C-30.62999659 4.6080146 -27.2908724 3.0552089 -23.953125 1.47265625 C-16.6590949 -1.81913006 -7.51306791 -3.48193352 0 0 Z " fill="#A0E267" transform="translate(240.671875,188.23828125)"/>
<path d="M0 0 C1.28505936 -0.00315216 2.57011871 -0.00630432 3.89411926 -0.009552 C5.30400629 -0.0077616 6.713893 -0.00571049 8.1237793 -0.00341797 C9.56625891 -0.00409152 11.00873842 -0.00506197 12.45121765 -0.00631714 C15.47839435 -0.00779313 18.50554157 -0.00564366 21.53271484 -0.00097656 C25.40637481 0.00470537 29.27996525 0.00145088 33.15362263 -0.00454903 C36.13480651 -0.00817037 39.11597404 -0.00700855 42.09715843 -0.00442123 C43.52485347 -0.00375552 44.95255001 -0.00456793 46.3802433 -0.00690079 C48.3810994 -0.00945138 50.38196071 -0.0048721 52.3828125 0 C53.52039505 0.00079559 54.6579776 0.00159119 55.83003235 0.00241089 C58.63939642 0.11916667 61.14935878 0.51586272 63.88549805 1.12939453 C65.54204482 1.2576092 67.20165297 1.350371 68.86206055 1.41064453 C69.77987305 1.44802734 70.69768555 1.48541016 71.64331055 1.52392578 C73.56257084 1.59452527 75.48184181 1.66483545 77.40112305 1.73486328 C78.31635742 1.77224609 79.2315918 1.80962891 80.17456055 1.84814453 C81.00681152 1.8784375 81.8390625 1.90873047 82.6965332 1.93994141 C84.88549805 2.12939453 84.88549805 2.12939453 87.88549805 3.12939453 C90.97774081 3.43480122 94.07061523 3.63771764 97.1706543 3.84814453 C99.88549805 4.12939453 99.88549805 4.12939453 101.88549805 5.12939453 C103.57148563 5.23915141 105.25964013 5.31576866 106.94799805 5.37939453 C118.09324981 6.15783229 128.9790921 8.81401961 139.88549805 11.12939453 C141.67582627 11.50066365 143.4661882 11.8717703 145.2565918 12.24267578 C146.84149836 12.57863877 148.42615306 12.91579314 150.01049805 13.25439453 C150.71327881 13.40046143 151.41605957 13.54652832 152.14013672 13.69702148 C156.66556833 14.69145819 160.64010641 16.30787576 164.88549805 18.12939453 C167.18425719 18.68918255 169.49820877 19.19006427 171.82299805 19.62939453 C177.14161202 20.70665357 181.87628189 22.0720379 186.88549805 24.12939453 C187.89612305 24.45939453 188.90674805 24.78939453 189.94799805 25.12939453 C192.88549805 26.12939453 192.88549805 26.12939453 196.13549805 27.62939453 C198.95597915 28.87881818 201.59578009 29.49456842 204.63549805 30.00439453 C209.55738025 30.8992822 213.67344634 32.68203261 218.16674805 34.84033203 C220.71014171 36.04625144 223.2632715 37.10871774 225.88549805 38.12939453 C230.23460853 39.83773058 234.45886022 41.75232218 238.69799805 43.71533203 C241.84269858 45.11040751 245.01506829 46.39630177 248.2097168 47.67089844 C254.57565139 50.21921649 260.49188086 52.85336129 266.28393555 56.56298828 C268.82790211 58.0947159 271.42976157 59.40240584 274.10595703 60.68579102 C284.92247119 65.87454951 295.03501522 72.13856676 305.21166992 78.47216797 C307.54638406 79.91921322 309.89123248 81.34625864 312.24487305 82.76220703 C322.93943383 89.2382479 332.92468722 96.58441027 342.88549805 104.12939453 C343.52181152 104.60973145 344.158125 105.09006836 344.8137207 105.58496094 C359.85981275 116.96349061 374.99998029 128.81845953 388.15112305 142.39111328 C389.88959717 144.13350289 391.69725862 145.72406622 393.57299805 147.31689453 C401.62919103 154.25859441 409.22171402 161.95217151 416.09643555 170.06298828 C417.92235811 172.17196871 419.81676125 174.2076962 421.72412109 176.24291992 C427.66283178 182.60281577 433.07154593 189.26776069 438.3684082 196.16650391 C439.99849548 198.27559655 441.64906269 200.36745413 443.3034668 202.45751953 C450.90884118 212.09092423 458.11071879 221.89515353 464.88549805 232.12939453 C465.34021484 232.81356445 465.79493164 233.49773437 466.26342773 234.20263672 C492.7357832 274.16125864 514.13737831 317.48658603 528.88549805 363.12939453 C529.17086426 364.00225098 529.45623047 364.87510742 529.75024414 365.77441406 C534.69946019 381.03157819 538.52765672 396.45082219 541.88549805 412.12939453 C542.10979492 413.16854004 542.3340918 414.20768555 542.56518555 415.27832031 C550.23177217 451.12524998 554.17367513 486.99237342 554.13549805 523.62939453 C554.13481323 524.55894958 554.13412842 525.48850464 554.13342285 526.44622803 C554.09201063 543.42712163 553.70079575 560.44670351 551.63549805 577.31689453 C551.50618896 578.38891113 551.37687988 579.46092773 551.24365234 580.56542969 C550.80715305 584.08905075 550.35038395 587.60940902 549.88549805 591.12939453 C549.72065918 592.38413574 549.55582031 593.63887695 549.38598633 594.93164062 C545.21531541 625.97053755 538.8514504 656.40489911 528.88549805 686.12939453 C528.53374512 687.19802734 528.18199219 688.26666016 527.81958008 689.36767578 C522.5703486 705.27815537 516.60114071 720.78226578 509.88549805 736.12939453 C509.26384766 737.5621875 509.26384766 737.5621875 508.62963867 739.02392578 C489.1672999 783.62134703 463.1898678 824.88522129 431.88549805 862.12939453 C431.45479004 862.64501953 431.02408203 863.16064453 430.58032227 863.69189453 C419.33372732 877.12917881 407.30995478 889.7793185 394.94799805 902.19189453 C394.16739014 902.97717529 393.38678223 903.76245605 392.58251953 904.5715332 C387.84442187 909.29647931 382.96543015 913.77637885 377.88549805 918.12939453 C376.70590183 919.16317083 375.52748719 920.19829713 374.3503418 921.23486328 C314.24443477 973.8665919 237.9048153 1018.19903796 158.98828125 1034.66137695 C156.3612228 1035.24608275 153.75896467 1035.91349637 151.15112305 1036.57861328 C145.15712233 1038.08939913 139.13695434 1039.37145253 133.07299805 1040.56689453 C131.99767822 1040.77934814 130.9223584 1040.99180176 129.81445312 1041.21069336 C113.09617288 1044.48434826 96.48485888 1047.50896653 79.49389648 1048.90283203 C76.8517881 1049.13232254 74.21771435 1049.40919858 71.58081055 1049.69189453 C11.84829983 1055.66310591 -51.4655899 1050.04376826 -109.11450195 1033.12939453 C-110.72919412 1032.6771952 -112.34492545 1032.22867188 -113.9621582 1031.78564453 C-135.82061883 1025.78952047 -135.82061883 1025.78952047 -145.8996582 1021.95996094 C-148.2524993 1021.07764553 -150.61727963 1020.23487075 -152.9855957 1019.39501953 C-193.59693715 1004.79795548 -232.73663061 984.85276741 -268.11450195 960.12939453 C-268.70231445 959.71882812 -269.29012695 959.30826172 -269.89575195 958.88525391 C-281.01679804 951.0837442 -291.94291715 943.03573945 -302.4074707 934.36767578 C-304.19067525 932.89325124 -305.98478262 931.43189951 -307.7902832 929.98486328 C-314.62318752 924.49678529 -321.05647837 918.66853354 -327.44848633 912.68212891 C-329.10428855 911.13891347 -330.77110965 909.6086875 -332.44262695 908.08251953 C-341.4142561 899.88544809 -350.29633072 891.60256337 -358.18481445 882.33642578 C-359.71261182 880.5890462 -361.26454328 878.89115887 -362.85668945 877.20361328 C-368.88758297 870.80626599 -374.47504229 864.2747545 -379.7512207 857.24267578 C-381.9673274 854.32327572 -384.26398096 851.50346343 -386.61450195 848.69189453 C-391.00387964 843.38090373 -394.99100734 837.82894879 -398.95043945 832.19580078 C-400.22920723 830.3838284 -401.53641434 828.59048898 -402.90356445 826.84423828 C-404.11450195 825.12939453 -404.11450195 825.12939453 -404.11450195 823.12939453 C-404.77450195 823.12939453 -405.43450195 823.12939453 -406.11450195 823.12939453 C-406.39422852 822.59572266 -406.67395508 822.06205078 -406.9621582 821.51220703 C-409.76852949 816.29650734 -412.87985754 811.46976123 -416.3684082 806.68408203 C-418.06640567 804.19976359 -419.56855637 801.64892907 -421.04101562 799.02587891 C-422.15992572 797.04914621 -423.31530804 795.09799502 -424.48168945 793.14892578 C-428.76488781 785.97327689 -432.91156552 778.81472898 -436.55200195 771.28564453 C-438.12875721 768.10059891 -439.79436681 764.9770139 -441.48095703 761.84936523 C-445.06124303 755.20402116 -448.34126511 748.58780085 -451.1340332 741.56298828 C-452.13655328 738.98038879 -452.13655328 738.98038879 -453.67700195 736.00439453 C-455.38811095 732.58217653 -456.74637089 729.06861866 -458.1418457 725.50830078 C-459.1366911 722.98055726 -459.1366911 722.98055726 -460.67700195 720.06689453 C-462.20284012 716.94887741 -463.24199194 713.851847 -464.29418945 710.55126953 C-465.15014553 708.02416111 -466.14552751 705.58965209 -467.17700195 703.12939453 C-468.78885984 699.19133264 -469.7901551 695.38639907 -470.6184082 691.22314453 C-471.37838506 688.01568314 -472.7584082 685.12410157 -474.11450195 682.12939453 C-475.31365883 678.93164286 -476.11217871 676.1473167 -476.55200195 672.75439453 C-477.10219899 669.20868028 -478.09533843 666.41852521 -479.4230957 663.12158203 C-480.43786201 660.1976791 -480.68667918 657.18527151 -481.11450195 654.12939453 C-481.77450195 653.46939453 -482.43450195 652.80939453 -483.11450195 652.12939453 C-483.72784037 649.45300873 -484.23827422 646.8345932 -484.67700195 644.12939453 C-484.87205322 642.98277344 -484.87205322 642.98277344 -485.07104492 641.81298828 C-485.89858886 636.8287491 -486.54582887 631.85926278 -486.90356445 626.81689453 C-486.94331576 625.09593385 -486.94331576 625.09593385 -488.11450195 624.12939453 C-488.39848047 621.32116254 -488.5629686 618.51292818 -488.7355957 615.69580078 C-488.8776216 612.96877783 -488.8776216 612.96877783 -491.11450195 611.12939453 C-493.36748761 604.13483122 -493.50542934 596.6338512 -493.8684082 589.35205078 C-493.98428888 586.1149085 -493.98428888 586.1149085 -495.11450195 583.12939453 C-495.25392015 580.95475813 -495.33983496 578.77652792 -495.39575195 576.59814453 C-495.45182617 574.67035156 -495.45182617 574.67035156 -495.5090332 572.70361328 C-495.56264857 570.66278609 -495.61469255 568.62192219 -495.66674805 566.58105469 C-495.71859646 564.60748529 -495.77585069 562.63406023 -495.83325195 560.66064453 C-495.86354492 559.48050781 -495.89383789 558.30037109 -495.92504883 557.08447266 C-495.99215617 554.07162619 -495.99215617 554.07162619 -497.11450195 551.12939453 C-497.20780798 549.28416198 -497.24242641 547.43572428 -497.24389648 545.58813477 C-497.24704865 544.45363388 -497.25020081 543.319133 -497.25344849 542.1502533 C-497.25142426 540.92520584 -497.24940002 539.70015839 -497.24731445 538.43798828 C-497.24827118 537.18180191 -497.24922791 535.92561554 -497.25021362 534.63136292 C-497.25089459 531.97417769 -497.24954674 529.31708424 -497.24487305 526.65991211 C-497.23917013 523.2511983 -497.24246046 519.84256313 -497.24844551 516.4338522 C-497.25292319 513.18522804 -497.24979053 509.93661346 -497.24731445 506.68798828 C-497.24933868 505.4609166 -497.25136292 504.23384491 -497.25344849 502.96958923 C-497.25029633 501.83824051 -497.24714417 500.70689178 -497.24389648 499.54125977 C-497.24310089 498.54215073 -497.2423053 497.54304169 -497.2414856 496.51365662 C-497.11450195 494.12939453 -497.11450195 494.12939453 -496.11450195 492.12939453 C-495.96183583 490.3907071 -495.86517599 488.64691952 -495.7980957 486.90283203 C-495.75620117 485.87158203 -495.71430664 484.84033203 -495.67114258 483.77783203 C-495.63182617 482.69759766 -495.59250977 481.61736328 -495.55200195 480.50439453 C-495.50881836 479.41642578 -495.46563477 478.32845703 -495.42114258 477.20751953 C-495.31485666 474.51494283 -495.21282138 471.822272 -495.11450195 469.12939453 C-494.45450195 469.12939453 -493.79450195 469.12939453 -493.11450195 469.12939453 C-493.12610352 468.15357422 -493.13770508 467.17775391 -493.1496582 466.17236328 C-493.16319336 464.26390625 -493.16319336 464.26390625 -493.17700195 462.31689453 C-493.18860352 461.05232422 -493.20020508 459.78775391 -493.2121582 458.48486328 C-493.11450195 455.12939453 -493.11450195 455.12939453 -492.11450195 452.12939453 C-491.8498326 449.26424372 -491.67054041 446.39963505 -491.4934082 443.52783203 C-491.36836914 442.73634766 -491.24333008 441.94486328 -491.11450195 441.12939453 C-490.45450195 440.79939453 -489.79450195 440.46939453 -489.11450195 440.12939453 C-488.64495935 437.08358184 -488.64495935 437.08358184 -488.48950195 433.56689453 C-488.41473633 432.36935547 -488.3399707 431.17181641 -488.26293945 429.93798828 C-488.21395508 429.01115234 -488.1649707 428.08431641 -488.11450195 427.12939453 C-487.45450195 427.12939453 -486.79450195 427.12939453 -486.11450195 427.12939453 C-486.14930664 426.53513672 -486.18411133 425.94087891 -486.2199707 425.32861328 C-486.4101591 419.50522574 -485.65059208 414.68810834 -483.9699707 409.12548828 C-483.00791355 405.75609178 -482.30726561 402.37638949 -481.61450195 398.94189453 C-480.69055767 394.50503707 -479.60423179 390.45266436 -477.87231445 386.27783203 C-476.44205916 382.22298455 -475.65963642 377.98859947 -474.76293945 373.78955078 C-474.11450195 371.12939453 -474.11450195 371.12939453 -473.11450195 370.12939453 C-472.74689464 367.80121489 -472.41208614 365.46755603 -472.11450195 363.12939453 C-471.45450195 363.12939453 -470.79450195 363.12939453 -470.11450195 363.12939453 C-470.11450195 361.14939453 -470.11450195 359.16939453 -470.11450195 357.12939453 C-469.45450195 357.12939453 -468.79450195 357.12939453 -468.11450195 357.12939453 C-468.11450195 354.81939453 -468.11450195 352.50939453 -468.11450195 350.12939453 C-467.45450195 350.12939453 -466.79450195 350.12939453 -466.11450195 350.12939453 C-466.20731445 349.04658203 -466.20731445 349.04658203 -466.30200195 347.94189453 C-466.07651734 344.55962527 -464.86259314 342.99626408 -463.11450195 340.12939453 C-462.40048963 336.93544427 -462.40048963 336.93544427 -462.11450195 334.12939453 C-461.45450195 334.12939453 -460.79450195 334.12939453 -460.11450195 334.12939453 C-460.11450195 332.47939453 -460.11450195 330.82939453 -460.11450195 329.12939453 C-459.12450195 329.12939453 -458.13450195 329.12939453 -457.11450195 329.12939453 C-457.10032227 328.52353516 -457.08614258 327.91767578 -457.0715332 327.29345703 C-456.6720017 320.27466031 -454.60714844 315.18675192 -451.11450195 309.12939453 C-450.45450195 309.12939453 -449.79450195 309.12939453 -449.11450195 309.12939453 C-449.11450195 307.80939453 -449.11450195 306.48939453 -449.11450195 305.12939453 C-448.45450195 305.12939453 -447.79450195 305.12939453 -447.11450195 305.12939453 C-445.25488782 300.87884794 -444.1824563 296.63005929 -443.11450195 292.12939453 C-442.45450195 292.12939453 -441.79450195 292.12939453 -441.11450195 292.12939453 C-441.11450195 290.80939453 -441.11450195 289.48939453 -441.11450195 288.12939453 C-440.45450195 288.12939453 -439.79450195 288.12939453 -439.11450195 288.12939453 C-439.11450195 286.47939453 -439.11450195 284.82939453 -439.11450195 283.12939453 C-438.45450195 283.12939453 -437.79450195 283.12939453 -437.11450195 283.12939453 C-437.00235352 282.57767578 -436.89020508 282.02595703 -436.7746582 281.45751953 C-436.00089422 278.72874242 -434.84632501 276.40166511 -433.55200195 273.87939453 C-433.09696289 272.98736328 -432.64192383 272.09533203 -432.1730957 271.17626953 C-431.6490918 270.16306641 -431.6490918 270.16306641 -431.11450195 269.12939453 C-430.45450195 269.12939453 -429.79450195 269.12939453 -429.11450195 269.12939453 C-429.11450195 267.80939453 -429.11450195 266.48939453 -429.11450195 265.12939453 C-428.12450195 265.12939453 -427.13450195 265.12939453 -426.11450195 265.12939453 C-426.01137695 264.59314453 -425.90825195 264.05689453 -425.80200195 263.50439453 C-424.93357498 260.50437409 -423.55829899 257.89144103 -422.11450195 255.12939453 C-421.45450195 255.12939453 -420.79450195 255.12939453 -420.11450195 255.12939453 C-420.11450195 253.80939453 -420.11450195 252.48939453 -420.11450195 251.12939453 C-419.45450195 251.12939453 -418.79450195 251.12939453 -418.11450195 251.12939453 C-416.64798178 248.24920177 -415.29402321 245.33630938 -413.98950195 242.37939453 C-413.63629883 241.58017578 -413.2830957 240.78095703 -412.91918945 239.95751953 C-412.65364258 239.35423828 -412.3880957 238.75095703 -412.11450195 238.12939453 C-411.45450195 238.12939453 -410.79450195 238.12939453 -410.11450195 238.12939453 C-409.82575195 237.40751953 -409.53700195 236.68564453 -409.23950195 235.94189453 C-408.19783529 233.33772786 -407.15616862 230.7335612 -406.11450195 228.12939453 C-405.45450195 228.12939453 -404.79450195 228.12939453 -404.11450195 228.12939453 C-404.11450195 227.46939453 -404.11450195 226.80939453 -404.11450195 226.12939453 C-403.12450195 226.12939453 -402.13450195 226.12939453 -401.11450195 226.12939453 C-401.11450195 225.46939453 -401.11450195 224.80939453 -401.11450195 224.12939453 C-400.45450195 224.12939453 -399.79450195 224.12939453 -399.11450195 224.12939453 C-398.78450195 221.81939453 -398.45450195 219.50939453 -398.11450195 217.12939453 C-397.45450195 217.12939453 -396.79450195 217.12939453 -396.11450195 217.12939453 C-396.03200195 216.55189453 -395.94950195 215.97439453 -395.86450195 215.37939453 C-394.88851995 212.45144852 -393.47938972 211.07694916 -391.11450195 209.12939453 C-390.12450195 209.12939453 -389.13450195 209.12939453 -388.11450195 209.12939453 C-388.11450195 208.46939453 -388.11450195 207.80939453 -388.11450195 207.12939453 C-387.45450195 207.12939453 -386.79450195 207.12939453 -386.11450195 207.12939453 C-385.78450195 205.47939453 -385.45450195 203.82939453 -385.11450195 202.12939453 C-384.12450195 201.79939453 -383.13450195 201.46939453 -382.11450195 201.12939453 C-381.38126399 199.11431095 -381.38126399 199.11431095 -381.11450195 197.12939453 C-380.12450195 197.12939453 -379.13450195 197.12939453 -378.11450195 197.12939453 C-378.11450195 196.13939453 -378.11450195 195.14939453 -378.11450195 194.12939453 C-377.45450195 194.12939453 -376.79450195 194.12939453 -376.11450195 194.12939453 C-375.61950195 191.15939453 -375.61950195 191.15939453 -375.11450195 188.12939453 C-374.45450195 188.12939453 -373.79450195 188.12939453 -373.11450195 188.12939453 C-373.11450195 187.46939453 -373.11450195 186.80939453 -373.11450195 186.12939453 C-372.12450195 186.12939453 -371.13450195 186.12939453 -370.11450195 186.12939453 C-369.82575195 185.20126953 -369.53700195 184.27314453 -369.23950195 183.31689453 C-368.11450195 180.12939453 -368.11450195 180.12939453 -366.11450195 177.12939453 C-365.45450195 177.12939453 -364.79450195 177.12939453 -364.11450195 177.12939453 C-364.11450195 176.46939453 -364.11450195 175.80939453 -364.11450195 175.12939453 C-363.45450195 175.12939453 -362.79450195 175.12939453 -362.11450195 175.12939453 C-362.11450195 174.46939453 -362.11450195 173.80939453 -362.11450195 173.12939453 C-361.45450195 173.12939453 -360.79450195 173.12939453 -360.11450195 173.12939453 C-360.11450195 172.46939453 -360.11450195 171.80939453 -360.11450195 171.12939453 C-359.45450195 171.12939453 -358.79450195 171.12939453 -358.11450195 171.12939453 C-358.11450195 170.46939453 -358.11450195 169.80939453 -358.11450195 169.12939453 C-357.45450195 169.12939453 -356.79450195 169.12939453 -356.11450195 169.12939453 C-356.11450195 168.46939453 -356.11450195 167.80939453 -356.11450195 167.12939453 C-355.31012695 166.49001953 -354.50575195 165.85064453 -353.67700195 165.19189453 C-350.87729463 163.31903521 -350.87729463 163.31903521 -350.11450195 160.12939453 C-349.45450195 160.12939453 -348.79450195 160.12939453 -348.11450195 160.12939453 C-348.11450195 159.46939453 -348.11450195 158.80939453 -348.11450195 158.12939453 C-346.44863178 157.12806824 -344.78177621 156.12838118 -343.11450195 155.12939453 C-341.27561631 153.45052991 -339.48637738 151.71629951 -337.73950195 149.94189453 C-337.02213867 149.21812622 -337.02213867 149.21812622 -336.2902832 148.47973633 C-332.84578457 144.97314852 -329.62537634 141.32671033 -326.55200195 137.49267578 C-325.11450195 136.12939453 -325.11450195 136.12939453 -322.11450195 136.12939453 C-322.11450195 135.46939453 -322.11450195 134.80939453 -322.11450195 134.12939453 C-319.11450195 132.12939453 -319.11450195 132.12939453 -316.11450195 132.12939453 C-315.86700195 131.55189453 -315.61950195 130.97439453 -315.36450195 130.37939453 C-313.92056496 127.78030795 -312.37928208 126.05102615 -310.11450195 124.12939453 C-309.12450195 124.12939453 -308.13450195 124.12939453 -307.11450195 124.12939453 C-307.11450195 123.46939453 -307.11450195 122.80939453 -307.11450195 122.12939453 C-306.12450195 122.12939453 -305.13450195 122.12939453 -304.11450195 122.12939453 C-304.11450195 121.13939453 -304.11450195 120.14939453 -304.11450195 119.12939453 C-302.4699707 117.52392578 -302.4699707 117.52392578 -300.30200195 115.94189453 C-299.59430664 115.41208984 -298.88661133 114.88228516 -298.1574707 114.33642578 C-296.11450195 113.12939453 -296.11450195 113.12939453 -293.11450195 113.12939453 C-292.12450195 111.14939453 -292.12450195 111.14939453 -291.11450195 109.12939453 C-290.45450195 109.12939453 -289.79450195 109.12939453 -289.11450195 109.12939453 C-289.11450195 108.46939453 -289.11450195 107.80939453 -289.11450195 107.12939453 C-287.79450195 107.12939453 -286.47450195 107.12939453 -285.11450195 107.12939453 C-284.78450195 105.47939453 -284.45450195 103.82939453 -284.11450195 102.12939453 C-283.12450195 102.12939453 -282.13450195 102.12939453 -281.11450195 102.12939453 C-281.11450195 101.46939453 -281.11450195 100.80939453 -281.11450195 100.12939453 C-279.13450195 99.46939453 -277.15450195 98.80939453 -275.11450195 98.12939453 C-275.11450195 97.46939453 -275.11450195 96.80939453 -275.11450195 96.12939453 C-271.64950195 95.63439453 -271.64950195 95.63439453 -268.11450195 95.12939453 C-268.11450195 94.13939453 -268.11450195 93.14939453 -268.11450195 92.12939453 C-267.45450195 92.12939453 -266.79450195 92.12939453 -266.11450195 92.12939453 C-266.11450195 91.46939453 -266.11450195 90.80939453 -266.11450195 90.12939453 C-264.13450195 89.46939453 -262.15450195 88.80939453 -260.11450195 88.12939453 C-260.11450195 87.13939453 -260.11450195 86.14939453 -260.11450195 85.12939453 C-257.11450195 83.12939453 -257.11450195 83.12939453 -254.11450195 83.12939453 C-254.11450195 82.46939453 -254.11450195 81.80939453 -254.11450195 81.12939453 C-252.79450195 81.12939453 -251.47450195 81.12939453 -250.11450195 81.12939453 C-250.11450195 80.46939453 -250.11450195 79.80939453 -250.11450195 79.12939453 C-247.11450195 77.12939453 -247.11450195 77.12939453 -244.11450195 77.12939453 C-244.11450195 76.46939453 -244.11450195 75.80939453 -244.11450195 75.12939453 C-243.5112207 74.94763672 -242.90793945 74.76587891 -242.28637695 74.57861328 C-238.01239888 73.23437824 -234.59010845 72.04890399 -231.11450195 69.12939453 C-230.45450195 69.12939453 -229.79450195 69.12939453 -229.11450195 69.12939453 C-229.11450195 68.46939453 -229.11450195 67.80939453 -229.11450195 67.12939453 C-227.86558582 66.64740991 -226.61531387 66.16893776 -225.36450195 65.69189453 C-224.6684082 65.42505859 -223.97231445 65.15822266 -223.25512695 64.88330078 C-221.22391192 64.1679276 -219.21097286 63.61573801 -217.11450195 63.12939453 C-217.11450195 62.46939453 -217.11450195 61.80939453 -217.11450195 61.12939453 C-215.79450195 61.12939453 -214.47450195 61.12939453 -213.11450195 61.12939453 C-213.11450195 60.46939453 -213.11450195 59.80939453 -213.11450195 59.12939453 C-212.04200195 58.61376953 -210.96950195 58.09814453 -209.86450195 57.56689453 C-205.0406345 55.18505624 -200.50825224 52.3658626 -195.9465332 49.52001953 C-193.01534096 48.08070306 -191.32564517 47.82413046 -188.11450195 48.12939453 C-188.11450195 47.46939453 -188.11450195 46.80939453 -188.11450195 46.12939453 C-187.20700195 45.86126953 -186.29950195 45.59314453 -185.36450195 45.31689453 C-182.18346809 44.34755122 -182.18346809 44.34755122 -180.1965332 42.60986328 C-177.85708304 40.94635181 -176.37123195 40.63524603 -173.55200195 40.25439453 C-168.4393932 39.37708297 -164.25847556 37.50430571 -159.6574707 35.15283203 C-156.93997783 34.05915595 -155.01420877 33.93156893 -152.11450195 34.12939453 C-152.11450195 33.46939453 -152.11450195 32.80939453 -152.11450195 32.12939453 C-151.06262695 31.84064453 -150.01075195 31.55189453 -148.92700195 31.25439453 C-145.2598975 30.24778534 -145.2598975 30.24778534 -142.42700195 29.00439453 C-140.11450195 28.12939453 -140.11450195 28.12939453 -136.11450195 28.12939453 C-135.78450195 27.13939453 -135.45450195 26.14939453 -135.11450195 25.12939453 C-131.18485424 23.40418334 -127.42889033 22.92125903 -123.1887207 22.47705078 C-120.30552116 21.99380265 -117.77280846 20.9228454 -115.07543945 19.82470703 C-112.15813308 18.79028366 -109.17489506 18.50413654 -106.11450195 18.12939453 C-105.78450195 17.79939453 -105.45450195 17.46939453 -105.11450195 17.12939453 C-101.61450195 16.62939453 -101.61450195 16.62939453 -98.11450195 16.12939453 C-97.78450195 15.79939453 -97.45450195 15.46939453 -97.11450195 15.12939453 C-94.44391344 14.98824292 -91.79017958 15.08692346 -89.11450195 15.12939453 C-89.11450195 14.46939453 -89.11450195 13.80939453 -89.11450195 13.12939453 C-87.91051758 12.92443359 -86.7065332 12.71947266 -85.46606445 12.50830078 C-83.89051503 12.23633094 -82.31499574 11.96418646 -80.73950195 11.69189453 C-79.94543945 11.5571875 -79.15137695 11.42248047 -78.33325195 11.28369141 C-74.10055213 10.61521864 -74.10055213 10.61521864 -70.11450195 9.12939453 C-68.4074746 9.05943439 -66.69782193 9.04499299 -64.98950195 9.06689453 C-64.07942383 9.07591797 -63.1693457 9.08494141 -62.23168945 9.09423828 C-61.18368164 9.11164062 -61.18368164 9.11164062 -60.11450195 9.12939453 C-59.78450195 8.13939453 -59.45450195 7.14939453 -59.11450195 6.12939453 C-58.12708008 6.06880859 -57.1396582 6.00822266 -56.12231445 5.94580078 C-54.20032227 5.82011719 -54.20032227 5.82011719 -52.23950195 5.69189453 C-50.96333008 5.61068359 -49.6871582 5.52947266 -48.37231445 5.44580078 C-45.23150043 5.33733426 -45.23150043 5.33733426 -43.11450195 4.12939453 C-40.03444283 3.81438848 -36.95350284 3.61855805 -33.86450195 3.41064453 C-31.15584203 3.29751961 -31.15584203 3.29751961 -29.11450195 2.12939453 C-27.54503046 1.9893405 -25.97047559 1.90383453 -24.39575195 1.84814453 C-23.46375977 1.81076172 -22.53176758 1.77337891 -21.5715332 1.73486328 C-19.60017904 1.66455078 -17.62882487 1.59423828 -15.6574707 1.52392578 C-14.72547852 1.48654297 -13.79348633 1.44916016 -12.83325195 1.41064453 C-11.97666992 1.38035156 -11.12008789 1.35005859 -10.23754883 1.31884766 C-6.63343269 0.9972292 -3.83078332 0.00268478 0 0 Z M-39.11450195 25.12939453 C-39.83095886 25.22885376 -40.54741577 25.32831299 -41.2855835 25.43078613 C-90.51482196 32.33674466 -137.91396866 46.44991819 -183.11450195 67.12939453 C-183.96206055 67.51063477 -184.80961914 67.891875 -185.68286133 68.28466797 C-199.29985644 74.41066455 -212.2231454 81.60925019 -225.11450195 89.12939453 C-225.99315918 89.63905762 -226.87181641 90.1487207 -227.77709961 90.67382812 C-251.97702723 104.75336896 -274.73752848 121.04364418 -296.11450195 139.12939453 C-296.67218262 139.59829102 -297.22986328 140.0671875 -297.80444336 140.55029297 C-306.96898173 148.26011506 -306.96898173 148.26011506 -315.5715332 156.58251953 C-317.20328113 158.21839846 -318.91401657 159.69871614 -320.67700195 161.19189453 C-329.14678094 168.50369592 -337.18891055 176.61456298 -344.41918945 185.15283203 C-346.55073365 187.63799647 -348.77133795 190.03379599 -350.98950195 192.44189453 C-369.03980879 212.26451246 -384.94677526 234.39349446 -399.11450195 257.12939453 C-399.57646973 257.86786621 -400.0384375 258.60633789 -400.5144043 259.3671875 C-420.5667361 291.60077812 -436.52823851 325.3122694 -449.11450195 361.12939453 C-449.37666504 361.86222656 -449.63882813 362.59505859 -449.90893555 363.35009766 C-451.41956916 367.5777214 -452.8086197 371.83485507 -454.11450195 376.12939453 C-454.36232422 376.93763672 -454.61014648 377.74587891 -454.86547852 378.57861328 C-462.85085972 404.96177977 -469.1095557 432.2111154 -471.85864258 459.66064453 C-472.2493198 463.43023242 -472.74867917 467.18431349 -473.23950195 470.94189453 C-473.99036299 476.99884022 -474.69928459 483.0395399 -475.11450195 489.12939453 C-475.24791992 490.49837891 -475.24791992 490.49837891 -475.3840332 491.89501953 C-475.77922104 498.47535651 -474.40654972 501.78700333 -470.8293457 507.20751953 C-461.68551004 522.78744909 -460.38902629 542.4937634 -457.67407227 559.96337891 C-455.7185385 574.5596128 -455.7185385 574.5596128 -446.95019531 585.89794922 C-443.51325007 588.20356856 -439.67078457 589.47029694 -435.80200195 590.87939453 C-413.13180388 599.57643874 -393.6429788 611.9861471 -378.42700195 631.27783203 C-375.93650454 634.34888458 -373.31083237 637.2404026 -370.61450195 640.12939453 C-367.18176986 643.81618425 -363.88887873 647.57055761 -360.73950195 651.50439453 C-356.61636243 656.64154305 -352.18871663 661.43374049 -347.63061523 666.18359375 C-344.35446464 669.63591376 -341.63795914 673.09064102 -339.11450195 677.12939453 C-340.00137695 677.78939453 -340.88825195 678.44939453 -341.80200195 679.12939453 C-347.07599605 683.50356025 -350.75452092 689.45758804 -351.42700195 696.31689453 C-350.9902317 701.64549164 -348.83933067 705.47222597 -345.95825195 709.91064453 C-343.18317293 714.271483 -342.01853358 718.05581682 -343.11450195 723.12939453 C-344.82098325 727.05290275 -347.03335036 730.65376871 -349.55981445 734.10205078 C-352.91586688 739.0785971 -353.57991178 743.57315959 -353.61450195 749.50439453 C-353.62070557 750.18759766 -353.62690918 750.87080078 -353.63330078 751.57470703 C-353.48549917 757.71171832 -351.90103625 763.28659735 -350.11450195 769.12939453 C-349.82317383 770.09119629 -349.5318457 771.05299805 -349.23168945 772.04394531 C-340.02051683 801.7981979 -327.29077254 817.4632708 -301.27026367 834.11181641 C-270.72206619 853.77407306 -260.77497735 883.21772705 -251.1472168 916.58886719 C-249.53319692 922.12232257 -247.826936 927.62578196 -246.11450195 933.12939453 C-245.84766602 934.0151416 -245.58083008 934.90088867 -245.3059082 935.81347656 C-244.57015905 938.22399829 -243.78646047 940.61351897 -242.98950195 943.00439453 C-242.7574707 943.79330078 -242.52543945 944.58220703 -242.28637695 945.39501953 C-238.5824563 956.21909833 -226.98416995 960.52656251 -217.48950195 965.56689453 C-216.43480713 966.13182617 -215.3801123 966.69675781 -214.29345703 967.27880859 C-206.61259277 971.37573856 -198.89702391 975.38659917 -191.06176758 979.18017578 C-189.03470461 980.16829273 -187.02023119 981.17963862 -185.00512695 982.19189453 C-149.81658395 999.61706597 -111.53325995 1011.46306641 -73.11450195 1019.12939453 C-72.06037109 1019.34337891 -71.00624023 1019.55736328 -69.92016602 1019.77783203 C-54.09580541 1022.9642594 -38.31485075 1025.28241965 -22.24731445 1026.82080078 C-19.38623811 1027.1026275 -16.53252 1027.42167193 -13.67700195 1027.75439453 C15.63947012 1030.98231804 45.55564671 1029.4976167 74.88549805 1027.12939453 C76.2912207 1027.02522217 76.2912207 1027.02522217 77.7253418 1026.91894531 C98.83477975 1025.34055697 119.79295948 1021.36060264 140.36083984 1016.44189453 C143.83226569 1015.61185004 147.30713396 1014.80482792 150.79052734 1014.02661133 C163.20787046 1011.21957833 175.18325366 1007.63465231 187.19799805 1003.44189453 C188.08592041 1003.13503723 188.97384277 1002.82817993 189.88867188 1002.51202393 C212.95739895 994.53261674 235.03437085 985.02432403 256.88549805 974.12939453 C257.79928223 973.6745166 258.71306641 973.21963867 259.65454102 972.75097656 C299.49481416 952.76878349 340.21167451 925.96282785 371.33862305 893.68017578 C372.99185027 892.02277374 374.72624383 890.51953603 376.51049805 889.00439453 C384.58255671 882.03378637 392.20139798 874.33058648 399.09643555 866.19580078 C400.92254499 864.08660451 402.8172029 862.05070614 404.72460938 860.01513672 C410.19587513 854.15665039 415.21845788 848.05556795 420.10424805 841.70361328 C421.86970701 839.4123385 423.67286398 837.16904509 425.54174805 834.96142578 C432.69356706 826.44474608 438.91259717 817.37362959 445.07299805 808.12939453 C445.49265839 807.50121826 445.91231873 806.87304199 446.34469604 806.22583008 C477.05862759 760.1440389 503.25032612 707.52326578 515.40893555 653.17138672 C516.10956953 650.16928496 516.97441337 647.21759749 517.82299805 644.25439453 C523.1796958 624.26476634 526.67645931 603.68853411 528.88549805 583.12939453 C528.96361725 582.45786346 529.04173645 581.7863324 529.1222229 581.0944519 C530.63559439 568.07031199 531.29063162 555.12936881 531.51855469 542.0222168 C531.57411639 538.87862024 531.64409964 535.73555654 531.71557617 532.59228516 C531.75611745 530.59034862 531.79586302 528.58839578 531.8347168 526.58642578 C531.85547775 525.64813431 531.87623871 524.70984283 531.89762878 523.74311829 C531.91809013 522.45863045 531.91809013 522.45863045 531.93896484 521.14819336 C531.95291794 520.39355301 531.96687103 519.63891266 531.98124695 518.86140442 C532.07691882 517.0984826 532.07691882 517.0984826 530.88549805 516.12939453 C527.22205194 515.99371134 524.37934084 515.96478027 520.88549805 517.12939453 C509.56977098 518.07366177 503.48972528 516.34794009 494.94799805 509.12939453 C476.47674441 491.64214984 464.57088671 464.71193218 458.88549805 440.12939453 C475.63897359 445.11286483 491.45740359 451.74515007 504.88549805 463.12939453 C505.68084961 463.77521484 506.47620117 464.42103516 507.2956543 465.08642578 C512.44598719 469.42401318 516.52680233 474.21926617 520.54956055 479.61376953 C523.41268307 482.69713225 526.16208333 484.20007068 529.88549805 486.12939453 C529.17604982 463.3536602 525.47969126 441.42231195 520.88549805 419.12939453 C520.67586426 418.0975 520.46623047 417.06560547 520.25024414 416.00244141 C513.02507173 380.96118954 501.06236977 346.76054671 485.92944336 314.37744141 C484.93460985 312.2351526 483.96527484 310.0832014 483.00268555 307.92626953 C477.42204339 295.55550359 470.71414541 283.84650532 463.88549805 272.12939453 C463.36375 271.23188477 462.84200195 270.334375 462.30444336 269.40966797 C455.63063701 257.97552422 448.60900014 246.88315808 440.88549805 236.12939453 C440.34666992 235.37803223 439.8078418 234.62666992 439.25268555 233.85253906 C431.17083227 222.63158695 422.76270932 211.73182029 413.88549805 201.12939453 C413.35118164 200.49066406 412.81686523 199.85193359 412.26635742 199.19384766 C407.19333205 193.15161067 402.12179117 187.15824279 396.4362793 181.67626953 C394.77887726 180.02304231 393.27563954 178.28864875 391.76049805 176.50439453 C384.78988988 168.43233587 377.08669 160.8134946 368.9519043 153.91845703 C366.84292387 152.09253447 364.80719638 150.19813133 362.77197266 148.29077148 C356.39735998 142.33831859 349.71590373 136.92311326 342.80004883 131.61572266 C340.82901874 130.08554781 338.8851337 128.52552114 336.9440918 126.95751953 C319.40563032 112.88894929 300.4293173 100.24507611 280.88549805 89.12939453 C280.24547852 88.76007813 279.60545898 88.39076172 278.94604492 88.01025391 C215.6304581 51.54482998 146.40027926 30.53213009 73.88549805 23.12939453 C72.68993286 22.99840111 72.68993286 22.99840111 71.47021484 22.86476135 C63.77070836 22.07776704 56.12093992 21.95250266 48.38549805 21.92626953 C46.99430809 21.9192127 45.60311852 21.91207998 44.21192932 21.90487671 C39.76978047 21.88526337 35.3276861 21.88018357 30.88549805 21.87939453 C30.12966808 21.87909996 29.37383812 21.87880539 28.59510422 21.87850189 C5.9086153 21.87707129 -16.59925243 21.99319218 -39.11450195 25.12939453 Z " fill="#2F4E60" transform="translate(503.114501953125,7.87060546875)"/>
<path d="M0 0 C2.77662053 2.45529056 4.27217797 5.07969433 5.9375 8.375 C6.42089844 9.31085937 6.90429688 10.24671875 7.40234375 11.2109375 C11.84860454 21.08456556 13.86093707 31.62569357 15.5625 42.25 C15.77447021 43.51545654 15.98644043 44.78091309 16.20483398 46.0847168 C17.11309824 51.51174321 17.99361995 56.94249295 18.84375 62.37890625 C20.52400095 74.24611181 20.52400095 74.24611181 27.0546875 83.96875 C30.90029724 86.62089465 34.88863568 88.07151812 39.25 89.6875 C62.33580272 98.61679486 82.29866984 111.57588589 97.72265625 131.18359375 C100.19858191 134.24558757 102.81458869 137.12300498 105.5 140 C108.93275297 143.68676842 112.22562468 147.4411649 115.375 151.375 C119.49813952 156.51214851 123.92578532 161.30434596 128.48388672 166.05419922 C131.76003731 169.50651923 134.47654281 172.96124649 137 177 C135.6696875 177.99 135.6696875 177.99 134.3125 179 C129.03850591 183.37416572 125.35998103 189.32819351 124.6875 196.1875 C125.12427025 201.51609711 127.27517128 205.34283144 130.15625 209.78125 C132.93132903 214.14208847 134.09596837 217.92642229 133 223 C131.29351871 226.92350822 129.08115159 230.52437418 126.5546875 233.97265625 C123.19863507 238.94920257 122.53459017 243.44376505 122.5 249.375 C122.49379639 250.05820312 122.48759277 250.74140625 122.48120117 251.4453125 C122.62900278 257.58232379 124.2134657 263.15720282 126 269 C126.29132813 269.96180176 126.58265625 270.92360352 126.8828125 271.91455078 C135.8652463 300.92992321 147.97210552 316.57669286 173.25 332.625 C204.73478149 352.63868293 215.08240559 382.24126521 224.96801758 416.45678711 C227.71877757 425.90125831 230.68874162 435.20915894 234.15039062 444.41601562 C234.82196756 446.2582002 235.4181608 448.12753565 236 450 C235.67 450.66 235.34 451.32 235 452 C215.55874343 439.29211363 196.79235414 425.94356549 179 411 C178.38205566 410.48115234 177.76411133 409.96230469 177.12744141 409.42773438 C161.28753693 396.05644051 145.37472543 381.95664571 131.89453125 366.171875 C130.02633249 364.03018735 128.09777435 361.95361651 126.15478516 359.87988281 C120.20545852 353.50663822 114.79183959 346.82795705 109.48632812 339.91455078 C107.95615328 337.9435207 106.39612661 335.99963565 104.828125 334.05859375 C90.78393909 316.55053079 77.99346633 297.57608478 67 278 C66.55527344 277.20916016 66.11054687 276.41832031 65.65234375 275.60351562 C62.02134935 269.11129764 58.48811352 262.56994433 55 256 C54.30753174 254.70328369 54.30753174 254.70328369 53.60107422 253.38037109 C33.90375255 216.22163994 19.76106068 175.41049111 10.74755859 134.39453125 C10.11373404 131.51644614 9.45129966 128.64823239 8.76953125 125.78125 C5.42693314 111.37752335 3.77829361 96.66210343 2 82 C1.88382324 81.04963867 1.76764648 80.09927734 1.64794922 79.12011719 C-0.54963905 60.82197335 -1.08969596 42.6022224 -1.125 24.1875 C-1.12767883 23.39006378 -1.13035767 22.59262756 -1.13311768 21.77102661 C-1.13899405 19.46579494 -1.13723307 17.16070141 -1.1328125 14.85546875 C-1.13478638 14.16760284 -1.13676025 13.47973694 -1.13879395 12.77102661 C-1.11817318 8.4073911 -0.70157792 4.29342002 0 0 Z " fill="#2394DF" transform="translate(28,508)"/>
<path d="M0 0 C0.5662207 0.37406982 1.13244141 0.74813965 1.71582031 1.13354492 C7.60727658 5.00514228 13.71228549 8.48169894 19.86547852 11.91870117 C26.28153141 15.55408221 31.73589406 19.12720108 35.75 25.5 C36.24113281 26.26699219 36.73226562 27.03398438 37.23828125 27.82421875 C40.45544637 33.15821565 39.82624237 38.71223516 39.4375 44.8125 C36.92907624 52.96487723 29.33573286 59.22011249 22.8125 64.3125 C15.42070087 70.23613489 11.95854598 76.37544933 8.4375 85.0625 C4.74707944 93.86273364 4.74707944 93.86273364 -0.5625 96.8125 C-3.59303681 97.87277045 -6.64342328 98.83749987 -9.7109375 99.78515625 C-14.26133911 101.42454751 -17.49148979 103.57377601 -19.64135742 108.06762695 C-20.67370858 111.14388566 -21.19885432 114.08319303 -21.67578125 117.29296875 C-21.9706543 119.1637207 -21.9706543 119.1637207 -22.27148438 121.07226562 C-22.67062812 123.6699293 -23.06139502 126.26889534 -23.44335938 128.86914062 C-24.86717953 137.77373934 -26.56090617 146.15887085 -33.4375 152.4375 C-38.25559566 154.55746209 -41.50350612 154.55397974 -46.38818359 152.79492188 C-49.7346975 151.35264629 -53.02449067 149.8209794 -56.3125 148.25 C-57.42882812 147.73630859 -58.54515625 147.22261719 -59.6953125 146.69335938 C-71.76805593 141.02986377 -82.61218919 135.27593461 -89.5 123.5 C-91.64154174 116.06759043 -91.20264314 109.68808191 -88.17578125 102.64453125 C-86.69771507 98.22916157 -88.31570639 94.36531769 -90.125 90.3125 C-91.97142273 85.81686206 -92.46646834 82.26431494 -90.74536133 77.59619141 C-89.6182767 75.15472608 -88.42408932 72.76283122 -87.1875 70.375 C-83.49042843 63.13682706 -80.2524817 56.32753847 -80.3125 48 C-80.30734375 47.27167969 -80.3021875 46.54335937 -80.296875 45.79296875 C-80.45764829 43.49400873 -80.45764829 43.49400873 -82.5625 40.8125 C-84.34518846 39.77302528 -84.34518846 39.77302528 -86.375 38.9375 C-91.94153683 36.28532756 -95.94842115 32.45340698 -98.5625 26.8125 C-99.12286605 23.05004223 -98.76918139 21.22586279 -97.0625 17.8125 C-91.47871816 11.11196179 -84.78973975 7.69666788 -76.6875 4.8125 C-75.76984863 4.47565186 -74.85219727 4.13880371 -73.90673828 3.79174805 C-71.13125767 2.78106682 -68.34872735 1.79311906 -65.5625 0.8125 C-64.76392578 0.52842285 -63.96535156 0.2443457 -63.14257812 -0.04833984 C-22.3524547 -14.46794507 -22.3524547 -14.46794507 0 0 Z " fill="#A0E267" transform="translate(418.5625,95.1875)"/>
<path d="M0 0 C14.77827092 10.96528756 23.31551604 27.02027488 26.84765625 44.8828125 C27.17060128 47.19800997 27.32467763 49.47250711 27.4375 51.80859375 C27.47004883 52.43121094 27.50259766 53.05382812 27.53613281 53.6953125 C28.47191975 74.15029164 23.3419509 94.16164133 9.4375 109.80859375 C8.63505859 110.783125 8.63505859 110.783125 7.81640625 111.77734375 C0.88592495 119.5275594 -10.14690908 126.20087291 -20.62817383 126.95776367 C-37.26382663 127.82792576 -48.61650455 124.79368108 -61.5625 113.80859375 C-72.24438002 104.08215917 -78.04620013 90.57580171 -81.5625 76.80859375 C-81.7382959 76.20039795 -81.9140918 75.59220215 -82.09521484 74.96557617 C-86.05459788 56.68911371 -82.27372248 34.91413471 -72.859375 18.9140625 C-71.18337707 16.45668716 -69.42727752 14.12518962 -67.5625 11.80859375 C-66.74652344 10.74898438 -66.74652344 10.74898438 -65.9140625 9.66796875 C-49.34952772 -10.70718671 -21.73507466 -13.96757202 0 0 Z " fill="#2D4C5E" transform="translate(371.5625,436.19140625)"/>
<path d="M0 0 C14.73954688 10.93655482 23.48270674 27.10597816 26.84765625 44.98828125 C29.73067753 66.50942604 26.11630857 88.24897129 12.9375 105.87109375 C11.79297773 107.20294814 10.6266276 108.51640843 9.4375 109.80859375 C8.56738281 110.83146484 8.56738281 110.83146484 7.6796875 111.875 C-0.16195719 120.52049529 -11.47714043 126.50788055 -23.19921875 127.1796875 C-39.95586423 127.58866773 -51.20471898 123.23991851 -63.74609375 111.8203125 C-76.90373964 98.20099483 -82.98334481 79.22028659 -82.875 60.62109375 C-82.87008545 59.6158667 -82.8651709 58.61063965 -82.86010742 57.57495117 C-82.59192415 40.40709564 -78.23773554 25.43508232 -67.5625 11.80859375 C-66.74458984 10.74318359 -66.74458984 10.74318359 -65.91015625 9.65625 C-49.31387766 -10.68883505 -21.75153872 -13.97815228 0 0 Z " fill="#2D4C5E" transform="translate(572.5625,436.19140625)"/>
<path d="M0 0 C24.71182777 4.91428393 46.81807863 18.69872821 62.0625 38.70703125 C63.92619963 40.91265964 65.55217911 42.20202805 68 43.6875 C71 46 71 46 71.68359375 49.42578125 C72.16792504 54.77466809 72.10827095 60.13423591 72.0625 65.5 C72.05798828 66.51320313 72.05347656 67.52640625 72.04882812 68.5703125 C72.03714593 71.04693827 72.02076582 73.52343657 72 76 C51.34736915 80.48342149 51.34736915 80.48342149 42.95703125 75.44921875 C21.30244451 59.41358665 6.08568077 30.0024542 0 4 C0 2.68 0 1.36 0 0 Z " fill="#2394DF" transform="translate(962,448)"/>
<path d="M0 0 C26.73 0 53.46 0 81 0 C81 13.79828138 78.03118458 24.82729675 68.2265625 34.8046875 C58.06828837 43.41993264 44.77208841 43.92706269 32.09375 43.18017578 C21.18276679 42.24124089 13.45256175 36.48905733 6.5390625 28.28125 C0.66596152 19.57594296 0 10.21782696 0 0 Z " fill="#2C4C5E" transform="translate(404,584)"/>
<path d="M0 0 C4.55023052 2.32784972 8.14781412 5.13914145 10 10 C10.74851927 15.89094386 10.49233022 21.0431442 7 26 C1.39211305 32.03812167 -4.69003847 35.06859276 -12.9375 35.375 C-21.2847956 35.05542513 -27.25752943 32.58351299 -33.3359375 26.83203125 C-36.26060998 23.61214535 -37.72624542 20.64252747 -38.4375 16.375 C-38 14 -38 14 -36.6875 11.75 C-33.66406589 9.78125221 -32.34509855 9.77342851 -28.8125 9.625 C-21.663213 9.24268519 -17.35265998 5.84407284 -12.04296875 1.33984375 C-8.28223822 -1.1265627 -4.30731961 -0.80601041 0 0 Z " fill="#9FE168" transform="translate(600,100)"/>
<path d="M0 0 C5.1160446 2.04189703 8.83787362 5.07130331 11.5625 9.875 C13.57280273 14.74789972 14.01007062 19.08861997 12.26953125 24.10546875 C9.79296694 29.49325968 6.72280097 33.70048136 1.25 36.3125 C-4.33187224 37.49328067 -9.54403594 38.09707271 -14.75 35.375 C-19.08547858 32.54181516 -22.34508163 28.96475512 -24 24 C-24.48514482 18.48843667 -24.76737316 13.62328938 -22.375 8.5625 C-15.48275479 1.12613016 -10.26731825 -1.29758746 0 0 Z " fill="#FBFCFC" transform="translate(534,459)"/>
<path d="M0 0 C5.0410931 2.25117516 8.0616753 5.52325319 10.671875 10.3515625 C12.26005296 15.11609638 12.75619974 19.87930208 10.6953125 24.578125 C7.86591203 29.21278712 5.00338516 33.26713917 -0.015625 35.6015625 C-5.60650521 36.86742217 -10.84967469 37.46039273 -16.078125 34.7265625 C-20.41360358 31.89337766 -23.67320663 28.31631762 -25.328125 23.3515625 C-25.81326982 17.83999917 -26.09549816 12.97485188 -23.703125 7.9140625 C-16.74809552 0.40995174 -10.38494606 -2.89245142 0 0 Z " fill="#FBFCFC" transform="translate(334.328125,459.6484375)"/>
<path d="M0 0 C2.4375 1.0625 2.4375 1.0625 4 3 C4.56988508 6.91795996 4.59460908 9.07240983 2.4375 12.4375 C-0.90506283 14.58016848 -3.10495209 14.49573337 -7 14 C-8.9375 13 -8.9375 13 -10 11 C-10.52960415 7.41957756 -10.65886567 4.24021772 -8.9375 1 C-5.85873258 -0.58904125 -3.39844421 -0.35773097 0 0 Z " fill="#F8F9F9" transform="translate(561,505)"/>
<path d="M0 0 C2.4375 1.0625 2.4375 1.0625 4 3 C4.56988508 6.91795996 4.59460908 9.07240983 2.4375 12.4375 C-0.92759017 14.59460908 -3.08204004 14.56988508 -7 14 C-8.9375 12.4375 -8.9375 12.4375 -10 10 C-10.61818182 4.12727273 -10.61818182 4.12727273 -8.9375 1.0625 C-5.87116726 -0.61903731 -3.42486249 -0.36051184 0 0 Z " fill="#F8F9FA" transform="translate(360,505)"/>
<path d="M0 0 C1.28505936 -0.00315216 2.57011871 -0.00630432 3.89411926 -0.009552 C5.30400629 -0.0077616 6.713893 -0.00571049 8.1237793 -0.00341797 C9.56625891 -0.00409152 11.00873842 -0.00506197 12.45121765 -0.00631714 C15.47839435 -0.00779313 18.50554157 -0.00564366 21.53271484 -0.00097656 C25.40637481 0.00470537 29.27996525 0.00145088 33.15362263 -0.00454903 C36.13480651 -0.00817037 39.11597404 -0.00700855 42.09715843 -0.00442123 C43.52485347 -0.00375552 44.95255001 -0.00456793 46.3802433 -0.00690079 C48.3810994 -0.00945138 50.38196071 -0.0048721 52.3828125 0 C53.52039505 0.00079559 54.6579776 0.00159119 55.83003235 0.00241089 C58.63962458 0.11917615 61.14921351 0.51543528 63.88549805 1.12939453 C65.57707198 1.2685799 67.27180178 1.37297813 68.9675293 1.44580078 C69.89887695 1.48769531 70.83022461 1.52958984 71.78979492 1.57275391 C72.74950195 1.61207031 73.70920898 1.65138672 74.69799805 1.69189453 C75.67704102 1.73507812 76.65608398 1.77826172 77.66479492 1.82275391 C80.07156832 1.92841713 82.47843788 2.0305178 84.88549805 2.12939453 C84.88549805 2.45939453 84.88549805 2.78939453 84.88549805 3.12939453 C75.97549805 3.12939453 67.06549805 3.12939453 57.88549805 3.12939453 C57.88549805 2.46939453 57.88549805 1.80939453 57.88549805 1.12939453 C37.42549805 1.12939453 16.96549805 1.12939453 -4.11450195 1.12939453 C-4.11450195 1.78939453 -4.11450195 2.44939453 -4.11450195 3.12939453 C-12.36450195 3.12939453 -20.61450195 3.12939453 -29.11450195 3.12939453 C-29.11450195 2.79939453 -29.11450195 2.46939453 -29.11450195 2.12939453 C-28.48882324 2.10433838 -27.86314453 2.07928223 -27.21850586 2.0534668 C-24.39195576 1.9376418 -21.56575026 1.81485469 -18.73950195 1.69189453 C-17.26223633 1.63291992 -17.26223633 1.63291992 -15.75512695 1.57275391 C-14.34360352 1.50991211 -14.34360352 1.50991211 -12.90356445 1.44580078 C-12.03425293 1.40914307 -11.16494141 1.37248535 -10.26928711 1.3347168 C-6.64354143 0.98923163 -3.85100753 0.00269895 0 0 Z " fill="#8497A1" transform="translate(503.114501953125,7.87060546875)"/>
<path d="M0 0 C0.66 0 1.32 0 2 0 C1.88151074 4.34181226 1.7572464 8.68340965 1.62768555 13.02490234 C1.58443965 14.5010939 1.54275744 15.97733215 1.50268555 17.45361328 C1.44473154 19.57859348 1.38111054 21.70334093 1.31640625 23.828125 C1.27974854 25.1059082 1.24309082 26.38369141 1.20532227 27.70019531 C1 31 1 31 0.4942627 32.89099121 C-0.07908821 35.33746776 -0.11987082 37.53115486 -0.11352539 40.04394531 C-0.11344986 41.04468079 -0.11337433 42.04541626 -0.11329651 43.07647705 C-0.10813522 44.14952087 -0.10297394 45.2225647 -0.09765625 46.328125 C-0.0962413 47.43226746 -0.09482635 48.53640991 -0.09336853 49.67401123 C-0.08777258 53.19936842 -0.07522079 56.72466202 -0.0625 60.25 C-0.05748448 62.64062408 -0.05292166 65.03124916 -0.04882812 67.421875 C-0.03780447 73.28127168 -0.02107033 79.1406313 0 85 C-2.26373511 81.60439733 -2.24859216 80.43882503 -2.24291992 76.45874023 C-2.24753487 74.75698891 -2.24753487 74.75698891 -2.25224304 73.02085876 C-2.24505753 71.79581131 -2.23787201 70.57076385 -2.23046875 69.30859375 C-2.23001053 68.05240738 -2.22955231 66.79622101 -2.2290802 65.50196838 C-2.226057 62.8446808 -2.21923925 60.18773949 -2.20581055 57.53051758 C-2.18880359 54.12179405 -2.1849968 50.71321865 -2.18575573 47.30445766 C-2.18541875 44.05582167 -2.17658288 40.80721683 -2.16796875 37.55859375 C-2.16685593 36.33152206 -2.1657431 35.10445038 -2.16459656 33.8401947 C-2.15821671 32.70884598 -2.15183685 31.57749725 -2.14526367 30.41186523 C-2.13954597 28.91320168 -2.13954597 28.91320168 -2.13371277 27.38426208 C-2 25 -2 25 -1 23 C-0.84733388 21.26131256 -0.75067404 19.51752499 -0.68359375 17.7734375 C-0.64169922 16.7421875 -0.59980469 15.7109375 -0.55664062 14.6484375 C-0.51732422 13.56820313 -0.47800781 12.48796875 -0.4375 11.375 C-0.39431641 10.28703125 -0.35113281 9.1990625 -0.30664062 8.078125 C-0.2003547 5.3855483 -0.09831943 2.69287747 0 0 Z " fill="#81939E" transform="translate(8,477)"/>
<path d="M0 0 C-1.71867343 1.71867343 -4.09213219 1.32920599 -6.4375 1.5 C-10.36434915 1.71419183 -10.36434915 1.71419183 -14 3 C-16.2072923 3.07092842 -18.41667452 3.08415025 -20.625 3.0625 C-21.81351562 3.05347656 -23.00203125 3.04445313 -24.2265625 3.03515625 C-25.14179688 3.02355469 -26.05703125 3.01195312 -27 3 C-27 3.99 -27 4.98 -27 6 C-27.72703125 6.03738281 -28.4540625 6.07476563 -29.203125 6.11328125 C-35.83541778 6.54693116 -41.87684694 7.63248091 -48.28515625 9.3671875 C-51.6642295 10.1548276 -54.55295966 10.23502548 -58 10 C-58 10.66 -58 11.32 -58 12 C-61.3 12 -64.6 12 -68 12 C-68 11.67 -68 11.34 -68 11 C-65.36 11 -62.72 11 -60 11 C-60 10.34 -60 9.68 -60 9 C-58.79601562 8.79503906 -57.59203125 8.59007812 -56.3515625 8.37890625 C-54.77601308 8.10693641 -53.20049379 7.83479193 -51.625 7.5625 C-50.8309375 7.42779297 -50.036875 7.29308594 -49.21875 7.15429688 C-44.98605017 6.48582411 -44.98605017 6.48582411 -41 5 C-39.29297265 4.93003986 -37.58331997 4.91559846 -35.875 4.9375 C-34.96492188 4.94652344 -34.05484375 4.95554687 -33.1171875 4.96484375 C-32.06917969 4.98224609 -32.06917969 4.98224609 -31 5 C-30.67 4.01 -30.34 3.02 -30 2 C-29.01257813 1.93941406 -28.02515625 1.87882813 -27.0078125 1.81640625 C-25.72648437 1.73261719 -24.44515625 1.64882812 -23.125 1.5625 C-21.84882813 1.48128906 -20.57265625 1.40007813 -19.2578125 1.31640625 C-16.11699848 1.20793973 -16.11699848 1.20793973 -14 0 C-12.0054116 -0.25498999 -10.00374205 -0.45641593 -8 -0.625 C-6.9275 -0.72039063 -5.855 -0.81578125 -4.75 -0.9140625 C-2 -1 -2 -1 0 0 Z " fill="#748995" transform="translate(474,12)"/>
<path d="M0 0 C12.75989627 0.22822579 24.92964484 2.7830468 37.37548828 5.44335938 C39.91340332 5.98163345 42.45504409 6.496185 45 7 C45 7.33 45 7.66 45 8 C42.18711295 7.85980308 39.37483115 7.71312045 36.5625 7.5625 C35.35883789 7.50352539 35.35883789 7.50352539 34.13085938 7.44335938 C28.11328125 7.11328125 28.11328125 7.11328125 27 6 C18.1127338 3.97585396 9.07178675 3.47093975 0 3 C0 2.01 0 1.02 0 0 Z " fill="#80929D" transform="translate(603,13)"/>
<path d="M0 0 C0.99 0 1.98 0 3 0 C4.31626692 3.61973402 5 6.09567131 5 10 C5.66 10 6.32 10 7 10 C7.81690177 12.22763988 8.62861872 14.4569486 9.4375 16.6875 C9.66759766 17.31333984 9.89769531 17.93917969 10.13476562 18.58398438 C11.38053667 22.03242308 12.39804449 25.3813479 13 29 C10.30040734 25.91475124 9.09133028 22.79481866 7.74609375 18.99609375 C6.97732579 16.82314056 6.97732579 16.82314056 5.5625 14.1875 C3.31471987 9.60202853 1.68775244 4.81480646 0 0 Z " fill="#627987" transform="translate(44,730)"/>
<path d="M0 0 C1.4540625 0.0309375 1.4540625 0.0309375 2.9375 0.0625 C2.9375 0.3925 2.9375 0.7225 2.9375 1.0625 C-0.22174063 2.21831974 -3.09258591 3.06640003 -6.4375 3.5 C-9.39055212 3.95823223 -11.36658868 4.51124513 -14.0625 5.625 C-17.92015589 7.17710374 -20.93089448 7.32072535 -25.0625 7.0625 C-25.0625 7.7225 -25.0625 8.3825 -25.0625 9.0625 C-29.5175 9.5575 -29.5175 9.5575 -34.0625 10.0625 C-33.0625 8.0625 -33.0625 8.0625 -30.5 7 C-27.3547292 6.14219887 -24.37027351 5.74890961 -21.13671875 5.41015625 C-18.2535192 4.92690811 -15.72080651 3.85595087 -13.0234375 2.7578125 C-10.10613113 1.72338913 -7.12289311 1.43724201 -4.0625 1.0625 C-3.0625 0.0625 -3.0625 0.0625 0 0 Z " fill="#697F8C" transform="translate(401.0625,24.9375)"/>
<path d="M0 0 C2.43922361 0.08700798 4.87478414 0.19386002 7.3125 0.3125 C8.00279297 0.33505859 8.69308594 0.35761719 9.40429688 0.38085938 C13.76789236 0.61274126 14.77200653 0.77200653 18 4 C12.06 3.67 6.12 3.34 0 3 C0 2.01 0 1.02 0 0 Z " fill="#6B808D" transform="translate(603,13)"/>
<path d="M0 0 C0.66 0.33 1.32 0.66 2 1 C1.67 1.99 1.34 2.98 1 4 C0.34 4 -0.32 4 -1 4 C-1 4.99 -1 5.98 -1 7 C-1.99 7.33 -2.98 7.66 -4 8 C-4.33 8.99 -4.66 9.98 -5 11 C-5.99 11.33 -6.98 11.66 -8 12 C-6.63312778 8.01328937 -4.84804907 5.11505367 -2 2 C-1.34 2 -0.68 2 0 2 C0 1.34 0 0.68 0 0 Z " fill="#A3B1B9" transform="translate(126,198)"/>
<path d="M0 0 C0.33 0 0.66 0 1 0 C1 1.98 1 3.96 1 6 C-0.98 6.99 -0.98 6.99 -3 8 C-3 9.65 -3 11.3 -3 13 C-3.66 13 -4.32 13 -5 13 C-5.33 13.99 -5.66 14.98 -6 16 C-6 14.68 -6 13.36 -6 12 C-5.34 12 -4.68 12 -4 12 C-4 10.35 -4 8.7 -4 7 C-3.34 7 -2.68 7 -2 7 C-1.855625 6.401875 -1.71125 5.80375 -1.5625 5.1875 C-1.1127561 3.43849596 -0.57107659 1.71322977 0 0 Z " fill="#7A8E99" transform="translate(68,284)"/>
<path d="M0 0 C0 3.69418201 -1.28179295 5.77836178 -3 9 C-3.99 9 -4.98 9 -6 9 C-6 9.66 -6 10.32 -6 11 C-6.66 10.67 -7.32 10.34 -8 10 C-7.67 9.34 -7.34 8.68 -7 8 C-6.34 8 -5.68 8 -5 8 C-4.9175 7.4225 -4.835 6.845 -4.75 6.25 C-3.79468987 3.3840696 -2.21530827 2.0009236 0 0 Z " fill="#8B9CA6" transform="translate(112,217)"/>
<path d="M0 0 C0.33 0.66 0.66 1.32 1 2 C-0.32 2 -1.64 2 -3 2 C-3 2.99 -3 3.98 -3 5 C-7.95 6.485 -7.95 6.485 -13 8 C-13.33 7.34 -13.66 6.68 -14 6 C-13.0925 5.731875 -12.185 5.46375 -11.25 5.1875 C-8.24164622 4.08829381 -6.49641383 2.91391727 -4 1 C-1.75 0.3125 -1.75 0.3125 0 0 Z " fill="#8C9DA7" transform="translate(329,48)"/>
<path d="M0 0 C0.99 0 1.98 0 3 0 C3.53341184 1.57914015 4.05125763 3.16354387 4.5625 4.75 C4.85253906 5.63171875 5.14257812 6.5134375 5.44140625 7.421875 C6.01697435 10.07834316 5.89248371 11.47031106 5 14 C3.23945126 9.35855331 1.53472968 4.72224516 0 0 Z " fill="#6C828E" transform="translate(44,730)"/>
<path d="M0 0 C-1.26213042 3.78639125 -2.65345351 4.04104596 -6 6 C-6.99 7.485 -6.99 7.485 -8 9 C-8.66 8.67 -9.32 8.34 -10 8 C-8.90653119 6.65787938 -7.7998425 5.32652025 -6.6875 4 C-5.76517578 2.88625 -5.76517578 2.88625 -4.82421875 1.75 C-3 0 -3 0 0 0 Z " fill="#798D98" transform="translate(181,144)"/>
<path d="M0 0 C-0.99 0.33 -1.98 0.66 -3 1 C-3 1.66 -3 2.32 -3 3 C-4.65 3 -6.3 3 -8 3 C-8 3.66 -8 4.32 -8 5 C-9.32 4.67 -10.64 4.34 -12 4 C-4.71428571 -0.57142857 -4.71428571 -0.57142857 0 0 Z " fill="#8E9FA8" transform="translate(315,56)"/>
<path d="M0 0 C0 0.33 0 0.66 0 1 C-1.65 1 -3.3 1 -5 1 C-5 1.66 -5 2.32 -5 3 C-9.455 3.495 -9.455 3.495 -14 4 C-13 2 -13 2 -10.375 0.875 C-6.78189212 -0.05654649 -3.69584376 -0.14783375 0 0 Z " fill="#92A2AB" transform="translate(381,31)"/>
</svg>
