<?xml version="1.0" encoding="UTF-8"?>
<svg version="1.1" xmlns="http://www.w3.org/2000/svg" width="800" height="800">
<path d="M0 0 C264 0 528 0 800 0 C800 264 800 528 800 800 C536 800 272 800 0 800 C0 536 0 272 0 0 Z " fill="#FEFEFE" transform="translate(0,0)"/>
<path d="M0 0 C264 0 528 0 800 0 C800 264 800 528 800 800 C536 800 272 800 0 800 C0 536 0 272 0 0 Z M370 24 C367.94217944 24.21692984 365.87773787 24.37163893 363.8125 24.5 C361.92917969 24.62375 361.92917969 24.62375 360.0078125 24.75 C357.9997391 24.87605856 355.99157039 25.00052251 353.98339844 25.125 C352.05119618 25.24629568 350.11933977 25.37306186 348.1875 25.5 C347.02605469 25.5721875 345.86460937 25.644375 344.66796875 25.71875 C342.08176195 25.7085448 342.08176195 25.7085448 341 27 C338.62501779 27.32574569 336.25683612 27.61085378 333.875 27.875 C328.39988803 28.53247618 323.94889819 29.57819876 319 32 C317.01178687 32.39764263 315.01267638 32.75455166 313 33 C313 33.66 313 34.32 313 35 C311.88625 34.95875 310.7725 34.9175 309.625 34.875 C304.60098664 34.85699278 299.8781803 35.88041764 295 37 C295 37.66 295 38.32 295 39 C294.26394531 39.04898438 293.52789062 39.09796875 292.76953125 39.1484375 C291.79371094 39.22320312 290.81789063 39.29796875 289.8125 39.375 C288.84957031 39.44460937 287.88664062 39.51421875 286.89453125 39.5859375 C283.98491062 40.00215853 281.67109226 40.79874096 279 42 C279 42.66 279 43.32 279 44 C276.03 44.33 273.06 44.66 270 45 C270 45.66 270 46.32 270 47 C267.36 47.33 264.72 47.66 262 48 C262 48.66 262 49.32 262 50 C260.68 50 259.36 50 258 50 C258 50.66 258 51.32 258 52 C257.32453125 52.12117188 256.6490625 52.24234375 255.953125 52.3671875 C255.06109375 52.53476562 254.1690625 52.70234375 253.25 52.875 C251.92742187 53.11863281 251.92742187 53.11863281 250.578125 53.3671875 C248.13052256 53.96796264 246.19400143 54.77997117 244 56 C244 56.66 244 57.32 244 58 C243.01 58 242.02 58 241 58 C241 58.66 241 59.32 241 60 C237.7 60.66 234.4 61.32 231 62 C231 62.66 231 63.32 231 64 C228.03 64.495 228.03 64.495 225 65 C225 65.66 225 66.32 225 67 C224.01 67 223.02 67 222 67 C222 67.66 222 68.32 222 69 C221.2265625 69.1546875 221.2265625 69.1546875 220.4375 69.3125 C217.13973565 70.24263866 214.13366668 71.61395512 211 73 C211 73.66 211 74.32 211 75 C208.03 75.495 208.03 75.495 205 76 C205 76.66 205 77.32 205 78 C204.29875 78.2475 203.5975 78.495 202.875 78.75 C199.60485452 80.17180238 196.858878 81.87246288 194 84 C194 84.66 194 85.32 194 86 C191.525 86.495 191.525 86.495 189 87 C189 87.66 189 88.32 189 89 C188.195625 89.268125 187.39125 89.53625 186.5625 89.8125 C185.716875 90.204375 184.87125 90.59625 184 91 C183.67 91.99 183.34 92.98 183 94 C181.95585937 94.10441406 181.95585937 94.10441406 180.890625 94.2109375 C177.18225267 95.22322292 174.67830643 97.24441869 171.75 99.625 C170.60552247 100.53392182 169.46099091 101.44277559 168.31640625 102.3515625 C167.75711426 102.80047852 167.19782227 103.24939453 166.62158203 103.71191406 C163.63660268 106.08299973 160.56583401 108.34400907 157.51171875 110.625 C157.01285156 111.07875 156.51398438 111.5325 156 112 C156 112.66 156 113.32 156 114 C154.68 114.33 153.36 114.66 152 115 C152 115.66 152 116.32 152 117 C151.43152344 117.25136719 150.86304688 117.50273438 150.27734375 117.76171875 C145.97473477 120.10121626 142.57325048 123.6874315 139 127 C138.44054687 127.51691406 137.88109375 128.03382813 137.3046875 128.56640625 C136.15711348 129.66479853 135.07027062 130.82615481 134 132 C134 132.66 134 133.32 134 134 C132.515 134.495 132.515 134.495 131 135 C131 135.66 131 136.32 131 137 C129.515 137.495 129.515 137.495 128 138 C126.34100325 139.55847144 126.34100325 139.55847144 124.8125 141.4375 C124.28269531 142.05496094 123.75289063 142.67242187 123.20703125 143.30859375 C121.8063725 144.92500802 121.8063725 144.92500802 122 147 C121.0409375 147.4021875 121.0409375 147.4021875 120.0625 147.8125 C117.66868314 148.88667752 117.66868314 148.88667752 117 152 C116.34 152 115.68 152 115 152 C114.67 153.32 114.34 154.64 114 156 C113.34 156 112.68 156 112 156 C110.39365985 157.73391951 108.8624713 159.538091 107.375 161.375 C106.55773437 162.37273437 105.74046875 163.37046875 104.8984375 164.3984375 C102.80351031 166.73249885 102.80351031 166.73249885 103 169 C102.34 169 101.68 169 101 169 C99.01762404 171.7497473 97.25181001 174.56206955 95.5625 177.5 C94 180 94 180 91.375 183 C89.07574714 185.90431941 88.31899813 187.38468781 88 191 C87.34 191 86.68 191 86 191 C85.67 192.65 85.34 194.3 85 196 C84.01 196 83.02 196 82 196 C80.5393715 198.64738916 80 199.89448334 80 203 C79.34 203 78.68 203 78 203 C78 203.66 78 204.32 78 205 C77.34 205 76.68 205 76 205 C75.505 207.97 75.505 207.97 75 211 C74.34 211 73.68 211 73 211 C72.505 213.97 72.505 213.97 72 217 C71.34 217 70.68 217 70 217 C69.67 218.65 69.34 220.3 69 222 C68.34 222 67.68 222 67 222 C67 222.99 67 223.98 67 225 C66.34 225 65.68 225 65 225 C64.505 227.97 64.505 227.97 64 231 C63.34 231 62.68 231 62 231 C61.32404685 232.41225926 60.65959941 233.83002905 60 235.25 C59.62875 236.03890625 59.2575 236.8278125 58.875 237.640625 C57.76818748 240.2056657 57.76818748 240.2056657 58 244 C57.34 244 56.68 244 56 244 C55.505 247.96 55.505 247.96 55 252 C54.34 252 53.68 252 53 252 C53 252.99 53 253.98 53 255 C52.34 255 51.68 255 51 255 C50.67 257.31 50.34 259.62 50 262 C49.34 262 48.68 262 48 262 C47.86722656 262.60328125 47.73445313 263.2065625 47.59765625 263.828125 C47.33275391 265.02695312 47.33275391 265.02695312 47.0625 266.25 C46.80146484 267.43335938 46.80146484 267.43335938 46.53515625 268.640625 C46.052444 270.76878703 45.53836822 272.88532842 45 275 C44.34 275 43.68 275 43 275 C41.66416101 279.84241633 40.74671881 283.93437617 41 289 C40.34 289 39.68 289 39 289 C34.20261216 303.71704733 34.20261216 303.71704733 33 319 C32.34 319 31.68 319 31 319 C29.30758065 326.38703793 27.72973775 333.63501808 27.2109375 341.20703125 C27 343 27 343 26 344 C25.78358245 345.91168835 25.62858548 347.83040247 25.5 349.75 C25.4175 350.9153125 25.335 352.080625 25.25 353.28125 C25.1675 354.5084375 25.085 355.735625 25 357 C24.83751587 359.41695148 24.67106966 361.83364102 24.5 364.25 C24.4278125 365.32765625 24.355625 366.4053125 24.28125 367.515625 C24 370 24 370 23 371 C22.90100991 372.79450165 22.87200854 374.5929074 22.87060547 376.39013672 C22.86745331 377.54158173 22.86430115 378.69302673 22.86105347 379.87936401 C22.8630777 381.13347076 22.86510193 382.38757751 22.8671875 383.6796875 C22.86623077 384.95852814 22.86527405 386.23736877 22.86428833 387.55496216 C22.86281134 390.26695966 22.86496523 392.97892428 22.86962891 395.69091797 C22.87531484 399.16685046 22.87205444 402.64270555 22.86605644 406.11863518 C22.86157132 409.4306588 22.86471341 412.74266168 22.8671875 416.0546875 C22.86516327 417.30474579 22.86313904 418.55480408 22.86105347 419.84274292 C22.86420563 421.00049225 22.86735779 422.15824158 22.87060547 423.35107422 C22.87140106 424.37175995 22.87219666 425.39244568 22.87301636 426.44406128 C22.89127641 429.12176919 22.89127641 429.12176919 24 432 C24.22451458 434.22574335 24.40782878 436.45581519 24.5625 438.6875 C24.64628906 439.86699219 24.73007812 441.04648437 24.81640625 442.26171875 C24.90728516 443.61716797 24.90728516 443.61716797 25 445 C25.66 445 26.32 445 27 445 C26.98839844 445.66644531 26.97679687 446.33289063 26.96484375 447.01953125 C26.87084413 456.62092146 27.37747721 465.73375281 30 475 C30.66 475 31.32 475 32 475 C31.95875 476.0725 31.9175 477.145 31.875 478.25 C31.97797035 493.10347295 37.21707367 508.0651281 42 522 C42.66 522 43.32 522 44 522 C44.061875 523.2375 44.12375 524.475 44.1875 525.75 C44.74980894 531.04577523 46.67359601 535.47471206 48.84375 540.30078125 C49.80848883 542.55292495 50.50065952 544.61110974 51 547 C51.66 547 52.32 547 53 547 C53.33 549.31 53.66 551.62 54 554 C54.66 554 55.32 554 56 554 C56.12938965 554.57548584 56.2587793 555.15097168 56.39208984 555.74389648 C58.44686144 563.36965725 62.71553793 570.48960464 66.375 577.4375 C67.05949219 578.75331055 67.05949219 578.75331055 67.7578125 580.09570312 C70.96038189 586.19947652 74.38761435 592.13018886 78 598 C78.37608398 598.61206299 78.75216797 599.22412598 79.13964844 599.85473633 C84.58051687 608.62187166 90.49561589 616.97389087 96.67871094 625.22900391 C97.92448401 626.89878179 99.15595825 628.57801323 100.3828125 630.26171875 C105.2406949 636.87148557 110.44554629 642.97063018 116 649 C117.0877983 650.24611636 118.171327 651.49597621 119.25 652.75 C129.98492538 665.10522083 129.98492538 665.10522083 141.93359375 676.24609375 C144.0561487 678.0476574 146.08560503 679.93366515 148.11572266 681.83813477 C154.59924724 687.90319828 161.42097691 693.41439855 168.46337891 698.81445312 C170.45453004 700.35068285 172.41123593 701.92898874 174.375 703.5 C198.26994883 721.92083328 225.0968782 737.51447176 253 749 C254.00546875 749.41636719 255.0109375 749.83273437 256.046875 750.26171875 C266.30528547 754.34608588 276.83902719 757.70079605 287.33056641 761.12792969 C289.45523591 761.82203244 291.57762978 762.52310006 293.69921875 763.2265625 C307.00702647 767.50593596 320.8069566 770.90328541 334.69921875 772.54296875 C337.37573078 772.91356272 339.94972854 773.39251035 342.58984375 773.94921875 C374.77113994 780.48393396 411.56858829 780.80987604 444 776 C445.29711914 775.81163574 446.59423828 775.62327148 447.93066406 775.42919922 C515.83231179 765.4235723 580.19065921 740.30408946 634 697 C634.81339844 696.36578125 635.62679687 695.7315625 636.46484375 695.078125 C639.00549013 693.08513821 641.50778825 691.05326325 644 689 C644.76739502 688.37013184 644.76739502 688.37013184 645.55029297 687.72753906 C654.06529388 680.68873807 662.04146524 673.16297891 669.875 665.375 C670.74229736 664.51688721 671.60959473 663.65877441 672.50317383 662.7746582 C678.4240419 656.82546333 683.77046833 650.55922169 689 644 C690.47669572 642.20629623 691.95558042 640.41439035 693.4375 638.625 C694.96128439 636.75239749 696.48208001 634.8773593 698 633 C698.74636719 632.08476563 699.49273438 631.16953125 700.26171875 630.2265625 C726.69160701 596.93800903 744.84672618 558.70138636 758.97070312 518.88867188 C759.7962174 516.57190601 760.63550463 514.26137136 761.484375 511.953125 C790.03791776 431.48404995 782.01655312 336.16888532 751 258 C750.61585938 257.0203125 750.23171875 256.040625 749.8359375 255.03125 C737.52172154 224.53890572 720.44851389 195.73845553 700 170 C699.40703125 169.24332031 698.8140625 168.48664063 698.203125 167.70703125 C686.54079723 152.93635579 674.22483069 137.52522847 659.7109375 125.4609375 C657.92541819 123.93631599 656.3164164 122.31509636 654.6875 120.625 C650.1309107 116.00683517 645.06950732 112.03623195 640 108 C638.92572656 107.13418244 637.85150921 106.26829527 636.77734375 105.40234375 C624.41402552 95.50019174 611.51706224 86.26569304 598 78 C597.4519873 77.65904297 596.90397461 77.31808594 596.33935547 76.96679688 C587.51789202 71.48089638 578.53595256 66.55263937 569.17578125 62.04882812 C566.84106228 60.9233846 564.5145307 59.78187211 562.1875 58.640625 C554.40683479 54.85722461 546.78574348 51.2588589 538.4453125 48.8515625 C536 48 536 48 533.5859375 46.53515625 C530.62879579 44.77963255 527.78671392 43.81464058 524.5 42.8125 C523.3965625 42.46832031 522.293125 42.12414062 521.15625 41.76953125 C518.28010201 41.0682922 515.93975047 40.84094634 513 41 C513 40.34 513 39.68 513 39 C504.29927717 35.9146373 495.63758248 34.09443189 486.55859375 32.5078125 C484 32 484 32 480.4375 30.875 C475.91248517 29.72317804 471.64209948 29.83187567 467 30 C467 29.34 467 28.68 467 28 C464.03 28 461.06 28 458 28 C458 27.34 458 26.68 458 26 C457.19256348 25.94465088 456.38512695 25.88930176 455.55322266 25.83227539 C451.91016181 25.58007964 448.26759214 25.32137374 444.625 25.0625 C443.35398437 24.97548828 442.08296875 24.88847656 440.7734375 24.79882812 C439.56171875 24.71181641 438.35 24.62480469 437.1015625 24.53515625 C435.98088379 24.456604 434.86020508 24.37805176 433.70556641 24.29711914 C431 24 431 24 429 23 C427.15686563 22.90390876 425.31023656 22.87204096 423.46459961 22.87060547 C422.30677475 22.86745331 421.14894989 22.86430115 419.95603943 22.86105347 C418.70081985 22.8630777 417.44560028 22.86510193 416.15234375 22.8671875 C414.87017471 22.86623077 413.58800568 22.86527405 412.26698303 22.86428833 C409.55256955 22.86281329 406.83818896 22.86496006 404.1237793 22.86962891 C400.63758959 22.87533178 397.15147677 22.87204246 393.66528988 22.86605644 C390.34846826 22.86158345 387.03166756 22.86471071 383.71484375 22.8671875 C382.45759995 22.86516327 381.20035614 22.86313904 379.90501404 22.86105347 C378.75034134 22.86420563 377.59566864 22.86735779 376.40600586 22.87060547 C374.87283974 22.87179886 374.87283974 22.87179886 373.30870056 22.87301636 C371.03714768 22.74045036 371.03714768 22.74045036 370 24 Z " fill="#FEFEFE" transform="translate(0,0)"/>
<path d="M0 0 C1.1546727 -0.00315216 2.3093454 -0.00630432 3.49900818 -0.009552 C4.75625198 -0.00752777 6.01349579 -0.00550354 7.30883789 -0.00341797 C8.5900502 -0.00437469 9.87126251 -0.00533142 11.19129944 -0.00631714 C13.90749309 -0.00779395 16.62365391 -0.00564045 19.33984375 -0.00097656 C22.82484272 0.00471506 26.30976458 0.00144524 29.7947607 -0.00454903 C33.11195931 -0.00902856 36.4291371 -0.00589319 39.74633789 -0.00341797 C41.00155746 -0.0054422 42.25677704 -0.00746643 43.55003357 -0.009552 C44.70785843 -0.00639984 45.86568329 -0.00324768 47.05859375 0 C48.59295326 0.00119339 48.59295326 0.00119339 50.15830994 0.00241089 C52.59399414 0.12939453 52.59399414 0.12939453 54.59399414 1.12939453 C56.62345533 1.35226534 58.65889157 1.52179388 60.69555664 1.66455078 C61.90727539 1.7515625 63.11899414 1.83857422 64.36743164 1.92822266 C65.63844727 2.01523437 66.90946289 2.10224609 68.21899414 2.19189453 C70.13711914 2.32821289 70.13711914 2.32821289 72.09399414 2.46728516 C75.26041408 2.69177015 78.42706005 2.91230376 81.59399414 3.12939453 C81.59399414 3.78939453 81.59399414 4.44939453 81.59399414 5.12939453 C84.56399414 5.12939453 87.53399414 5.12939453 90.59399414 5.12939453 C90.59399414 5.78939453 90.59399414 6.44939453 90.59399414 7.12939453 C92.51211914 7.00564453 92.51211914 7.00564453 94.46899414 6.87939453 C106.24347316 6.86264563 118.36985235 10.8813124 129.59399414 14.12939453 C130.32618164 14.33693359 131.05836914 14.54447266 131.81274414 14.75830078 C133.40777039 15.21085783 135.00114375 15.66923775 136.59399414 16.12939453 C136.59399414 16.78939453 136.59399414 17.44939453 136.59399414 18.12939453 C137.87274414 18.21189453 139.15149414 18.29439453 140.46899414 18.37939453 C144.05441098 18.77482695 147.01785006 19.55665877 150.34008789 20.95361328 C151.64671387 21.49429443 151.64671387 21.49429443 152.97973633 22.04589844 C153.84244141 22.40345215 154.70514648 22.76100586 155.59399414 23.12939453 C157.1064955 23.71872645 158.62076708 24.30353986 160.13696289 24.88330078 C192.37491129 37.37442658 223.28869685 53.82764605 250.59399414 75.12939453 C251.7122951 75.99031668 252.83079252 76.85098368 253.94946289 77.71142578 C265.00904605 86.26322298 275.83501245 95.08255545 285.58618164 105.12158203 C287.51417832 107.04957871 289.51031245 108.81006487 291.59399414 110.56689453 C296.37943173 114.69421693 300.45283263 119.367692 304.59399414 124.12939453 C305.653749 125.3378515 306.7136537 126.54617709 307.77368164 127.75439453 C322.23204299 144.28273931 334.84201165 161.59986161 346.59399414 180.12939453 C346.97330078 180.72139648 347.35260742 181.31339844 347.7434082 181.92333984 C352.58029147 189.47905143 356.77748276 197.19951591 360.68334961 205.27294922 C361.63275561 207.20841389 362.61118569 209.12676255 363.59790039 211.04345703 C368.14278157 219.8989583 372.05529691 228.82934726 375.59399414 238.12939453 C376.28041992 239.85029297 376.28041992 239.85029297 376.98071289 241.60595703 C385.28558669 262.85733273 391.50583144 284.6949708 395.59399414 307.12939453 C395.87958283 308.59571001 396.16597826 310.06186871 396.45336914 311.52783203 C401.29318995 337.1581788 402.35000592 363.12601502 401.59399414 389.12939453 C401.55677246 390.44520508 401.51955078 391.76101563 401.48120117 393.11669922 C399.17292834 461.38407964 377.15900942 528.62950072 339.28149414 585.44189453 C338.90103943 586.01261688 338.52058472 586.58333923 338.12860107 587.1713562 C333.53211173 594.03775825 328.73240724 600.66145632 323.59399414 607.12939453 C322.73859833 608.25017716 321.88669373 609.37363833 321.03930664 610.50048828 C316.54650132 616.43794986 311.95527747 622.14447256 306.89477539 627.61767578 C305.02312546 629.6609201 303.20982926 631.73312227 301.40258789 633.83251953 C297.23952326 638.60136379 292.82123695 643.09413569 288.34399414 647.56689453 C287.50280029 648.40728271 286.66160645 649.2476709 285.79492188 650.11352539 C279.98266138 655.86864367 274.05179485 661.11001361 267.59399414 666.12939453 C265.73688868 667.7092799 263.88290085 669.29283483 262.03149414 670.87939453 C206.70805613 716.94665888 138.4082345 743.50565692 67.59399414 753.12939453 C66.22114258 753.32637939 66.22114258 753.32637939 64.82055664 753.52734375 C29.73685629 758.39780293 -9.55035838 757.06235213 -44.20483398 749.60302734 C-46.44611062 749.12076507 -48.69190124 748.70649774 -50.94897461 748.30517578 C-64.10495788 745.89522089 -76.69232828 742.24767744 -89.40600586 738.12939453 C-90.43935059 737.79858887 -91.47269531 737.4677832 -92.53735352 737.12695312 C-104.42952688 733.31068489 -116.03208679 729.30531392 -127.40600586 724.12939453 C-128.78493071 723.53914743 -130.16522489 722.95209251 -131.54663086 722.36767578 C-158.33873688 710.93771751 -183.61750828 695.2342458 -206.40600586 677.12939453 C-207.16268555 676.53642578 -207.91936523 675.94345703 -208.69897461 675.33251953 C-218.39590775 667.67621343 -228.01626697 659.81241343 -236.61303711 650.92236328 C-238.4866424 649.04875799 -240.44763536 647.34232286 -242.46850586 645.62939453 C-245.74976621 642.79875214 -248.56552217 639.79201372 -251.36303711 636.48876953 C-253.44424549 634.08523251 -255.59357532 631.76269175 -257.76586914 629.44189453 C-263.27673565 623.54726295 -268.5289903 617.56705507 -273.40600586 611.12939453 C-273.9085791 610.46697754 -274.41115234 609.80456055 -274.92895508 609.12207031 C-283.26042748 598.09759673 -291.10944037 586.86398867 -298.40600586 575.12939453 C-298.80658203 574.49050293 -299.2071582 573.85161133 -299.61987305 573.19335938 C-305.1417884 564.35510821 -309.98580818 555.29432478 -314.52905273 545.91845703 C-316.15680576 542.59769585 -317.87903521 539.32403251 -319.59350586 536.04736328 C-320.40600586 534.12939453 -320.40600586 534.12939453 -320.40600586 531.12939453 C-321.06600586 531.12939453 -321.72600586 531.12939453 -322.40600586 531.12939453 C-322.73600586 528.81939453 -323.06600586 526.50939453 -323.40600586 524.12939453 C-324.06600586 524.12939453 -324.72600586 524.12939453 -325.40600586 524.12939453 C-325.91260742 522.5921875 -325.91260742 522.5921875 -326.42944336 521.02392578 C-326.87988326 519.6632219 -327.33040862 518.30254631 -327.78100586 516.94189453 C-328.00272461 516.26835938 -328.22444336 515.59482422 -328.45288086 514.90087891 C-329.41436628 512.00228315 -330.40077982 509.14210651 -331.56225586 506.31689453 C-332.53397452 503.79762393 -332.55899289 501.80666762 -332.40600586 499.12939453 C-333.06600586 499.12939453 -333.72600586 499.12939453 -334.40600586 499.12939453 C-344.64462629 465.96937932 -344.64462629 465.96937932 -344.40600586 452.12939453 C-345.06600586 452.12939453 -345.72600586 452.12939453 -346.40600586 452.12939453 C-349.21332441 442.21020231 -349.58472912 432.39605277 -349.40600586 422.12939453 C-350.06600586 422.12939453 -350.72600586 422.12939453 -351.40600586 422.12939453 C-351.4665918 421.22576172 -351.52717773 420.32212891 -351.58959961 419.39111328 C-351.67338867 418.21162109 -351.75717773 417.03212891 -351.84350586 415.81689453 C-351.9247168 414.64513672 -352.00592773 413.47337891 -352.08959961 412.26611328 C-352.29274296 409.10348495 -352.29274296 409.10348495 -353.40600586 406.12939453 C-353.49946473 404.24824552 -353.53393228 402.36393736 -353.53540039 400.48046875 C-353.53855255 399.32271942 -353.54170471 398.16497009 -353.54495239 396.97213745 C-353.54292816 395.72207916 -353.54090393 394.47202087 -353.53881836 393.18408203 C-353.53977509 391.90332794 -353.54073181 390.62257385 -353.54171753 389.30300903 C-353.54319098 386.59457186 -353.54105058 383.88616771 -353.53637695 381.17773438 C-353.53066845 377.69942041 -353.53396795 374.22118341 -353.53994942 370.74287224 C-353.5444214 367.43160258 -353.54129559 364.12035388 -353.53881836 360.80908203 C-353.54185471 358.92792191 -353.54185471 358.92792191 -353.54495239 357.00875854 C-353.54180023 355.85731354 -353.53864807 354.70586853 -353.53540039 353.51953125 C-353.5346048 352.50043671 -353.5338092 351.48134216 -353.5329895 350.43136597 C-353.40600586 348.12939453 -353.40600586 348.12939453 -352.40600586 347.12939453 C-352.18958831 345.21770618 -352.03459134 343.29899206 -351.90600586 341.37939453 C-351.82350586 340.21408203 -351.74100586 339.04876953 -351.65600586 337.84814453 C-351.57350586 336.62095703 -351.49100586 335.39376953 -351.40600586 334.12939453 C-351.24352173 331.71244305 -351.07707552 329.29575351 -350.90600586 326.87939453 C-350.83381836 325.80173828 -350.76163086 324.72408203 -350.68725586 323.61376953 C-350.40600586 321.12939453 -350.40600586 321.12939453 -349.40600586 320.12939453 C-348.95553643 316.66948651 -348.58806858 313.21041853 -348.24389648 309.73876953 C-347.73561594 304.99481775 -346.84840887 300.67990445 -345.40600586 296.12939453 C-344.74600586 296.12939453 -344.08600586 296.12939453 -343.40600586 296.12939453 C-343.44725586 294.99501953 -343.48850586 293.86064453 -343.53100586 292.69189453 C-343.49885681 283.49726767 -340.16716687 274.80158469 -337.40600586 266.12939453 C-336.74600586 266.12939453 -336.08600586 266.12939453 -335.40600586 266.12939453 C-335.31512695 265.11619141 -335.31512695 265.11619141 -335.22241211 264.08251953 C-335.13862305 263.19048828 -335.05483398 262.29845703 -334.96850586 261.37939453 C-334.88729492 260.49767578 -334.80608398 259.61595703 -334.72241211 258.70751953 C-334.44362121 256.43589001 -334.01810009 254.3308763 -333.40600586 252.12939453 C-332.74600586 252.12939453 -332.08600586 252.12939453 -331.40600586 252.12939453 C-331.27323242 251.52611328 -331.14045898 250.92283203 -331.00366211 250.30126953 C-330.73875977 249.10244141 -330.73875977 249.10244141 -330.46850586 247.87939453 C-330.2074707 246.69603516 -330.2074707 246.69603516 -329.94116211 245.48876953 C-329.45844986 243.3606075 -328.94437408 241.24406611 -328.40600586 239.12939453 C-327.74600586 239.12939453 -327.08600586 239.12939453 -326.40600586 239.12939453 C-326.07600586 236.81939453 -325.74600586 234.50939453 -325.40600586 232.12939453 C-324.74600586 232.12939453 -324.08600586 232.12939453 -323.40600586 232.12939453 C-323.40600586 231.13939453 -323.40600586 230.14939453 -323.40600586 229.12939453 C-322.74600586 229.12939453 -322.08600586 229.12939453 -321.40600586 229.12939453 C-320.91100586 225.16939453 -320.91100586 225.16939453 -320.40600586 221.12939453 C-319.74600586 221.12939453 -319.08600586 221.12939453 -318.40600586 221.12939453 C-318.30288086 220.09814453 -318.19975586 219.06689453 -318.09350586 218.00439453 C-317.41472789 214.17855508 -316.29441791 211.49569428 -314.40600586 208.12939453 C-313.74600586 208.12939453 -313.08600586 208.12939453 -312.40600586 208.12939453 C-311.91100586 205.15939453 -311.91100586 205.15939453 -311.40600586 202.12939453 C-310.74600586 202.12939453 -310.08600586 202.12939453 -309.40600586 202.12939453 C-309.40600586 201.13939453 -309.40600586 200.14939453 -309.40600586 199.12939453 C-308.74600586 199.12939453 -308.08600586 199.12939453 -307.40600586 199.12939453 C-307.07600586 197.47939453 -306.74600586 195.82939453 -306.40600586 194.12939453 C-305.74600586 194.12939453 -305.08600586 194.12939453 -304.40600586 194.12939453 C-303.91100586 191.15939453 -303.91100586 191.15939453 -303.40600586 188.12939453 C-302.74600586 188.12939453 -302.08600586 188.12939453 -301.40600586 188.12939453 C-300.91100586 185.15939453 -300.91100586 185.15939453 -300.40600586 182.12939453 C-299.74600586 182.12939453 -299.08600586 182.12939453 -298.40600586 182.12939453 C-298.40600586 181.46939453 -298.40600586 180.80939453 -298.40600586 180.12939453 C-297.74600586 180.12939453 -297.08600586 180.12939453 -296.40600586 180.12939453 C-296.26163086 179.34564453 -296.11725586 178.56189453 -295.96850586 177.75439453 C-295.40600586 175.12939453 -295.40600586 175.12939453 -294.40600586 173.12939453 C-293.41600586 173.12939453 -292.42600586 173.12939453 -291.40600586 173.12939453 C-291.07600586 171.47939453 -290.74600586 169.82939453 -290.40600586 168.12939453 C-289.74600586 168.12939453 -289.08600586 168.12939453 -288.40600586 168.12939453 C-288.03475586 166.79908203 -288.03475586 166.79908203 -287.65600586 165.44189453 C-286.34870902 161.97755791 -284.78067347 159.93581989 -282.40600586 157.12939453 C-281.38734357 155.47406831 -280.38789773 153.80679315 -279.40600586 152.12939453 C-278.13550946 150.08890031 -276.8116939 148.07921988 -275.40600586 146.12939453 C-274.74600586 146.12939453 -274.08600586 146.12939453 -273.40600586 146.12939453 C-273.14819336 145.56736328 -272.89038086 145.00533203 -272.62475586 144.42626953 C-271.26430809 141.86234874 -269.67811624 139.67713088 -267.90600586 137.37939453 C-267.29756836 136.58017578 -266.68913086 135.78095703 -266.06225586 134.95751953 C-265.51569336 134.35423828 -264.96913086 133.75095703 -264.40600586 133.12939453 C-263.74600586 133.12939453 -263.08600586 133.12939453 -262.40600586 133.12939453 C-262.07600586 131.80939453 -261.74600586 130.48939453 -261.40600586 129.12939453 C-260.74600586 129.12939453 -260.08600586 129.12939453 -259.40600586 129.12939453 C-259.13788086 128.49001953 -258.86975586 127.85064453 -258.59350586 127.19189453 C-257.40600586 125.12939453 -257.40600586 125.12939453 -254.40600586 124.12939453 C-253.71980555 122.80600821 -253.05814125 121.46989506 -252.40600586 120.12939453 C-250.84556481 117.98771537 -249.19651257 116.09895191 -247.40600586 114.12939453 C-246.74600586 114.12939453 -246.08600586 114.12939453 -245.40600586 114.12939453 C-244.91100586 112.64439453 -244.91100586 112.64439453 -244.40600586 111.12939453 C-243.74600586 111.12939453 -243.08600586 111.12939453 -242.40600586 111.12939453 C-242.40600586 110.46939453 -242.40600586 109.80939453 -242.40600586 109.12939453 C-239.02153611 105.51066276 -235.36239307 102.17245233 -231.71850586 98.81689453 C-230.76588867 97.93388672 -229.81327148 97.05087891 -228.83178711 96.14111328 C-226.40600586 94.12939453 -226.40600586 94.12939453 -224.40600586 94.12939453 C-224.40600586 93.46939453 -224.40600586 92.80939453 -224.40600586 92.12939453 C-223.08600586 91.79939453 -221.76600586 91.46939453 -220.40600586 91.12939453 C-220.40600586 90.46939453 -220.40600586 89.80939453 -220.40600586 89.12939453 C-218.27558526 87.2981903 -216.13866684 85.57785708 -213.90600586 83.87939453 C-213.26542236 83.38648926 -212.62483887 82.89358398 -211.96484375 82.38574219 C-210.690821 81.40681566 -209.41489425 80.43036151 -208.13696289 79.45654297 C-206.70199977 78.35633711 -205.28408709 77.23393394 -203.87084961 76.10595703 C-200.28121742 73.27021677 -197.96327118 71.93361782 -193.40600586 71.12939453 C-192.70663054 69.81292334 -192.03871453 68.47917302 -191.40600586 67.12939453 C-189.28100586 66.37939453 -189.28100586 66.37939453 -187.40600586 66.12939453 C-187.40600586 65.46939453 -187.40600586 64.80939453 -187.40600586 64.12939453 C-186.62225586 64.04689453 -185.83850586 63.96439453 -185.03100586 63.87939453 C-183.73163086 63.50814453 -183.73163086 63.50814453 -182.40600586 63.12939453 C-182.11725586 62.53126953 -181.82850586 61.93314453 -181.53100586 61.31689453 C-179.73131121 57.81748827 -176.88454448 56.86866384 -173.40600586 55.12939453 C-172.74600586 55.12939453 -172.08600586 55.12939453 -171.40600586 55.12939453 C-171.40600586 54.46939453 -171.40600586 53.80939453 -171.40600586 53.12939453 C-168.43600586 52.63439453 -168.43600586 52.63439453 -165.40600586 52.12939453 C-165.40600586 51.46939453 -165.40600586 50.80939453 -165.40600586 50.12939453 C-157.97743443 46.84368025 -157.97743443 46.84368025 -154.40600586 46.12939453 C-154.40600586 45.46939453 -154.40600586 44.80939453 -154.40600586 44.12939453 C-153.41600586 44.12939453 -152.42600586 44.12939453 -151.40600586 44.12939453 C-151.40600586 43.46939453 -151.40600586 42.80939453 -151.40600586 42.12939453 C-148.43600586 41.63439453 -148.43600586 41.63439453 -145.40600586 41.12939453 C-145.40600586 40.46939453 -145.40600586 39.80939453 -145.40600586 39.12939453 C-142.10600586 38.46939453 -138.80600586 37.80939453 -135.40600586 37.12939453 C-135.40600586 36.46939453 -135.40600586 35.80939453 -135.40600586 35.12939453 C-134.41600586 35.12939453 -133.42600586 35.12939453 -132.40600586 35.12939453 C-132.40600586 34.46939453 -132.40600586 33.80939453 -132.40600586 33.12939453 C-130.63741895 32.45679102 -128.8660457 31.79151058 -127.09350586 31.12939453 C-126.10737305 30.75814453 -125.12124023 30.38689453 -124.10522461 30.00439453 C-121.40600586 29.12939453 -121.40600586 29.12939453 -118.40600586 29.12939453 C-118.40600586 28.46939453 -118.40600586 27.80939453 -118.40600586 27.12939453 C-117.08600586 27.12939453 -115.76600586 27.12939453 -114.40600586 27.12939453 C-114.40600586 26.46939453 -114.40600586 25.80939453 -114.40600586 25.12939453 C-111.76600586 24.79939453 -109.12600586 24.46939453 -106.40600586 24.12939453 C-106.40600586 23.46939453 -106.40600586 22.80939453 -106.40600586 22.12939453 C-103.43600586 21.79939453 -100.46600586 21.46939453 -97.40600586 21.12939453 C-97.40600586 20.46939453 -97.40600586 19.80939453 -97.40600586 19.12939453 C-87.03242955 15.68520319 -87.03242955 15.68520319 -81.40600586 16.12939453 C-81.40600586 15.46939453 -81.40600586 14.80939453 -81.40600586 14.12939453 C-75.28620053 12.72484905 -69.68861291 11.89670538 -63.40600586 12.12939453 C-63.40600586 11.46939453 -63.40600586 10.80939453 -63.40600586 10.12939453 C-62.55135742 9.92443359 -61.69670898 9.71947266 -60.81616211 9.50830078 C-59.15907227 9.10417969 -59.15907227 9.10417969 -57.46850586 8.69189453 C-56.36635742 8.42505859 -55.26420898 8.15822266 -54.12866211 7.88330078 C-51.51179332 7.39943728 -51.51179332 7.39943728 -50.40600586 6.12939453 C-47.20064224 5.65008782 -43.99542408 5.25732621 -40.77709961 4.87939453 C-37.29491311 4.72576748 -37.29491311 4.72576748 -34.40600586 3.12939453 C-32.3481853 2.91246469 -30.28374373 2.7577556 -28.21850586 2.62939453 C-26.33518555 2.50564453 -26.33518555 2.50564453 -24.41381836 2.37939453 C-22.40574496 2.25333598 -20.39757625 2.12887202 -18.3894043 2.00439453 C-16.45720204 1.88309885 -14.52534563 1.75633267 -12.59350586 1.62939453 C-11.43206055 1.55720703 -10.27061523 1.48501953 -9.07397461 1.41064453 C-5.65763875 1.05050371 -3.75655493 0.00292404 0 0 Z M-239.98339844 130.50756836 C-240.80614258 131.88347893 -240.80614258 131.88347893 -241.64550781 133.28718567 C-246.14439903 140.55035107 -252.16572418 146.89563393 -257.78100586 153.31689453 C-263.4016765 159.87964363 -268.27641321 166.86799383 -273.03979492 174.06884766 C-274.37507462 176.08274341 -275.72916189 178.082899 -277.08569336 180.08251953 C-302.28434984 217.67013435 -318.83649509 260.04947743 -328.40600586 304.12939453 C-328.60323242 305.03592773 -328.80045898 305.94246094 -329.00366211 306.87646484 C-331.48489219 318.58422708 -332.98544336 330.35400042 -334.15600586 342.25439453 C-334.34779419 344.19306396 -334.34779419 344.19306396 -334.54345703 346.17089844 C-335.24820576 353.8472537 -335.56713897 361.42186079 -335.40600586 369.12939453 C-326.85808849 370.29322427 -318.3745557 370.17350285 -309.77319336 370.00830078 C-308.28533737 369.98394589 -306.79747288 369.96010522 -305.30960083 369.93675232 C-301.42653594 369.87444461 -297.54362486 369.80523223 -293.66070557 369.73449707 C-289.68525086 369.66332655 -285.7096886 369.59880296 -281.73413086 369.53369141 C-273.95796741 369.40536814 -266.18197428 369.26912243 -258.40600586 369.12939453 C-258.40600586 374.40939453 -258.40600586 379.68939453 -258.40600586 385.12939453 C-283.81600586 385.12939453 -309.22600586 385.12939453 -335.40600586 385.12939453 C-335.40600586 394.159065 -335.20919725 402.54833741 -334.28100586 411.44189453 C-334.15266357 412.67447998 -334.02432129 413.90706543 -333.89208984 415.17700195 C-332.23556855 429.97978032 -329.44377465 444.55497906 -326.40600586 459.12939453 C-326.23488281 459.96212891 -326.06375977 460.79486328 -325.88745117 461.65283203 C-323.19431758 474.44670288 -318.6676647 486.79105357 -314.4309082 499.13574219 C-313.5935589 501.58156809 -312.77032411 504.03106303 -311.95678711 506.48486328 C-309.36421403 514.10754494 -306.06882777 521.16693761 -302.34741211 528.30224609 C-301.38563219 530.16893721 -300.45435669 532.04810923 -299.53100586 533.93408203 C-283.09204442 567.4812756 -262.37325381 597.70396622 -236.56225586 624.76220703 C-233.80825576 627.65390713 -231.22551131 630.66171069 -228.68530273 633.7421875 C-226.97109522 635.60099038 -225.85738866 636.10260587 -223.33267784 636.25244236 C-222.47172319 636.25152057 -221.61076855 636.25059877 -220.72372437 636.24964905 C-219.73651901 636.25102371 -218.74931366 636.25239838 -217.73219299 636.2538147 C-216.64534714 636.25021942 -215.55850128 636.24662415 -214.4387207 636.24291992 C-212.72653099 636.24313896 -212.72653099 636.24313896 -210.97975159 636.24336243 C-207.19212977 636.24266359 -203.40455663 636.23487251 -199.61694336 636.22705078 C-196.99663317 636.2251865 -194.37632263 636.22376264 -191.75601196 636.22276306 C-185.55473425 636.21965205 -179.35347412 636.21144175 -173.15220416 636.20141357 C-166.09304422 636.19024531 -159.03388346 636.18474018 -151.9747169 636.17971814 C-137.45180414 636.16925896 -122.92890525 636.15166395 -108.40600586 636.12939453 C-108.97066686 632.10084672 -109.56171501 628.10962281 -110.40600586 624.12939453 C-111.06600586 624.12939453 -111.72600586 624.12939453 -112.40600586 624.12939453 C-112.62256836 622.58251953 -112.62256836 622.58251953 -112.84350586 621.00439453 C-113.32261043 617.7038964 -113.84475668 614.41671113 -114.40600586 611.12939453 C-111.26026909 609.03223668 -109.39144335 608.60934894 -105.71850586 608.00439453 C-104.72463867 607.83681641 -103.73077148 607.66923828 -102.70678711 607.49658203 C-101.9475293 607.37541016 -101.18827148 607.25423828 -100.40600586 607.12939453 C-100.25905273 607.81001953 -100.11209961 608.49064453 -99.96069336 609.19189453 C-98.48230904 615.58123367 -96.58850434 621.68747239 -94.28100586 627.81689453 C-94.01529785 628.52394531 -93.74958984 629.23099609 -93.47583008 629.95947266 C-92.36674458 633.29660414 -92.36674458 633.29660414 -90.40600586 636.12939453 C-87.61629694 636.22951348 -84.85127233 636.26378743 -82.06105042 636.25637817 C-81.17547626 636.25793816 -80.2899021 636.25949816 -79.37749237 636.26110542 C-76.38641067 636.26511941 -73.39537902 636.26192422 -70.40429688 636.25878906 C-68.26949026 636.26014294 -66.13468387 636.26192279 -63.99987793 636.26409912 C-58.18386685 636.26867539 -52.36787341 636.26688303 -46.551862 636.26372004 C-40.47890502 636.2611971 -34.40594959 636.26353382 -28.33299255 636.2651062 C-18.13133471 636.26692823 -7.92968409 636.26452086 2.27197266 636.25976562 C14.08202171 636.2543244 25.89205349 636.25608452 37.70210212 636.26159203 C47.823515 636.26612395 57.94492266 636.26677328 68.06633621 636.26415336 C74.1194217 636.26259083 80.17249906 636.26239613 86.22558403 636.26568985 C91.91605058 636.26856965 97.60649479 636.26659084 103.29695892 636.26079559 C105.39083125 636.25946852 107.48470545 636.25986122 109.57857704 636.26205826 C112.4264288 636.26477185 115.27420798 636.261386 118.12205505 636.25637817 C118.95988303 636.2586089 119.79771101 636.26083962 120.66092771 636.26313794 C124.75935273 636.35184328 124.75935273 636.35184328 128.59399414 635.12939453 C129.47202864 632.35710077 129.47202864 632.35710077 130.15649414 629.12939453 C131.50086437 623.2225243 131.50086437 623.2225243 132.59399414 622.12939453 C132.63463246 620.46322338 132.63671514 618.79551358 132.59399414 617.12939453 C133.25399414 617.12939453 133.91399414 617.12939453 134.59399414 617.12939453 C135.25399414 614.81939453 135.91399414 612.50939453 136.59399414 610.12939453 C141.12942166 608.75502256 144.15476832 609.70549191 148.59399414 611.12939453 C149.25399414 611.12939453 149.91399414 611.12939453 150.59399414 611.12939453 C150.38194336 611.78012939 150.16989258 612.43086426 149.95141602 613.10131836 C148.99441413 616.04672829 148.04413272 618.99426383 147.09399414 621.94189453 C146.59319336 623.47813477 146.59319336 623.47813477 146.08227539 625.04541016 C145.76645508 626.02832031 145.45063477 627.01123047 145.12524414 628.02392578 C144.83198242 628.92989502 144.5387207 629.83586426 144.23657227 630.76928711 C143.46264237 633.20416283 143.46264237 633.20416283 143.59399414 636.12939453 C160.3537202 636.34011202 177.11301331 636.49857416 193.87374592 636.59570408 C201.65700509 636.64201253 209.43943882 636.70508718 217.22216797 636.80834961 C224.00969672 636.89836425 230.79662744 636.95619056 237.58473653 636.97619098 C241.17574254 636.98787394 244.76503855 637.01510831 248.35549355 637.08096504 C252.3749571 637.15408519 256.39149377 637.15528462 260.41162109 637.15112305 C262.17569305 637.19965927 262.17569305 637.19965927 263.97540283 637.24917603 C272.06889656 637.15888205 276.29100918 634.90603545 282.28497601 629.50778103 C285.10592914 626.60207979 287.60885381 623.57553493 289.99243164 620.30517578 C291.55672238 618.18002958 293.21305914 616.22280569 294.96899414 614.25439453 C297.87920105 610.96632476 300.72295863 607.62991139 303.53149414 604.25439453 C304.30364258 603.32884766 305.07579102 602.40330078 305.87133789 601.44970703 C307.79269414 599.34340412 307.79269414 599.34340412 307.59399414 597.12939453 C308.25399414 597.12939453 308.91399414 597.12939453 309.59399414 597.12939453 C310.60042165 595.46660126 311.59984821 593.79955969 312.59399414 592.12939453 C313.58399414 591.46939453 314.57399414 590.80939453 315.59399414 590.12939453 C315.59399414 588.80939453 315.59399414 587.48939453 315.59399414 586.12939453 C316.25399414 586.12939453 316.91399414 586.12939453 317.59399414 586.12939453 C320.78959455 582.06365892 320.78959455 582.06365892 321.59399414 577.12939453 C322.25399414 577.12939453 322.91399414 577.12939453 323.59399414 577.12939453 C325.11604516 574.9106519 325.11604516 574.9106519 326.59399414 572.19189453 C329.38264385 567.23506968 329.38264385 567.23506968 331.59399414 566.12939453 C333.28781602 562.53849216 334.81309869 559.03387178 335.59399414 555.12939453 C336.25399414 555.12939453 336.91399414 555.12939453 337.59399414 555.12939453 C337.92399414 553.14939453 338.25399414 551.16939453 338.59399414 549.12939453 C339.25399414 549.12939453 339.91399414 549.12939453 340.59399414 549.12939453 C340.92399414 547.47939453 341.25399414 545.82939453 341.59399414 544.12939453 C342.25399414 544.12939453 342.91399414 544.12939453 343.59399414 544.12939453 C343.59399414 543.13939453 343.59399414 542.14939453 343.59399414 541.12939453 C344.25399414 541.12939453 344.91399414 541.12939453 345.59399414 541.12939453 C345.78735352 540.57509766 345.98071289 540.02080078 346.17993164 539.44970703 C346.57051758 538.36302734 346.57051758 538.36302734 346.96899414 537.25439453 C347.22422852 536.53509766 347.47946289 535.81580078 347.74243164 535.07470703 C348.59399414 533.12939453 348.59399414 533.12939453 350.59399414 531.12939453 C350.99446858 528.80664276 351.33370454 526.47200096 351.59399414 524.12939453 C352.25399414 524.12939453 352.91399414 524.12939453 353.59399414 524.12939453 C353.98071289 522.94603516 354.36743164 521.76267578 354.76586914 520.54345703 C357.77117769 511.40279368 360.89297392 502.39690273 364.70336914 493.55517578 C365.76632132 491.0907148 365.76632132 491.0907148 365.59399414 488.12939453 C366.25399414 488.12939453 366.91399414 488.12939453 367.59399414 488.12939453 C367.92399414 484.49939453 368.25399414 480.86939453 368.59399414 477.12939453 C369.25399414 477.12939453 369.91399414 477.12939453 370.59399414 477.12939453 C371.76970865 473.45528668 371.66766161 469.9601027 371.59399414 466.12939453 C372.25399414 466.12939453 372.91399414 466.12939453 373.59399414 466.12939453 C373.92399414 461.50939453 374.25399414 456.88939453 374.59399414 452.12939453 C375.25399414 452.12939453 375.91399414 452.12939453 376.59399414 452.12939453 C376.72676758 450.91380859 376.85954102 449.69822266 376.99633789 448.44580078 C377.17449506 446.86113969 377.35289289 445.27650564 377.53149414 443.69189453 C377.61850586 442.88945312 377.70551758 442.08701172 377.79516602 441.26025391 C378.48071289 435.24267578 378.48071289 435.24267578 379.59399414 434.12939453 C379.80236833 432.30033218 379.96149073 430.46551319 380.09399414 428.62939453 C380.48288303 423.24050564 380.48288303 423.24050564 381.59399414 422.12939453 C381.80368165 419.7995333 381.96214803 417.46495417 382.09399414 415.12939453 C382.48288303 408.24050564 382.48288303 408.24050564 383.59399414 407.12939453 C383.88636673 404.18499581 384.11001518 401.26861906 384.28149414 398.31689453 C384.37140625 397.08616211 384.37140625 397.08616211 384.46313477 395.83056641 C384.51018555 395.03585937 384.55723633 394.24115234 384.60571289 393.42236328 C384.65171631 392.69557373 384.69771973 391.96878418 384.74511719 391.2199707 C384.6964832 388.69843626 384.6964832 388.69843626 382.59399414 385.12939453 C353.22399414 385.12939453 323.85399414 385.12939453 293.59399414 385.12939453 C294.59399414 371.12939453 294.59399414 371.12939453 295.59399414 370.12939453 C298.3015314 370.00425042 300.98481518 369.94332325 303.69384766 369.92407227 C304.54255432 369.91417267 305.39126099 369.90427307 306.26568604 369.89407349 C309.08472864 369.86236206 311.90378812 369.83766314 314.72290039 369.81298828 C316.67203726 369.79242707 318.62116958 369.77143083 320.57029724 369.75001526 C325.71101207 369.69470855 330.85176771 369.64533733 335.99255371 369.59716797 C341.23408661 369.54701556 346.47555994 369.4912969 351.71704102 369.43603516 C362.00930789 369.32834847 372.30162639 369.226927 382.59399414 369.12939453 C382.60501489 365.79997012 382.61159223 362.47055049 382.61743164 359.14111328 C382.62214478 357.74161438 382.62214478 357.74161438 382.62695312 356.31384277 C382.64058546 345.92372988 382.37085519 335.661407 380.06665039 325.48876953 C379.37510659 322.03676579 379.10816755 318.56990787 378.84008789 315.06298828 C378.79395013 313.12529278 378.79395013 313.12529278 377.59399414 312.12939453 C377.40947081 310.73814718 377.27129756 309.34062189 377.15649414 307.94189453 C376.76112213 304.06116619 375.89643709 300.81964955 374.59399414 297.12939453 C372.87710173 290.84292694 371.33035471 284.60936751 370.59399414 278.12939453 C369.93399414 278.12939453 369.27399414 278.12939453 368.59399414 278.12939453 C368.26399414 274.82939453 367.93399414 271.52939453 367.59399414 268.12939453 C366.93399414 268.12939453 366.27399414 268.12939453 365.59399414 268.12939453 C365.26399414 265.15939453 364.93399414 262.18939453 364.59399414 259.12939453 C363.93399414 259.12939453 363.27399414 259.12939453 362.59399414 259.12939453 C362.46637695 258.41009766 362.33875977 257.69080078 362.20727539 256.94970703 C361.60363098 254.17371173 360.77734632 251.66264536 359.78149414 249.00439453 C359.42571289 248.04791016 359.06993164 247.09142578 358.70336914 246.10595703 C358.33727539 245.12369141 357.97118164 244.14142578 357.59399414 243.12939453 C356.90555415 241.2130653 356.21802774 239.29640757 355.53149414 237.37939453 C354.02362799 233.22531268 352.38862025 229.16730328 350.59399414 225.12939453 C349.93399414 225.12939453 349.27399414 225.12939453 348.59399414 225.12939453 C348.49473633 224.62021484 348.39547852 224.11103516 348.29321289 223.58642578 C341.25848392 198.86662397 322.68464439 176.45977454 307.59399414 156.12939453 C306.87083008 155.15228516 306.14766602 154.17517578 305.40258789 153.16845703 C304.78512695 152.35119141 304.16766602 151.53392578 303.53149414 150.69189453 C302.7406543 149.64195312 302.7406543 149.64195312 301.93383789 148.57080078 C301.49168945 148.09513672 301.04954102 147.61947266 300.59399414 147.12939453 C299.93399414 147.12939453 299.27399414 147.12939453 298.59399414 147.12939453 C298.19760742 146.25734375 298.19760742 146.25734375 297.79321289 145.36767578 C294.22901907 138.71528797 287.94511063 133.36390074 282.59399414 128.12939453 C277.59399414 123.12939453 277.59399414 123.12939453 276.03231049 121.16107941 C273.27319244 117.92218418 271.04424909 115.51455051 266.85310364 114.401474 C263.5832812 114.14669191 260.39824187 114.13914457 257.11938477 114.22119141 C255.27420761 114.21943909 255.27420761 114.21943909 253.39175415 114.21765137 C250.03952292 114.22225059 246.69129928 114.26217835 243.33977699 114.31824303 C239.82987054 114.36847027 236.31990278 114.37296967 232.80969238 114.38244629 C226.17249701 114.40724875 219.5363638 114.47280996 212.89963484 114.55324221 C205.33988886 114.64285938 197.78009043 114.68669656 190.21994495 114.72680569 C174.67734755 114.81028407 159.13580815 114.95087209 143.59399414 115.12939453 C144.06427684 116.86765568 144.53558863 118.60563843 145.00732422 120.34350586 C145.26967361 121.31137527 145.53202301 122.27924469 145.80232239 123.27644348 C146.87750085 127.15106893 148.06319479 130.98532468 149.28149414 134.81689453 C149.50643555 135.53039062 149.73137695 136.24388672 149.96313477 136.97900391 C150.50486326 138.69639851 151.04913789 140.41298967 151.59399414 142.12939453 C149.84484444 142.46716137 148.09463269 142.79943124 146.34399414 143.12939453 C145.36946289 143.31501953 144.39493164 143.50064453 143.39086914 143.69189453 C140.59399414 144.12939453 140.59399414 144.12939453 136.59399414 144.12939453 C136.27946289 142.93443359 135.96493164 141.73947266 135.64086914 140.50830078 C133.47583144 132.41914892 131.35442643 124.65025912 127.59399414 117.12939453 C127.26399414 116.46939453 126.93399414 115.80939453 126.59399414 115.12939453 C54.65399414 115.12939453 -17.28600586 115.12939453 -91.40600586 115.12939453 C-97.47209578 128.9697339 -97.47209578 128.9697339 -100.40600586 144.12939453 C-105.02600586 142.80939453 -109.64600586 141.48939453 -114.40600586 140.12939453 C-113.55035364 134.99548123 -112.43942475 131.58509703 -110.34350586 126.98486328 C-109.4837346 124.36614332 -109.1257244 122.17570972 -108.84741211 119.45092773 C-108.72088257 118.2366082 -108.72088257 118.2366082 -108.59179688 116.99775696 C-108.49983032 116.07291756 -108.49983032 116.07291756 -108.40600586 115.12939453 C-122.90520334 114.63540241 -137.40326726 114.26689637 -151.90921307 114.04133892 C-158.64761592 113.9337409 -165.38069527 113.78698167 -172.11572266 113.54516602 C-210.58120123 110.17295419 -210.58120123 110.17295419 -239.98339844 130.50756836 Z " fill="#F79623" transform="translate(376.406005859375,22.87060546875)"/>
<path d="M0 0 C1.11901703 -0.00315216 2.23803406 -0.00630432 3.39096069 -0.009552 C5.20958115 -0.00651566 5.20958115 -0.00651566 7.06494141 -0.00341797 C8.31723541 -0.00437469 9.56952942 -0.00533142 10.85977173 -0.00631714 C13.51787742 -0.00699867 16.17589171 -0.00564778 18.83398438 -0.00097656 C21.53778282 0.00354835 24.2415142 0.00362537 26.9453125 -0.00097656 C30.86020879 -0.00721582 34.77504227 -0.00638619 38.68994141 -0.00341797 C39.88211273 -0.0054422 41.07428406 -0.00746643 42.30258179 -0.009552 C66.45901999 0.05663002 85.72248233 4.13748443 103.20800781 21.67138672 C109.41223236 28.11857658 113.54064125 34.60828825 116.54150391 43.12939453 C116.93595703 44.24507813 116.93595703 44.24507813 117.33837891 45.38330078 C121.47629619 60.11764137 118.34779819 76.78761342 111.54150391 90.12939453 C102.30772662 104.7514608 88.71597905 112.494069 72.13549805 116.31787109 C64.02676144 117.93411993 55.76639672 117.54233508 47.54150391 117.37939453 C41.60150391 117.29689453 35.66150391 117.21439453 29.54150391 117.12939453 C29.54150391 139.23939453 29.54150391 161.34939453 29.54150391 184.12939453 C19.64150391 184.12939453 9.74150391 184.12939453 -0.45849609 184.12939453 C-2.45849609 181.12939453 -2.45849609 181.12939453 -2.45849609 177.12939453 C-4.43849609 177.12939453 -6.41849609 177.12939453 -8.45849609 177.12939453 C-8.45849609 119.04939453 -8.45849609 60.96939453 -8.45849609 1.12939453 C-5.36626234 0.09864995 -3.24057827 0.0026188 0 0 Z " fill="#E1DFB5" transform="translate(250.45849609375,285.87060546875)"/>
<path d="M0 0 C1.02006889 0.00068733 1.02006889 0.00068733 2.06074524 0.00138855 C3.49209345 0.00440027 4.9234387 0.01225416 6.35473633 0.0246582 C8.55366513 0.0429928 10.75217437 0.04516722 12.95117188 0.04492188 C23.71574438 0.08293188 23.71574438 0.08293188 24.86328125 1.23046875 C24.90408908 3.23005239 24.90582481 5.23092129 24.86328125 7.23046875 C26.84328125 7.23046875 28.82328125 7.23046875 30.86328125 7.23046875 C30.86328125 43.20046875 30.86328125 79.17046875 30.86328125 116.23046875 C35.48328125 116.23046875 40.10328125 116.23046875 44.86328125 116.23046875 C46.51328125 116.56046875 48.16328125 116.89046875 49.86328125 117.23046875 C49.86328125 119.21046875 49.86328125 121.19046875 49.86328125 123.23046875 C52.17328125 123.23046875 54.48328125 123.23046875 56.86328125 123.23046875 C56.86328125 131.15046875 56.86328125 139.07046875 56.86328125 147.23046875 C48.28328125 147.23046875 39.70328125 147.23046875 30.86328125 147.23046875 C30.86328125 159.44046875 30.86328125 171.65046875 30.86328125 184.23046875 C26.44953125 184.25109375 22.03578125 184.27171875 17.48828125 184.29296875 C16.09689941 184.30207275 14.70551758 184.31117676 13.27197266 184.32055664 C11.63494385 184.32430298 11.63494385 184.32430298 9.96484375 184.328125 C8.84416504 184.33336182 7.72348633 184.33859863 6.56884766 184.34399414 C3.86328125 184.23046875 3.86328125 184.23046875 1.86328125 183.23046875 C1.86328125 181.25046875 1.86328125 179.27046875 1.86328125 177.23046875 C-0.11671875 177.23046875 -2.09671875 177.23046875 -4.13671875 177.23046875 C-4.13671875 167.33046875 -4.13671875 157.43046875 -4.13671875 147.23046875 C-6.28228271 147.23570557 -8.42784668 147.24094238 -10.63842773 147.24633789 C-17.71116614 147.262875 -24.78390539 147.27394046 -31.85665798 147.28228092 C-36.1467179 147.28750936 -40.43675808 147.29460628 -44.72680664 147.3059082 C-48.86351275 147.3167385 -53.00019983 147.32274589 -57.13691902 147.32534599 C-58.71864179 147.32719999 -60.30036346 147.33082011 -61.88207817 147.33619881 C-64.08994713 147.34341115 -66.29773648 147.34445961 -68.50561523 147.34399414 C-69.764702 147.34621475 -71.02378876 147.34843536 -72.32102966 147.35072327 C-75.13671875 147.23046875 -75.13671875 147.23046875 -76.13671875 146.23046875 C-76.17752658 144.23088511 -76.17926231 142.23001621 -76.13671875 140.23046875 C-78.44671875 139.90046875 -80.75671875 139.57046875 -83.13671875 139.23046875 C-83.13671875 131.97046875 -83.13671875 124.71046875 -83.13671875 117.23046875 C-82.47671875 117.23046875 -81.81671875 117.23046875 -81.13671875 117.23046875 C-81.05421875 116.34359375 -80.97171875 115.45671875 -80.88671875 114.54296875 C-80.02066106 110.71788063 -78.66031743 109.18668435 -76.13671875 106.23046875 C-75.18278848 104.58979218 -74.23198887 102.94715093 -73.30297852 101.29223633 C-71.1106795 97.41658944 -68.81015847 93.60628919 -66.51171875 89.79296875 C-66.021875 88.96603516 -65.53203125 88.13910156 -65.02734375 87.28710938 C-64.55554688 86.50658203 -64.08375 85.72605469 -63.59765625 84.921875 C-63.17274902 84.21232666 -62.7478418 83.50277832 -62.31005859 82.77172852 C-61.92285645 82.26311279 -61.5356543 81.75449707 -61.13671875 81.23046875 C-60.47671875 81.23046875 -59.81671875 81.23046875 -59.13671875 81.23046875 C-58.90984375 80.59109375 -58.68296875 79.95171875 -58.44921875 79.29296875 C-56.65106049 75.09726614 -54.39767854 71.19146319 -52.13671875 67.23046875 C-51.47671875 67.23046875 -50.81671875 67.23046875 -50.13671875 67.23046875 C-49.95109375 66.36421875 -49.95109375 66.36421875 -49.76171875 65.48046875 C-49.13023051 63.20711108 -48.24813684 61.30511585 -47.13671875 59.23046875 C-46.47671875 59.23046875 -45.81671875 59.23046875 -45.13671875 59.23046875 C-44.80671875 57.58046875 -44.47671875 55.93046875 -44.13671875 54.23046875 C-43.47671875 54.23046875 -42.81671875 54.23046875 -42.13671875 54.23046875 C-42.06324219 53.54597656 -41.98976563 52.86148438 -41.9140625 52.15625 C-40.90972121 48.37609106 -38.91739516 45.57412404 -36.69921875 42.41796875 C-35.79225725 41.09382485 -34.88737862 39.76825239 -33.984375 38.44140625 C-33.51660645 37.75530273 -33.04883789 37.06919922 -32.56689453 36.36230469 C-30.17983313 32.8041244 -27.90407536 29.17820353 -25.63671875 25.54296875 C-25.21592041 24.87225342 -24.79512207 24.20153809 -24.36157227 23.51049805 C-22.47438147 20.47995296 -20.64542928 17.46927669 -19.13671875 14.23046875 C-18.47671875 14.23046875 -17.81671875 14.23046875 -17.13671875 14.23046875 C-16.88921875 13.54984375 -16.64171875 12.86921875 -16.38671875 12.16796875 C-12.59750466 3.26331564 -12.59750466 3.26331564 -9.44995117 1.0378418 C-6.23984732 -0.08256068 -3.39659349 -0.01097689 0 0 Z " fill="#E1E0B6" transform="translate(587.13671875,285.76953125)"/>
<path d="M0 0 C1.13695312 0.37382813 2.27390625 0.74765625 3.4453125 1.1328125 C33.62090567 11.90471455 56.57798063 36.64143313 72 64 C72.6875 66.8125 72.6875 66.8125 73 69 C69.9248751 70.53756245 66.69379338 70.15385617 63.318573 70.15821838 C62.11544533 70.16562535 62.11544533 70.16562535 60.88801205 70.17318195 C58.18559744 70.18860722 55.48320667 70.19693114 52.78076172 70.20532227 C50.84945463 70.21489684 48.91814966 70.22490667 46.98684692 70.23532104 C41.73094812 70.26242175 36.47504028 70.28340329 31.21911001 70.30332303 C25.73110898 70.32515079 20.24313594 70.35255515 14.75515747 70.37937927 C4.35711137 70.42934967 -6.04095023 70.47427234 -16.43902671 70.51740164 C-28.27441657 70.56673692 -40.10977835 70.62166877 -51.94514108 70.67708123 C-76.29673454 70.79096799 -100.64835492 70.89779241 -125 71 C-125 70.34 -125 69.68 -125 69 C-125.66 69 -126.32 69 -127 69 C-126.33247233 64.88186773 -124.18826327 61.5730334 -122.0625 58.0625 C-121.66281006 57.4015332 -121.26312012 56.74056641 -120.85131836 56.05957031 C-111.59663008 41.04652911 -100.0703953 27.67479412 -86 17 C-85.21109375 16.39542969 -84.4221875 15.79085937 -83.609375 15.16796875 C-72.30111535 6.87399685 -60.63440276 1.24399218 -47 -2 C-45.77152344 -2.35578125 -44.54304688 -2.7115625 -43.27734375 -3.078125 C-29.28154908 -6.55324286 -13.48450193 -4.51450502 0 0 Z " fill="#FEFDFC" transform="translate(421,53)"/>
<path d="M0 0 C66 0 132 0 200 0 C200 7 200 7 198.0625 9.25 C197.381875 9.8275 196.70125 10.405 196 11 C195.67 11.99 195.34 12.98 195 14 C194.34 14.33 193.68 14.66 193 15 C192.814375 15.8971875 192.814375 15.8971875 192.625 16.8125 C191.78376343 19.756828 190.2010334 20.85845399 188 23 C184.14432594 27.76698578 184.14432594 27.76698578 181 33 C180.34 33 179.68 33 179 33 C178.7525 33.556875 178.505 34.11375 178.25 34.6875 C175.40905716 39.94324425 171.69857139 43.16416236 166.90234375 46.5703125 C165.08863533 47.933387 163.57748597 49.37523243 162 51 C152.8 59 152.8 59 148 59 C147.9278125 59.61617187 147.855625 60.23234375 147.78125 60.8671875 C147 63 147 63 145.03125 64.1953125 C139.40657846 66.26116408 133.89078927 67.89837602 128 69 C126.989375 69.20625 125.97875 69.4125 124.9375 69.625 C124.298125 69.74875 123.65875 69.8725 123 70 C123 70.66 123 71.32 123 72 C115.66246325 73.15566204 108.41687289 73.14827471 101 73.125 C99.15148437 73.13080078 99.15148437 73.13080078 97.265625 73.13671875 C80.90180711 73.11916101 80.90180711 73.11916101 74.1875 70.25 C73.34445312 69.89164063 72.50140625 69.53328125 71.6328125 69.1640625 C70.76398438 68.77992188 69.89515625 68.39578125 69 68 C68.11054688 67.61585938 67.22109375 67.23171875 66.3046875 66.8359375 C57.08808967 62.76592991 47.89982864 58.31986291 40 52 C40 51.34 40 50.68 40 50 C39.41476562 49.73058594 38.82953125 49.46117187 38.2265625 49.18359375 C22.03067108 40.57419884 7.32885315 18.48991958 0 2 C0 1.34 0 0.68 0 0 Z " fill="#FEFEFE" transform="translate(294,675)"/>
<path d="M0 0 C4.12498538 -0.02892385 8.24994485 -0.04677267 12.375 -0.0625 C14.1384375 -0.07506836 14.1384375 -0.07506836 15.9375 -0.08789062 C17.61972656 -0.09272461 17.61972656 -0.09272461 19.3359375 -0.09765625 C20.89127197 -0.10551147 20.89127197 -0.10551147 22.47802734 -0.11352539 C25 0 25 0 27 1 C27.625 4.0625 27.625 4.0625 28 7 C28.78455566 7.08282227 29.56911133 7.16564453 30.37744141 7.25097656 C33 8 33 8 34.16552734 9.67871094 C34.4280127 10.43958008 34.69049805 11.20044922 34.9609375 11.984375 C35.44385254 13.34852539 35.44385254 13.34852539 35.93652344 14.74023438 C36.2874707 15.81595703 36.63841797 16.89167969 37 18 C37.42448035 19.26898875 37.84930472 20.53786245 38.27441406 21.80664062 C39.75790547 26.27717008 41.1913956 30.76327929 42.625 35.25 C43.68538269 38.55276636 44.74848848 41.85465107 45.8125 45.15625 C46.07866119 45.98284119 46.34482239 46.80943237 46.61904907 47.66107178 C48.35721373 53.04636272 50.13083819 58.41856846 51.9375 63.78125 C52.16722504 64.46403015 52.39695007 65.1468103 52.63363647 65.85028076 C53.70868686 69.04201292 54.78940195 72.23160476 55.87744141 75.41894531 C57.95679813 81.57747724 59.73790482 87.6216695 61 94 C61.66 94 62.32 94 63 94 C63 93.34 63 92.68 63 92 C63.99 92 64.98 92 66 92 C66.02578125 91.27296875 66.0515625 90.5459375 66.078125 89.796875 C66.62438488 80.11317718 69.38753755 71.92586013 73 63 C73.66 63 74.32 63 75 63 C75.01417969 62.44054687 75.02835937 61.88109375 75.04296875 61.3046875 C75.47776581 53.99539644 77.68061706 47.82897789 80.25878906 41.02148438 C81.6242979 37.29736938 82.83072193 33.51997557 84.0625 29.75 C85.90757915 24.14510377 87.85768723 18.63459154 90.125 13.18359375 C91.3582085 10.10607789 92.37762006 6.96945679 93.38671875 3.8125 C94 2 94 2 95 0 C104.57 0 114.14 0 124 0 C125 4 125 4 124 7 C126.31 7 128.62 7 131 7 C130.42112482 13.27545966 128.45467855 18.66182834 126.1953125 24.51953125 C125.6085952 26.06650444 125.6085952 26.06650444 125.01002502 27.64472961 C123.72175957 31.03659542 122.4233909 34.42449875 121.125 37.8125 C120.22433434 40.17861423 119.32435992 42.54499169 118.42504883 44.91162109 C116.55927755 49.81808072 114.68940252 54.72294532 112.81591797 59.62646484 C108.8309415 70.05696435 104.86673327 80.49534666 100.90106201 90.93319702 C99.72161921 94.03526268 98.54008117 97.13652198 97.35791016 100.23754883 C92.82710415 112.13063804 88.3786001 124.04995005 84 136 C72.45 136 60.9 136 49 136 C48.01 134.02 47.02 132.04 46 130 C45.33742188 129.8453125 44.67484375 129.690625 43.9921875 129.53125 C43.33476562 129.3559375 42.67734375 129.180625 42 129 C40.5078125 126.21875 40.5078125 126.21875 39.125 122.5 C38.87234375 121.83218506 38.6196875 121.16437012 38.359375 120.47631836 C37.55278783 118.32433781 36.77274066 116.16434916 36 114 C35.74959961 113.30148926 35.49919922 112.60297852 35.24121094 111.88330078 C33.97537953 108.33748751 32.72815167 104.78543164 31.48828125 101.23046875 C28.12957188 91.63446805 24.4638275 82.15796932 20.72827148 72.70336914 C17.24758915 63.88539757 13.89352515 55.05225851 10.81811523 46.0847168 C8.99394219 40.78522932 7.09903793 35.51491377 5.15625 30.2578125 C4.90700775 29.58273148 4.6577655 28.90765045 4.40097046 28.21211243 C3.1534221 24.83602592 1.90097036 21.46184051 0.64306641 18.08959961 C-0.04263428 16.23733765 -0.04263428 16.23733765 -0.7421875 14.34765625 C-1.1532373 13.24429932 -1.56428711 12.14094238 -1.98779297 11.00415039 C-2.8878618 8.33281731 -3.52659006 5.77443987 -4 3 C-2.68 2.67 -1.36 2.34 0 2 C0 1.34 0 0.68 0 0 Z " fill="#E1DFB5" transform="translate(375,334)"/>
<path d="M0 0 C1.24910156 0.00193359 2.49820313 0.00386719 3.78515625 0.00585938 C5.09097656 0.01810547 6.39679688 0.03035156 7.7421875 0.04296875 C9.05574219 0.04361328 10.36929688 0.04425781 11.72265625 0.04492188 C21.47703328 0.09031453 21.47703328 0.09031453 22.6171875 1.23046875 C22.65799533 3.23005239 22.65973106 5.23092129 22.6171875 7.23046875 C24.5971875 7.56046875 26.5771875 7.89046875 28.6171875 8.23046875 C28.6171875 66.31046875 28.6171875 124.39046875 28.6171875 184.23046875 C18.7171875 184.23046875 8.8171875 184.23046875 -1.3828125 184.23046875 C-1.7128125 181.92046875 -2.0428125 179.61046875 -2.3828125 177.23046875 C-3.836875 177.26140625 -3.836875 177.26140625 -5.3203125 177.29296875 C-8.3828125 177.23046875 -8.3828125 177.23046875 -9.3828125 176.23046875 C-9.48645654 173.99487725 -9.51805185 171.75594628 -9.52325439 169.51795959 C-9.52622552 168.80797819 -9.52919664 168.09799679 -9.5322578 167.36650079 C-9.54098127 164.96966397 -9.54245609 162.57287687 -9.54394531 160.17602539 C-9.54857087 158.46485791 -9.55359516 156.75369147 -9.55899048 155.04252625 C-9.57214075 150.3814432 -9.57856439 145.72037457 -9.58300114 141.05927587 C-9.58592728 138.1507817 -9.59003117 135.24229153 -9.59450531 132.33379936 C-9.60818638 123.24407279 -9.61785038 114.15435528 -9.6217072 105.06461912 C-9.62619138 94.55252828 -9.64375339 84.04056724 -9.6727078 73.52851588 C-9.69428269 65.41557771 -9.70440921 57.30267617 -9.70574832 49.1897096 C-9.70679925 44.33824047 -9.71276801 39.48689325 -9.73056793 34.63545418 C-9.74697664 30.07431821 -9.74923944 25.51339675 -9.74042892 20.9522419 C-9.7396547 19.27440316 -9.7440516 17.59655322 -9.75388718 15.91874313 C-9.76649088 13.63555595 -9.76079417 11.35314191 -9.75030518 9.06996155 C-9.75177174 7.78996812 -9.7532383 6.50997469 -9.7547493 5.19119358 C-9.63201015 4.21415439 -9.50927101 3.23711519 -9.3828125 2.23046875 C-5.81139373 -0.1504771 -4.23555134 -0.01512062 0 0 Z " fill="#E1DDB3" transform="translate(176.3828125,285.76953125)"/>
<path d="M0 0 C38.94 0 77.88 0 118 0 C117.34 1.98 116.68 3.96 116 6 C115.01 6 114.02 6 113 6 C113 6.66 113 7.32 113 8 C111.35 8.33 109.7 8.66 108 9 C108 9.66 108 10.32 108 11 C102.58823529 15 102.58823529 15 100 15 C100 15.66 100 16.32 100 17 C98.02 17.495 98.02 17.495 96 18 C96 18.66 96 19.32 96 20 C91.61538462 23 91.61538462 23 89 23 C89 23.66 89 24.32 89 25 C85.70450534 26.72264494 82.66881155 28.29445932 79 29 C79 29.66 79 30.32 79 31 C78.34 31 77.68 31 77 31 C77 31.66 77 32.32 77 33 C69.57142857 36.28571429 69.57142857 36.28571429 66 37 C66 37.66 66 38.32 66 39 C64.73308493 39.67408308 63.46129251 40.33900497 62.1875 41 C61.47980469 41.37125 60.77210938 41.7425 60.04296875 42.125 C58 43 58 43 55 43 C55 43.66 55 44.32 55 45 C49.375 48 49.375 48 46 48 C46 48.66 46 49.32 46 50 C43.36 50.33 40.72 50.66 38 51 C38 51.66 38 52.32 38 53 C37.01 53 36.02 53 35 53 C35 53.66 35 54.32 35 55 C33.25307205 55.67467562 31.50231475 56.33944156 29.75 57 C28.77546875 57.37125 27.8009375 57.7425 26.796875 58.125 C24 59 24 59 20 59 C20 59.66 20 60.32 20 61 C18.83082031 61.33773437 17.66164063 61.67546875 16.45703125 62.0234375 C14.90881606 62.47382737 13.36064109 62.9243555 11.8125 63.375 C11.04357422 63.59671875 10.27464844 63.8184375 9.48242188 64.046875 C6.31416597 64.97151621 3.25004011 65.89607817 0.19921875 67.1640625 C-2 68 -2 68 -6 68 C-6 68.66 -6 69.32 -6 70 C-7.87256417 70.50904657 -9.74819341 71.00682455 -11.625 71.5 C-12.66914063 71.7784375 -13.71328125 72.056875 -14.7890625 72.34375 C-17.95687418 72.99118596 -20.77741467 73.1161292 -24 73 C-24 73.66 -24 74.32 -24 75 C-29.41639371 76.723398 -34.80780756 77.68223929 -40.42578125 78.53515625 C-42.97679834 78.87125176 -42.97679834 78.87125176 -45 80 C-47.71040134 80.40626366 -50.40274272 80.75877475 -53.125 81.0625 C-54.31778564 81.19664307 -54.31778564 81.19664307 -55.53466797 81.33349609 C-63.36998254 82.14821983 -71.13281027 82.19292836 -79 82 C-75.76606666 79.35763983 -72.40277271 77.69671452 -68.625 75.9375 C-55.81137545 69.71113756 -45.1490992 60.90337396 -35 51 C-34.37689941 50.40461426 -33.75379883 49.80922852 -33.11181641 49.19580078 C-28.27909799 44.49767909 -24.09724117 39.56523094 -20.125 34.125 C-19.5271167 33.31071533 -18.9292334 32.49643066 -18.31323242 31.6574707 C-11.13173168 21.67638559 -5.48766428 10.97532856 0 0 Z " fill="#FEFEFD" transform="translate(512,675)"/>
<path d="M0 0 C13.647412 0.24410005 26.70897308 3.08867556 40 6 C40.74362793 6.15839355 41.48725586 6.31678711 42.25341797 6.47998047 C92.7173866 17.34663042 145.09532773 42.88202825 184 77 C182 79 182 79 180.05999088 79.24888897 C179.26192744 79.2483442 178.463864 79.24779943 177.64161682 79.24723816 C176.72606018 79.25143265 175.81050354 79.25562714 174.86720276 79.25994873 C173.85987595 79.25432922 172.85254913 79.24870972 171.81469727 79.24291992 C170.7560849 79.24481827 169.69747253 79.24671661 168.60678101 79.24867249 C165.09324838 79.25238938 161.57992064 79.24166232 158.06640625 79.23046875 C155.6326449 79.22927727 153.19888309 79.22882372 150.76512146 79.2290802 C145.6580824 79.22751371 140.55111327 79.21921192 135.4440918 79.20581055 C128.8888005 79.18882951 122.33358621 79.18499587 115.77827549 79.18575573 C110.75037395 79.18548412 105.72248934 79.18000415 100.69459343 79.17275429 C98.277202 79.16956578 95.85980865 79.16759979 93.44241524 79.16686058 C90.06647585 79.16469846 86.690619 79.15595661 83.31469727 79.14526367 C82.30939468 79.14571686 81.3040921 79.14617004 80.26832581 79.14663696 C78.89076111 79.14023949 78.89076111 79.14023949 77.48536682 79.13371277 C76.68692636 79.13203692 75.88848589 79.13036108 75.06585026 79.12863445 C73 79 73 79 70 78 C68.91601562 76.39624023 68.91601562 76.39624023 67.90625 74.30859375 C67.52162598 73.53668701 67.13700195 72.76478027 66.74072266 71.96948242 C66.33128418 71.13392822 65.9218457 70.29837402 65.5 69.4375 C57.86059383 54.44209863 48.33834662 41.40548513 37 29 C36.24074219 28.16855469 35.48148437 27.33710937 34.69921875 26.48046875 C25.87677566 17.27093492 15.6820293 10.10962691 4.67333984 3.77929688 C3.10256407 2.87507422 1.549221 1.94067499 0 1 C0 0.67 0 0.34 0 0 Z " fill="#FEFDFC" transform="translate(442,44)"/>
<path d="M0 0 C34.98 0 69.96 0 106 0 C108.64 4.95 111.28 9.9 114 15 C131.56752005 43.45443388 152.42636509 65.68434507 183 80 C183 80.33 183 80.66 183 81 C167.6451215 81.22691939 167.6451215 81.22691939 161.203125 79.05859375 C153.35457307 76.46474305 145.22110252 74.80599044 137 74 C137 73.34 137 72.68 137 72 C135.7934375 71.814375 135.7934375 71.814375 134.5625 71.625 C128.62394589 70.5831484 122.98769329 69.50065522 117.3984375 67.17578125 C111.01765978 64.57548464 104.53319178 62.28816657 98.03515625 60 C93.0890088 58.22907168 88.38245766 56.334135 83.75830078 53.83203125 C81.86521093 52.93621756 80.04214424 52.44445678 78 52 C78 51.34 78 50.68 78 50 C76.69095703 49.85111328 76.69095703 49.85111328 75.35546875 49.69921875 C71.73721495 48.94524037 69.44470791 47.74823013 66.3125 45.8125 C62.54072038 43.52727245 58.77393431 41.31060781 54.875 39.25 C49.72218761 36.45920672 44.69894986 33.47247528 39.6875 30.4375 C38.53967041 29.74865723 38.53967041 29.74865723 37.36865234 29.04589844 C32.90749461 26.32294283 28.97059842 23.392526 25 20 C23.35114282 19.09474508 21.70211577 18.18979042 20.05078125 17.2890625 C15.35943502 14.3402163 11.22173525 10.572713 7 7 C5.88044922 6.06800781 5.88044922 6.06800781 4.73828125 5.1171875 C3.13594251 3.77161298 1.56386541 2.39010259 0 1 C0 0.67 0 0.34 0 0 Z " fill="#FEFDFC" transform="translate(170,675)"/>
<path d="M0 0 C-3.34304071 4.19316103 -6.21685199 7.44157199 -11 10 C-13.34966932 11.58009122 -15.68196847 13.18367906 -18.01171875 14.79296875 C-20 16 -20 16 -22 16 C-22 16.66 -22 17.32 -22 18 C-23.43359375 19.33984375 -23.43359375 19.33984375 -25.4375 20.9375 C-29.82626443 24.64927417 -33.28648116 28.83722824 -36.82421875 33.3515625 C-39 36 -39 36 -41.515625 38.50390625 C-47.69251747 44.70993501 -52.40073836 52.05163054 -56 60 C-56.66 60 -57.32 60 -58 60 C-58.185625 60.86625 -58.185625 60.86625 -58.375 61.75 C-59.00648824 64.02335767 -59.88858191 65.9253529 -61 68 C-61.66 68 -62.32 68 -63 68 C-63.0825 68.928125 -63.165 69.85625 -63.25 70.8125 C-64 74 -64 74 -65.47940063 75.67694092 C-69.28826842 77.67621029 -72.83962694 77.40163879 -77.07958984 77.35644531 C-78.45589317 77.35951187 -78.45589317 77.35951187 -79.86000061 77.36264038 C-82.89384884 77.36564894 -85.92715381 77.3471654 -88.9609375 77.328125 C-91.0707689 77.32506674 -93.18060231 77.32319113 -95.29043579 77.32244873 C-99.71388469 77.3178448 -104.13715163 77.30341768 -108.56054688 77.28125 C-114.22541607 77.25300237 -119.89014176 77.24204177 -125.55507469 77.2375679 C-129.91313101 77.23340597 -134.27115844 77.22358145 -138.62919998 77.21169281 C-140.71755366 77.2060022 -142.80591009 77.20123953 -144.89426804 77.19742584 C-147.81676826 77.19053382 -150.73915684 77.17688648 -153.66162109 77.16113281 C-154.52208542 77.16001495 -155.38254974 77.15889709 -156.26908875 77.15774536 C-160.62299383 77.12673881 -164.71273976 76.8692668 -169 76 C-135.11648136 39.14266191 -51.04334213 -2.68649169 0 0 Z " fill="#FEFDFB" transform="translate(342,46)"/>
<path d="M0 0 C4.846875 -0.0825 9.69375 -0.165 14.6875 -0.25 C16.93759888 -0.30462402 16.93759888 -0.30462402 19.2331543 -0.36035156 C27.81503266 -0.43026503 36.19842185 0.02870396 44 4 C50.51502212 11.11789233 51.50544545 19.33555169 51.3046875 28.7265625 C50.84309969 33.68567253 49.58522875 38.29149317 48 43 C47.34 43 46.68 43 46 43 C45.9071875 44.11375 45.9071875 44.11375 45.8125 45.25 C44.74257307 48.87129113 43.13114488 49.98712115 40 52 C39.01 52 38.02 52 37 52 C37 52.66 37 53.32 37 54 C35.69211261 54.49161725 34.37828093 54.96741758 33.0625 55.4375 C32.33160156 55.70433594 31.60070312 55.97117187 30.84765625 56.24609375 C20.78617665 58.90983252 10.28425207 58 0 58 C0 38.86 0 19.72 0 0 Z " fill="#FEFEFE" transform="translate(280,316)"/>
<path d="M0 0 C7.97109911 3.6569313 10.98842329 11.19627933 14 19 C18.98164578 33.12322257 16.339599 49.75444075 10.47265625 63.11328125 C3.61186406 76.56188982 -8.28424095 85.45022821 -22.42553711 90.13476562 C-33.42418759 93.14939737 -43.64150704 93.47501923 -55 93.25 C-60.94 93.1675 -66.88 93.085 -73 93 C-73 115.11 -73 137.22 -73 160 C-82.9 160 -92.8 160 -103 160 C-105 157 -105 157 -105 153 C-106.32 152.67 -107.64 152.34 -109 152 C-99.76 152 -90.52 152 -81 152 C-81 129.89 -81 107.78 -81 85 C-62 84.75 -62 84.75 -56.11328125 84.70214844 C-41.53256452 84.47987557 -27.741937 82.68787261 -15 75 C-14.37996094 74.64421875 -13.75992188 74.2884375 -13.12109375 73.921875 C-2.57208673 67.21959761 3.34282564 55.42089093 6.64453125 43.71484375 C8.68445936 28.13517299 6.85748511 14.09787548 0 0 Z " fill="#E97639" transform="translate(353,310)"/>
<path d="M0 0 C0.495 1.98 0.495 1.98 1 4 C3.31 4 5.62 4 8 4 C7.42112482 10.27545966 5.45467855 15.66182834 3.1953125 21.51953125 C2.80416763 22.55084671 2.41302277 23.58216217 2.01002502 24.64472961 C0.72175957 28.03659542 -0.5766091 31.42449875 -1.875 34.8125 C-2.77566566 37.17861423 -3.67564008 39.54499169 -4.57495117 41.91162109 C-6.44072245 46.81808072 -8.31059748 51.72294532 -10.18408203 56.62646484 C-14.1690585 67.05696435 -18.13326673 77.49534666 -22.09893799 87.93319702 C-23.27838079 91.03526268 -24.45991883 94.13652198 -25.64208984 97.23754883 C-30.17289585 109.13063804 -34.6213999 121.04995005 -39 133 C-50.55 133 -62.1 133 -74 133 C-74.99 131.02 -75.98 129.04 -77 127 C-77.66 126.34 -78.32 125.68 -79 125 C-68.44 124.67 -57.88 124.34 -47 124 C-44.95905067 118.59888669 -42.91818006 113.19774374 -40.87747192 107.79653931 C-40.12431237 105.80317906 -39.37111806 103.80983194 -38.6178894 101.8164978 C-33.99704224 89.58777812 -29.37988207 77.35768108 -24.76953125 65.125 C-23.45930388 61.64951289 -22.14902643 58.17404466 -20.83874512 54.69857788 C-20.00338823 52.48224541 -19.16833402 50.26579883 -18.33361816 48.04922485 C-12.29190021 32.0058322 -6.173361 15.99320334 0 0 Z " fill="#E97538" transform="translate(498,337)"/>
<path d="M0 0 C0.33 0 0.66 0 1 0 C1 1.65 1 3.3 1 5 C3.97 5.495 3.97 5.495 7 6 C7 64.08 7 122.16 7 182 C-2.9 182 -12.8 182 -23 182 C-23.33 179.69 -23.66 177.38 -24 175 C-25.65 175 -27.3 175 -29 175 C-29 174.67 -29 174.34 -29 174 C-19.43 174 -9.86 174 0 174 C0 116.58 0 59.16 0 0 Z " fill="#E97436" transform="translate(198,288)"/>
<path d="M0 0 C0.33 0 0.66 0 1 0 C1.86084982 8.37088832 2.08200712 16.57602163 1.87890625 24.984375 C1.84348976 26.75678558 1.84348976 26.75678558 1.80735779 28.56500244 C1.73153763 32.29348283 1.64716805 36.02171112 1.5625 39.75 C1.50919733 42.29686317 1.45645769 44.84373819 1.40429688 47.390625 C1.2760348 53.59390177 1.14077639 59.79699527 1 66 C-4.19574472 66.19257595 -9.39171265 66.37124807 -14.58837891 66.53710938 C-16.35576154 66.59547094 -18.1230235 66.65761527 -19.89013672 66.72363281 C-22.43174265 66.81792511 -24.97347345 66.89855832 -27.515625 66.9765625 C-28.30430969 67.00875885 -29.09299438 67.0409552 -29.90557861 67.0741272 C-33.77324177 67.17949032 -36.73140976 67.22720219 -40 65 C-33.03270527 53.25980306 -25.93162664 41.61207354 -18.67114258 30.05078125 C-15.48888748 24.98345948 -12.32119036 19.90853373 -9.19140625 14.80859375 C-8.59062256 13.83075928 -7.98983887 12.8529248 -7.37084961 11.84545898 C-6.22681999 9.98087149 -5.08560068 8.11455612 -3.94750977 6.24633789 C-3.44147217 5.42254639 -2.93543457 4.59875488 -2.4140625 3.75 C-1.9701416 3.02296875 -1.5262207 2.2959375 -1.06884766 1.546875 C-0.71612793 1.03640625 -0.3634082 0.5259375 0 0 Z " fill="#FEFDFC" transform="translate(582,336)"/>
<path d="M0 0 C0.66 0 1.32 0 2 0 C2 8.58 2 17.16 2 26 C1.67 26 1.34 26 1 26 C0.67 24.35 0.34 22.7 0 21 C-0.54785156 21.94875 -1.09570312 22.8975 -1.66015625 23.875 C-7.30496802 33.58904406 -13.17728186 43.14373001 -19.15478516 52.65625 C-25.88017679 63.37052985 -32.45105899 74.17722223 -39 85 C-38.34 85.66 -37.68 86.32 -37 87 C-41.95 87 -46.9 87 -52 87 C-50.58451028 83.4612757 -49.28682096 80.58878858 -47.3828125 77.3671875 C-46.86485107 76.48901367 -46.34688965 75.61083984 -45.81323242 74.70605469 C-44.97755737 73.30468262 -44.97755737 73.30468262 -44.125 71.875 C-43.25161987 70.40401855 -43.25161987 70.40401855 -42.3605957 68.90332031 C-38.25792211 62.02643673 -34.04175682 55.23037952 -29.73950195 48.47705078 C-25.36627303 41.60738056 -21.07971731 34.68591753 -16.8125 27.75 C-15.78781616 26.08686768 -15.78781616 26.08686768 -14.74243164 24.39013672 C-11.80835152 19.61713853 -8.8880864 14.83908779 -6.05078125 10.0078125 C-5.42175903 8.93901855 -5.42175903 8.93901855 -4.7800293 7.84863281 C-4.03369837 6.57335503 -3.29380117 5.29428031 -2.56176758 4.01074219 C-1.76153847 2.64101365 -0.88893719 1.31389253 0 0 Z " fill="#E97538" transform="translate(582,316)"/>
<path d="M0 0 C0.33 0 0.66 0 1 0 C1 1.98 1 3.96 1 6 C3.31 6 5.62 6 8 6 C8 13.92 8 21.84 8 30 C-0.58 30 -9.16 30 -18 30 C-18 42.21 -18 54.42 -18 67 C-22.41375 67.020625 -26.8275 67.04125 -31.375 67.0625 C-33.46207275 67.07615601 -33.46207275 67.07615601 -35.59130859 67.09008789 C-37.2283374 67.09383423 -37.2283374 67.09383423 -38.8984375 67.09765625 C-40.57945557 67.10551147 -40.57945557 67.10551147 -42.29443359 67.11352539 C-45 67 -45 67 -47 66 C-47 64.02 -47 62.04 -47 60 C-48.98 60 -50.96 60 -53 60 C-53 53.4 -53 46.8 -53 40 C-52.67 40 -52.34 40 -52 40 C-52 46.27 -52 52.54 -52 59 C-43.42 59 -34.84 59 -26 59 C-26 46.79 -26 34.58 -26 22 C-17.42 22 -8.84 22 0 22 C0 14.74 0 7.48 0 0 Z " fill="#E9783C" transform="translate(636,403)"/>
<path d="M0 0 C0.66 1.32 1.32 2.64 2 4 C4.97 4.495 4.97 4.495 8 5 C8 40.97 8 76.94 8 114 C8.66 114.33 9.32 114.66 10 115 C6.7 115 3.4 115 0 115 C0 77.05 0 39.1 0 0 Z " fill="#E97639" transform="translate(610,288)"/>
<path d="M0 0 C41.63636364 0 41.63636364 0 52.875 10.75 C53.57625 11.4925 54.2775 12.235 55 13 C54.67 13.66 54.34 14.32 54 15 C53.071875 14.3503125 53.071875 14.3503125 52.125 13.6875 C42.78072018 8.64158889 33.26755599 8.48189022 22.875 8.3125 C17.96625 8.209375 13.0575 8.10625 8 8 C8.33 27.47 8.66 46.94 9 67 C6.03 67 3.06 67 0 67 C0 44.89 0 22.78 0 0 Z " fill="#E9773A" transform="translate(272,308)"/>
<path d="M0 0 C25.74 0 51.48 0 78 0 C78 3.63 78 7.26 78 11 C77.505 9.515 77.505 9.515 77 8 C76.1127272 8.00222061 75.22545441 8.00444122 74.31129456 8.00672913 C65.96755343 8.02672961 57.62382031 8.04197289 49.28006077 8.05181217 C44.99000085 8.05704061 40.69996067 8.06413753 36.40991211 8.07543945 C32.273206 8.08626975 28.13651892 8.09227714 23.99979973 8.09487724 C22.41807696 8.09673124 20.83635529 8.10035136 19.25464058 8.10573006 C17.04677162 8.1129424 14.83898227 8.11399086 12.63110352 8.11352539 C10.74247337 8.11685631 10.74247337 8.11685631 8.81568909 8.12025452 C6 8 6 8 5 7 C4.95919217 5.00041636 4.95745644 2.99954746 5 1 C3.35 1 1.7 1 0 1 C0 0.67 0 0.34 0 0 Z " fill="#E9773A" transform="translate(506,425)"/>
<path d="M0 0 C2 2 2 2 2 5 C3.1768335 5.1242334 3.1768335 5.1242334 4.37744141 5.25097656 C7 6 7 6 8.16552734 7.67871094 C8.4280127 8.43958008 8.69049805 9.20044922 8.9609375 9.984375 C9.28288086 10.89380859 9.60482422 11.80324219 9.93652344 12.74023438 C10.2874707 13.81595703 10.63841797 14.89167969 11 16 C11.42448035 17.26898875 11.84930472 18.53786245 12.27441406 19.80664062 C13.75789551 24.27717315 15.19154476 28.76323133 16.625 33.25 C17.68536514 36.55407401 18.74839647 39.85728447 19.8125 43.16015625 C20.07866119 43.98695389 20.34482239 44.81375153 20.61904907 45.66560364 C22.35348444 51.03904357 24.12759325 56.39762859 25.9375 61.74609375 C26.28208755 62.76671402 26.28208755 62.76671402 26.63363647 63.80795288 C27.70721516 66.98505809 28.78727377 70.15958065 29.87744141 73.33105469 C32.08026809 79.83675468 33.88114105 86.21848227 35 93 C35.66 93 36.32 93 37 93 C36.71640113 94.4391134 36.42278601 95.87625518 36.125 97.3125 C35.96257812 98.11300781 35.80015625 98.91351563 35.6328125 99.73828125 C35 102 35 102 33 105 C32.71092773 104.0419043 32.42185547 103.08380859 32.12402344 102.09667969 C26.54103775 83.64084442 20.79435587 65.24518562 14.68359375 46.95703125 C14.45663692 46.2776865 14.2296801 45.59834175 13.99584579 44.8984108 C11.7171377 38.08216878 9.42799914 31.26949643 7.12567806 24.46119404 C6.46844438 22.51608103 5.81301392 20.57037041 5.15821838 18.62443542 C4.34848769 16.21986969 3.534966 13.81657629 2.71714783 11.41474915 C2.35826981 10.3479039 1.99939178 9.28105865 1.62963867 8.18188477 C1.31355148 7.24933365 0.99746429 6.31678253 0.67179871 5.35597229 C0 3 0 3 0 0 Z " fill="#E97A3E" transform="translate(401,336)"/>
<path d="M0 0 C1.74506836 0.00966797 1.74506836 0.00966797 3.52539062 0.01953125 C4.74033203 0.03628906 5.95527344 0.05304687 7.20703125 0.0703125 C8.43357422 0.07933594 9.66011719 0.08835937 10.92382812 0.09765625 C13.9559242 0.12125233 16.98763063 0.15417409 20.01953125 0.1953125 C20.01953125 0.5253125 20.01953125 0.8553125 20.01953125 1.1953125 C17.43700232 1.69980652 14.85364422 2.19905551 12.26953125 2.6953125 C11.53992188 2.83839844 10.8103125 2.98148438 10.05859375 3.12890625 C6.62609593 3.78420129 3.52783634 4.1953125 0.01953125 4.1953125 C0.01953125 3.5353125 0.01953125 2.8753125 0.01953125 2.1953125 C-2.95046875 2.1953125 -5.92046875 2.1953125 -8.98046875 2.1953125 C-5.48710057 -0.13359962 -4.1203901 -0.04019893 0 0 Z " fill="#F9BB71" transform="translate(437.98046875,755.8046875)"/>
<path d="M0 0 C1.11826172 0.00322266 2.23652344 0.00644531 3.38867188 0.00976562 C4.55591797 0.01814453 5.72316406 0.02652344 6.92578125 0.03515625 C8.10462891 0.03966797 9.28347656 0.04417969 10.49804688 0.04882812 C13.41150914 0.06062352 16.32486988 0.07708355 19.23828125 0.09765625 C19.23828125 0.42765625 19.23828125 0.75765625 19.23828125 1.09765625 C18.16344482 1.12738525 18.16344482 1.12738525 17.06689453 1.15771484 C13.83197495 1.25275144 10.59772031 1.36251644 7.36328125 1.47265625 C5.67138672 1.5190625 5.67138672 1.5190625 3.9453125 1.56640625 C2.86894531 1.60507812 1.79257812 1.64375 0.68359375 1.68359375 C-0.31140137 1.71501465 -1.30639648 1.74643555 -2.33154297 1.77880859 C-4.94026392 1.87012708 -4.94026392 1.87012708 -6.76171875 4.09765625 C-7.22462096 6.76008446 -7.22462096 6.76008446 -7.38671875 9.72265625 C-7.46148438 10.72554688 -7.53625 11.7284375 -7.61328125 12.76171875 C-7.66226563 13.53257812 -7.71125 14.3034375 -7.76171875 15.09765625 C-8.09171875 15.09765625 -8.42171875 15.09765625 -8.76171875 15.09765625 C-8.76171875 10.47765625 -8.76171875 5.85765625 -8.76171875 1.09765625 C-5.58384334 0.03836445 -3.33582932 -0.01693314 0 0 Z " fill="#F8A746" transform="translate(678.76171875,392.90234375)"/>
<path d="M0 0 C1 3 1 3 0.22265625 5.04296875 C-0.16019531 5.75066406 -0.54304687 6.45835937 -0.9375 7.1875 C-1.31777344 7.90292969 -1.69804688 8.61835938 -2.08984375 9.35546875 C-2.39019531 9.89816406 -2.69054687 10.44085938 -3 11 C-3.66 11 -4.32 11 -5 11 C-5.33 12.65 -5.66 14.3 -6 16 C-7.32 16.33 -8.64 16.66 -10 17 C-8.68 14.36 -7.36 11.72 -6 9 C-5.34 9 -4.68 9 -4 9 C-3.71125 8.2575 -3.4225 7.515 -3.125 6.75 C-2.17697356 4.43260203 -1.15154089 2.22082885 0 0 Z " fill="#F0E4CC" transform="translate(574,291)"/>
<path d="M0 0 C4.53786224 2.26893112 5.94678157 4.09866534 9 8 C8.01 8.495 8.01 8.495 7 9 C7 8.34 7 7.68 7 7 C6.34 7 5.68 7 5 7 C4.67 7.66 4.34 8.32 4 9 C2.68 6.03 1.36 3.06 0 0 Z " fill="#EA874F" transform="translate(353,310)"/>
<path d="M0 0 C1.98 0 3.96 0 6 0 C5.0919838 1.13199353 4.17316174 2.25532363 3.25 3.375 C2.73953125 4.00148438 2.2290625 4.62796875 1.703125 5.2734375 C-0.08199481 7.08312318 -1.67949644 8.00117455 -4 9 C-2.95833333 7.2421875 -1.91666667 5.484375 -0.875 3.7265625 C0.15068348 2.02527333 0.15068348 2.02527333 0 0 Z " fill="#FCDBB3" transform="translate(336,46)"/>
<path d="M0 0 C0.33 0 0.66 0 1 0 C1 1.98 1 3.96 1 6 C1.66 6 2.32 6 3 6 C3.33 9.96 3.66 13.92 4 18 C0.15839684 12.23759526 -0.23538321 6.70842135 0 0 Z " fill="#FBCE99" transform="translate(29,469)"/>
</svg>
