<?xml version="1.0" encoding="UTF-8"?>
<svg version="1.1" xmlns="http://www.w3.org/2000/svg" width="800" height="800">
<path d="M0 0 C264 0 528 0 800 0 C800 264 800 528 800 800 C536 800 272 800 0 800 C0 536 0 272 0 0 Z " fill="#FEFEFE" transform="translate(0,0)"/>
<path d="M0 0 C264 0 528 0 800 0 C800 264 800 528 800 800 C536 800 272 800 0 800 C0 536 0 272 0 0 Z M364 18 C364 18.66 364 19.32 364 20 C358.39 20 352.78 20 347 20 C347 20.66 347 21.32 347 22 C346.443125 21.98839844 345.88625 21.97679687 345.3125 21.96484375 C340.10221657 21.90323567 335.1562049 22.25000656 330 23 C330 23.66 330 24.32 330 25 C328.86820312 24.96132813 327.73640625 24.92265625 326.5703125 24.8828125 C321.8240317 24.88490245 317.47588733 25.78102848 312.875 26.875 C312.10285156 27.04902344 311.33070313 27.22304688 310.53515625 27.40234375 C306.26702662 28.38394085 302.13338965 29.53416533 298 31 C298 31.66 298 32.32 298 33 C293.05 33.495 293.05 33.495 288 34 C288 34.66 288 35.32 288 36 C284.7 36.33 281.4 36.66 278 37 C278 37.66 278 38.32 278 39 C275.36 39.33 272.72 39.66 270 40 C270 40.66 270 41.32 270 42 C268.68 42 267.36 42 266 42 C266 42.66 266 43.32 266 44 C263.36 44.33 260.72 44.66 258 45 C258 45.66 258 46.32 258 47 C255.69 47.33 253.38 47.66 251 48 C251 48.66 251 49.32 251 50 C250.01902344 50.08121094 249.03804687 50.16242187 248.02734375 50.24609375 C243.40082235 50.90702538 239.65452835 52.89481069 235.5625 55.0625 C234.46518555 55.62807617 234.46518555 55.62807617 233.34570312 56.20507812 C231.55906047 57.12759296 229.77884171 58.0625312 228 59 C228 59.66 228 60.32 228 61 C225.525 61.495 225.525 61.495 223 62 C223 62.66 223 63.32 223 64 C220.03 64.495 220.03 64.495 217 65 C216.67 66.32 216.34 67.64 216 69 C215.319375 69.103125 214.63875 69.20625 213.9375 69.3125 C210.37084011 70.14725019 207.33777806 71.49472754 204 73 C204 73.66 204 74.32 204 75 C203.34 75 202.68 75 202 75 C202 75.66 202 76.32 202 77 C201.01 77.20625 200.02 77.4125 199 77.625 C194.94339498 78.76052027 192.12883075 80.92763279 188.89453125 83.5625 C187.00753853 84.99428004 185.14624928 86.01015554 183 87 C183 87.66 183 88.32 183 89 C181.68 89.33 180.36 89.66 179 90 C179 90.66 179 91.32 179 92 C177 93 175 94 173 95 C173 95.66 173 96.32 173 97 C172.43796875 97.08378906 171.8759375 97.16757813 171.296875 97.25390625 C168.29516805 98.22895052 166.58443682 99.82811509 164.25 101.9375 C163.45078125 102.64777344 162.6515625 103.35804687 161.828125 104.08984375 C159.76952537 105.80014971 159.76952537 105.80014971 160 108 C158.68 108.33 157.36 108.66 156 109 C156 109.66 156 110.32 156 111 C155.29875 111.226875 154.5975 111.45375 153.875 111.6875 C150.25871465 113.33841288 147.91230024 115.2908835 145 118 C145 118.66 145 119.32 145 120 C143.515 120.495 143.515 120.495 142 121 C140.62596838 122.35555768 140.62596838 122.35555768 139.25 124.125 C134.88695416 129.29671382 130.06837732 133.9844244 125.24316406 138.71923828 C124.61120117 139.3429834 123.97923828 139.96672852 123.328125 140.609375 C122.7599707 141.16592773 122.19181641 141.72248047 121.60644531 142.29589844 C118.19418512 145.64906617 118.19418512 145.64906617 117 150 C116.01 150.33 115.02 150.66 114 151 C114 151.66 114 152.32 114 153 C113.34 153 112.68 153 112 153 C110.41173778 154.71497772 110.41173778 154.71497772 108.875 156.875 C108.33617188 157.59429687 107.79734375 158.31359375 107.2421875 159.0546875 C105.82060368 160.89626006 105.82060368 160.89626006 106 163 C105.34 163 104.68 163 104 163 C103.67 164.32 103.34 165.64 103 167 C102.34 167 101.68 167 101 167 C97.9487682 171.1033807 95.59763414 175.51341352 93.24609375 180.046875 C92 182 92 182 89 184 C86.74040462 187.77812447 86.74040462 187.77812447 86 192 C85.34 192 84.68 192 84 192 C79.64458978 197.40275226 73 205.90569938 73 213 C72.34 213 71.68 213 71 213 C70.505 215.97 70.505 215.97 70 219 C69.34 219 68.68 219 68 219 C67.34 221.97 66.68 224.94 66 228 C65.34 228 64.68 228 64 228 C64 228.99 64 229.98 64 231 C63.34 231 62.68 231 62 231 C61.67 233.31 61.34 235.62 61 238 C60.34 238 59.68 238 59 238 C57.99095625 240.2463236 56.9926398 242.49643937 56 244.75 C55.71382812 245.38421875 55.42765625 246.0184375 55.1328125 246.671875 C53.63993298 250.08417104 53 252.20781917 53 256 C52.34 256 51.68 256 51 256 C50.67 258.64 50.34 261.28 50 264 C49.34 264 48.68 264 48 264 C47.87882812 264.67546875 47.75765625 265.3509375 47.6328125 266.046875 C47.46523438 266.93890625 47.29765625 267.8309375 47.125 268.75 C46.96257813 269.63171875 46.80015625 270.5134375 46.6328125 271.421875 C46.0300245 273.87767795 45.13852789 275.76089514 44 278 C43.83249586 280.66709069 43.83249586 280.66709069 44 283 C43.34 283 42.68 283 42 283 C41.89042969 283.71285156 41.78085937 284.42570312 41.66796875 285.16015625 C40.71687089 290.90540594 39.46954446 295.73879659 37 301 C35.7467915 304.64569745 35.92631818 308.16854511 36 312 C35.34 312 34.68 312 34 312 C33.505 319.92 33.505 319.92 33 328 C32.34 328 31.68 328 31 328 C30.7834375 329.9490625 30.7834375 329.9490625 30.5625 331.9375 C30.125 335.875 30.125 335.875 29 337 C28.78326474 338.97300581 28.62844465 340.95287972 28.5 342.93359375 C28.37625 344.7424707 28.37625 344.7424707 28.25 346.58789062 C28.12625 348.49344727 28.12625 348.49344727 28 350.4375 C27.83721826 352.93645401 27.67074112 355.43517094 27.5 357.93359375 C27.39171875 359.6050647 27.39171875 359.6050647 27.28125 361.31030273 C27 364 27 364 26 366 C25.90412476 367.77658359 25.87204345 369.55676936 25.87060547 371.3359375 C25.86745331 372.45049316 25.86430115 373.56504883 25.86105347 374.71337891 C25.8630777 375.92171387 25.86510193 377.13004883 25.8671875 378.375 C25.86623077 379.61040527 25.86527405 380.84581055 25.86428833 382.11865234 C25.86343196 385.40586084 25.86746656 388.69302236 25.87304688 391.98022461 C25.87499797 393.99789941 25.87305408 396.01553072 25.86962891 398.03320312 C25.86347008 401.89715613 25.86419516 405.76104435 25.8671875 409.625 C25.86516327 410.83333496 25.86313904 412.04166992 25.86105347 413.28662109 C25.86420563 414.40117676 25.86735779 415.51573242 25.87060547 416.6640625 C25.87140106 417.64842285 25.87219666 418.6327832 25.87301636 419.64697266 C25.84444324 422.02085748 25.84444324 422.02085748 27 424 C27.26507396 427.65581171 27.44485799 431.30546633 27.60546875 434.96679688 C27.43172072 438.79767901 27.43172072 438.79767901 29 442 C29.45173571 445.86063211 29.81832352 449.72046918 30.16210938 453.59179688 C30.67283346 458.91910583 31.6369374 463.82693111 33 469 C33.25008102 470.66091542 33.46822149 472.32769588 33.625 474 C33.69976562 474.763125 33.77453125 475.52625 33.8515625 476.3125 C33.90054688 476.869375 33.94953125 477.42625 34 478 C34.66 478 35.32 478 36 478 C36.01417969 478.58523438 36.02835938 479.17046875 36.04296875 479.7734375 C36.40066808 486.2120254 37.67004877 492.18191379 39.375 498.375 C39.58406982 499.14763184 39.79313965 499.92026367 40.00854492 500.71630859 C40.93286149 503.95864607 41.80762862 506.68130957 43.55859375 509.58203125 C45.43761698 512.73410545 45.98290989 515.72244565 46.6875 519.3125 C46.93886719 520.56675781 47.19023438 521.82101562 47.44921875 523.11328125 C47.63097656 524.06589844 47.81273438 525.01851562 48 526 C48.66 526 49.32 526 50 526 C50.12375 526.515625 50.2475 527.03125 50.375 527.5625 C51.18641628 530.72702351 52.0945913 533.86124985 53 537 C53.66 537 54.32 537 55 537 C55.0928125 538.3921875 55.0928125 538.3921875 55.1875 539.8125 C55.98215047 545.30883245 58.57375545 550.06226446 61 555 C61.68449219 556.40958984 61.68449219 556.40958984 62.3828125 557.84765625 C69.96495925 573.23982847 78.18541978 588.0691148 87.83007812 602.27392578 C88.65195648 603.48650508 89.47069239 604.70121738 90.28710938 605.91748047 C95.52393039 613.71792563 100.83857122 621.3052471 106.8984375 628.5 C108.92977502 630.91646099 110.87291419 633.38466761 112.8125 635.875 C117.00791068 641.14443582 121.57354427 646.03424088 126.171875 650.94921875 C128.4523504 653.39161694 130.64960729 655.88976828 132.8125 658.4375 C135.39702459 661.43076935 138.15091863 663.99744894 141.2265625 666.48046875 C143.61575564 668.52759679 145.78173877 670.76889789 148 673 C156.22893879 680.99477124 164.67142634 688.2965526 174 695 C175.16322764 695.86742404 176.32461162 696.7373246 177.484375 697.609375 C196.6974033 712.00568095 217.3030019 724.6939259 239 735 C240.21921675 735.60452831 241.43793251 736.21006768 242.65625 736.81640625 C318.22841932 773.95267533 405.42613541 780.34990815 487 763 C488.62760254 762.65412842 488.62760254 762.65412842 490.28808594 762.30126953 C512.33101106 757.48790006 534.21369378 749.93759692 554.6875 740.4375 C557.49076083 739.14008793 560.28966619 737.88017535 563.14453125 736.69921875 C593.14910138 723.89243966 621.95468651 704.80843395 646.44335938 683.34619141 C647.99961239 682.0003352 649.58013589 680.6903317 651.171875 679.38671875 C658.76656087 673.11887647 665.83009388 666.37951001 672.8125 659.4375 C673.68390625 658.57527832 674.5553125 657.71305664 675.453125 656.82470703 C681.39109388 650.85849438 686.75612401 644.57864663 692 638 C693.47653364 636.2061628 694.95539679 634.41423826 696.4375 632.625 C705.26601165 621.80394232 713.52528644 610.79956445 721 599 C721.55316895 598.12891602 722.10633789 597.25783203 722.67626953 596.36035156 C733.11071543 579.7911662 741.80729403 562.75312886 750 545 C750.46100098 544.0188623 750.92200195 543.03772461 751.39697266 542.02685547 C754.01362086 536.40130637 756.24563137 530.78608682 758.125 524.875 C758.60677083 523.39322917 759.08854167 521.91145833 759.5703125 520.4296875 C759.8065332 519.69588867 760.04275391 518.96208984 760.28613281 518.20605469 C760.98964899 516.03198759 761.70650396 513.8629112 762.4296875 511.6953125 C762.8006958 510.57926636 762.8006958 510.57926636 763.17919922 509.44067383 C763.76795705 507.68998612 764.36716878 505.94280079 764.97314453 504.19799805 C767.4088259 497.10348248 769.34933968 490.00262018 771 482.6875 C771.38236816 481.00950317 771.38236816 481.00950317 771.77246094 479.29760742 C774.24099747 468.26312459 776.26222476 457.17141223 778 446 C778.11327637 445.27216309 778.22655273 444.54432617 778.34326172 443.79443359 C780.83707188 427.39359365 781.20645182 411.05072781 781.1875 394.5 C781.18689575 393.5244516 781.1862915 392.5489032 781.18566895 391.54379272 C781.16168561 377.27970242 780.95966051 363.15164238 779 349 C778.86577637 348.02224609 778.73155273 347.04449219 778.59326172 346.03710938 C773.67741797 311.30501292 765.24486754 277.15814579 751 245 C750.43732422 243.71029297 750.43732422 243.71029297 749.86328125 242.39453125 C737.47314008 214.52700444 722.08421485 187.83368009 703 164 C702.40960937 163.2471875 701.81921875 162.494375 701.2109375 161.71875 C683.36574744 139.1001552 663.77947108 117.80328961 640.77050781 100.35888672 C638.85583119 98.88934865 636.96932526 97.38831099 635.0859375 95.87890625 C634.44414551 95.36618164 633.80235352 94.85345703 633.14111328 94.32519531 C631.90529899 93.33667152 630.6717933 92.3452528 629.44091797 91.35058594 C626.57295238 88.81166115 626.57295238 88.81166115 623 88 C623 87.34 623 86.68 623 86 C620.80117626 84.46673253 618.60679602 83.06630061 616.3125 81.6875 C614.84101656 80.78797185 613.36966932 79.88822088 611.8984375 78.98828125 C611.10663086 78.50697754 610.31482422 78.02567383 609.49902344 77.52978516 C606.91671195 75.94901496 604.35148219 74.34326349 601.7890625 72.73046875 C585.75615948 62.65570936 569.86079286 54.25841651 552.37011719 46.99121094 C550.28283877 46.11828651 548.20581124 45.22648691 546.1328125 44.3203125 C545.07835937 43.86398438 544.02390625 43.40765625 542.9375 42.9375 C542.05964844 42.55464844 541.18179688 42.17179687 540.27734375 41.77734375 C537.77013552 40.78464168 537.77013552 40.78464168 534 41 C534 40.34 534 39.68 534 39 C533.09378906 38.74605469 532.18757813 38.49210937 531.25390625 38.23046875 C520.076727 35.07247207 520.076727 35.07247207 515.4375 33.5 C506.44022887 30.45092479 497.70091419 27.71596573 488.265625 26.39453125 C486 26 486 26 485 25 C483.845 24.835 482.69 24.67 481.5 24.5 C478 24 478 24 477 23 C471.00318593 21.82671029 465.09324251 21.9008333 459 22 C459 21.34 459 20.68 459 20 C458.22809326 19.94465088 457.45618652 19.88930176 456.66088867 19.83227539 C453.1694568 19.57967688 449.67848785 19.32115964 446.1875 19.0625 C444.97255859 18.97548828 443.75761719 18.88847656 442.50585938 18.79882812 C441.34248047 18.71181641 440.17910156 18.62480469 438.98046875 18.53515625 C437.90692139 18.456604 436.83337402 18.37805176 435.72729492 18.29711914 C433 18 433 18 430 17 C428.2636643 16.90715415 426.5239719 16.87208151 424.78515625 16.87060547 C423.71974609 16.86745331 422.65433594 16.86430115 421.55664062 16.86105347 C419.82704102 16.86408981 419.82704102 16.86408981 418.0625 16.8671875 C416.87205078 16.86623077 415.68160156 16.86527405 414.45507812 16.86428833 C411.92984972 16.86360697 409.40461958 16.86545816 406.87939453 16.86962891 C403.04325329 16.87494012 399.20723116 16.86970198 395.37109375 16.86328125 C392.91406224 16.86394278 390.45703081 16.86522548 388 16.8671875 C386.86312744 16.86516327 385.72625488 16.86313904 384.55493164 16.86105347 C377.64985607 16.8810107 370.8643081 17.24609968 364 18 Z " fill="#FEFEFE" transform="translate(0,0)"/>
<path d="M0 0 C1.19810303 -0.00095673 2.39620605 -0.00191345 3.63061523 -0.00289917 C6.1416021 -0.00357522 8.65259078 -0.00176135 11.16357422 0.00244141 C15.01664088 0.0078358 18.86959298 0.00245759 22.72265625 -0.00390625 C25.16927109 -0.00324611 27.61588586 -0.00196627 30.0625 0 C31.79209961 -0.00303635 31.79209961 -0.00303635 33.55664062 -0.00613403 C34.62205078 -0.00298187 35.68746094 0.00017029 36.78515625 0.00341797 C37.72238525 0.00421356 38.65961426 0.00500916 39.62524414 0.00582886 C42 0.1328125 42 0.1328125 45 1.1328125 C46.98968251 1.34957408 48.98435019 1.52191129 50.98046875 1.66796875 C52.72553711 1.79848633 52.72553711 1.79848633 54.50585938 1.93164062 C55.72080078 2.01865234 56.93574219 2.10566406 58.1875 2.1953125 C59.41404297 2.28619141 60.64058594 2.37707031 61.90429688 2.47070312 C64.93596295 2.69483408 67.96784637 2.9153937 71 3.1328125 C71 3.7928125 71 4.4528125 71 5.1328125 C72.06927734 5.11541016 72.06927734 5.11541016 73.16015625 5.09765625 C78.55286599 5.0468501 83.69931662 5.09572227 89 6.1328125 C89.33 6.4628125 89.66 6.7928125 90 7.1328125 C91.03125 7.2771875 92.0625 7.4215625 93.125 7.5703125 C96.91646504 8.12068646 100.32129064 9.07523111 104 10.1328125 C106.76352361 10.81084295 109.53811572 11.43841645 112.3125 12.0703125 C120.77702164 14.03419839 128.99470276 16.29891438 137.10546875 19.4375 C140.02665792 20.50960654 142.99743391 21.31961752 146 22.1328125 C146 22.7928125 146 23.4528125 146 24.1328125 C146.9075 24.1946875 147.815 24.2565625 148.75 24.3203125 C154.52550578 25.14704821 159.71438612 27.7747186 165 30.1328125 C165.84175781 30.5040625 166.68351563 30.8753125 167.55078125 31.2578125 C169.31040575 32.04594914 171.06386258 32.84793404 172.8125 33.66015625 C175.19929245 34.76287776 177.59215894 35.83216102 180 36.88671875 C193.40534916 42.87408814 205.71395554 50.43854642 218.09130859 58.29003906 C220.64197715 59.90599057 223.20234184 61.50424537 225.76953125 63.09375 C232.77323082 67.4728573 232.77323082 67.4728573 235 69.1328125 C235 69.7928125 235 70.4528125 235 71.1328125 C235.70769531 71.36742188 236.41539062 71.60203125 237.14453125 71.84375 C240.52983013 73.3719971 242.87593087 75.33288105 245.6875 77.7578125 C246.75052028 78.66628019 247.81433388 79.57382034 248.87890625 80.48046875 C249.6680542 81.15553467 249.6680542 81.15553467 250.47314453 81.84423828 C252.64924872 83.68073939 254.88551825 85.43698323 257.125 87.1953125 C262.2811436 91.29716475 267.1354864 95.69261784 272 100.1328125 C273.70805031 101.65396369 275.41638188 103.17479913 277.125 104.6953125 C284.23910309 111.10802514 290.78091778 117.8554161 297 125.1328125 C297.94099854 126.22170664 298.88244148 127.31021682 299.82421875 128.3984375 C318.8219277 150.39038338 334.78508462 173.80060967 349 199.1328125 C349.38849121 199.82181641 349.77698242 200.51082031 350.17724609 201.22070312 C354.37753006 208.71320091 357.9777463 216.20691863 360.92578125 224.296875 C361.80979234 226.63066428 362.76379032 228.751194 363.9375 230.9453125 C369.64923859 241.90816561 373.31293886 254.38393003 377 266.1328125 C377.23187012 266.86467773 377.46374023 267.59654297 377.70263672 268.35058594 C385.32285046 292.7128725 389.63331702 317.75165464 392 343.1328125 C392.09571289 344.00349365 392.19142578 344.8741748 392.29003906 345.77124023 C393.23773861 355.16870258 393.15089989 364.57837943 393.13037109 374.01293945 C393.12503061 376.92860154 393.13033284 379.84410832 393.13671875 382.75976562 C393.14479879 398.58241228 392.28393326 413.91964651 389.75 429.5703125 C389.64051025 430.25747345 389.53102051 430.9446344 389.41821289 431.65261841 C386.62071538 449.16853808 383.40142403 466.5426204 378.12109375 483.5 C377.14104941 486.67575345 376.26653367 489.8527656 375.4375 493.0703125 C374.29001106 497.33974064 372.79354987 501.34583846 371.08984375 505.421875 C369.84397872 508.52090844 368.77028765 511.66070263 367.6875 514.8203125 C364.95356687 522.51001565 361.58237818 529.81369873 358 537.1328125 C357.58943359 537.97972656 357.17886719 538.82664062 356.75585938 539.69921875 C351.01422381 551.51874965 345.04322957 563.03695415 338 574.1328125 C337.57750977 574.80618652 337.15501953 575.47956055 336.71972656 576.17333984 C330.23911823 586.48598064 323.37831358 596.44259261 316 606.1328125 C315.53561523 606.74286133 315.07123047 607.35291016 314.59277344 607.98144531 C309.39607211 614.77271153 304.07193924 621.36988616 298.265625 627.65625 C296.4079748 629.68685384 294.60758511 631.74683924 292.8125 633.83203125 C288.64794838 638.60201208 284.22854235 643.09625498 279.75 647.5703125 C278.90808105 648.41142578 278.06616211 649.25253906 277.19873047 650.11914062 C272.18496778 655.08364462 267.15005176 659.78050998 261.578125 664.11328125 C259.14444704 666.01966232 256.81201688 668.01560326 254.48364258 670.04833984 C246.42545123 677.04621068 237.82849451 683.15034582 229 689.1328125 C228.23300781 689.65633301 227.46601562 690.17985352 226.67578125 690.71923828 C214.1090658 699.25369979 201.0832739 706.65072327 187.64477539 713.72094727 C185.14030317 715.0579142 182.67080804 716.44426044 180.203125 717.84765625 C176.70825088 719.80135137 173.21293147 721.3391813 169.4375 722.6953125 C165.96139626 723.94948726 162.66973116 725.27896539 159.41015625 727.0078125 C153.84538904 729.84429709 147.92741562 731.64642626 142 733.5703125 C140.78884521 733.96645752 139.57769043 734.36260254 138.32983398 734.77075195 C135.93935579 735.55103861 133.54802535 736.32872021 131.15576172 737.10351562 C128.64925545 737.92104854 126.15249467 738.75788781 123.66015625 739.6171875 C102.84553453 746.57799476 80.69724283 750.16007842 59 753.1328125 C58.17129395 753.25140625 57.34258789 753.37 56.48876953 753.4921875 C11.51515206 759.66377642 -37.43436305 755.48176544 -81 743.1328125 C-82.37044696 742.76968558 -83.74157044 742.4091044 -85.11328125 742.05078125 C-135.22674652 728.82136916 -184.55928082 703.98609647 -224 670.1328125 C-224.6909375 669.54113281 -225.381875 668.94945312 -226.09375 668.33984375 C-230.6361642 664.40128223 -235.08914514 660.3619603 -239.546875 656.328125 C-241.75398604 654.35297149 -243.9947025 652.42739778 -246.25 650.5078125 C-249.30215627 647.8548316 -251.94156498 645.0511157 -254.48046875 641.90625 C-256.52759679 639.51705686 -258.76889789 637.35107373 -261 635.1328125 C-268.16944322 627.75337566 -274.90983629 620.26677922 -280.953125 611.9296875 C-282.91069653 609.25483785 -284.95862525 606.69334223 -287.0625 604.1328125 C-291.43284673 598.71531338 -295.19904443 592.95697729 -299 587.1328125 C-300.31192324 585.19492191 -301.62442513 583.25742295 -302.9375 581.3203125 C-310.4737433 569.98639365 -317.07750961 558.38195273 -323 546.1328125 C-323.70578763 544.73569023 -324.41367468 543.33962348 -325.125 541.9453125 C-325.75398668 540.6764476 -326.37865894 539.40543878 -327 538.1328125 C-327.43441406 537.24851562 -327.86882812 536.36421875 -328.31640625 535.453125 C-330.77546182 530.28280304 -332.61780789 525.86569413 -333 520.1328125 C-333.66 520.1328125 -334.32 520.1328125 -335 520.1328125 C-335.50615298 518.86441724 -336.00469099 517.59298148 -336.5 516.3203125 C-336.7784375 515.61261719 -337.056875 514.90492188 -337.34375 514.17578125 C-338 512.1328125 -338 512.1328125 -338 509.1328125 C-338.66 509.1328125 -339.32 509.1328125 -340 509.1328125 C-340.18175781 508.18019531 -340.36351562 507.22757813 -340.55078125 506.24609375 C-340.80214844 504.99183594 -341.05351562 503.73757813 -341.3125 502.4453125 C-341.55613281 501.20394531 -341.79976563 499.96257812 -342.05078125 498.68359375 C-342.80136586 495.20479975 -342.80136586 495.20479975 -344.45898438 492.74267578 C-346.02879956 490.08403759 -346.82531066 487.80108863 -347.60546875 484.82421875 C-347.86650391 483.82970703 -348.12753906 482.83519531 -348.39648438 481.81054688 C-348.65751953 480.78251953 -348.91855469 479.75449219 -349.1875 478.6953125 C-349.46013672 477.67115234 -349.73277344 476.64699219 -350.01367188 475.59179688 C-351.27874451 470.69320737 -352.39405691 466.2380387 -352 461.1328125 C-352.66 461.1328125 -353.32 461.1328125 -354 461.1328125 C-354.04898438 460.5759375 -354.09796875 460.0190625 -354.1484375 459.4453125 C-354.22320312 458.6821875 -354.29796875 457.9190625 -354.375 457.1328125 C-354.44460938 456.3903125 -354.51421875 455.6478125 -354.5859375 454.8828125 C-354.97663111 451.9518726 -354.97663111 451.9518726 -355.97265625 448.44140625 C-357.18874575 443.73513989 -357.63339629 439.02739343 -358.0625 434.1953125 C-358.07624686 428.73001392 -358.07624686 428.73001392 -360 424.1328125 C-360.21144292 421.31651026 -360.37628157 418.51563451 -360.5 415.6953125 C-360.50937661 410.24777107 -360.50937661 410.24777107 -362 405.1328125 C-362.09587524 403.35622891 -362.12795655 401.57604314 -362.12939453 399.796875 C-362.13254669 398.68231934 -362.13569885 397.56776367 -362.13894653 396.41943359 C-362.1369223 395.21109863 -362.13489807 394.00276367 -362.1328125 392.7578125 C-362.13376923 391.52240723 -362.13472595 390.28700195 -362.13571167 389.01416016 C-362.13656804 385.72695166 -362.13253344 382.43979014 -362.12695312 379.15258789 C-362.12500203 377.13491309 -362.12694592 375.11728178 -362.13037109 373.09960938 C-362.13652992 369.23565637 -362.13580484 365.37176815 -362.1328125 361.5078125 C-362.13483673 360.29947754 -362.13686096 359.09114258 -362.13894653 357.84619141 C-362.13579437 356.73163574 -362.13264221 355.61708008 -362.12939453 354.46875 C-362.12859894 353.48438965 -362.12780334 352.5000293 -362.12698364 351.48583984 C-362 349.1328125 -362 349.1328125 -361 347.1328125 C-360.78898753 345.11482262 -360.63116725 343.09115428 -360.5 341.06640625 C-360.37625 339.2555957 -360.37625 339.2555957 -360.25 337.40820312 C-360.08307995 334.84571962 -359.91641405 332.28321954 -359.75 329.72070312 C-359.62625 327.91182617 -359.62625 327.91182617 -359.5 326.06640625 C-359.4278125 324.95322021 -359.355625 323.84003418 -359.28125 322.69311523 C-359 320.1328125 -359 320.1328125 -358 319.1328125 C-357.76924918 317.78534166 -357.58846937 316.42903685 -357.4375 315.0703125 C-357.293125 313.7709375 -357.14875 312.4715625 -357 311.1328125 C-356.34 311.1328125 -355.68 311.1328125 -355 311.1328125 C-354.67 305.8528125 -354.34 300.5728125 -354 295.1328125 C-353.34 295.1328125 -352.68 295.1328125 -352 295.1328125 C-352.061875 294.1840625 -352.12375 293.2353125 -352.1875 292.2578125 C-352.19760044 287.26819698 -350.54216409 282.82734142 -349 278.1328125 C-347.82393152 274.14724709 -346.74350614 270.22209626 -346 266.1328125 C-345.34 266.1328125 -344.68 266.1328125 -344 266.1328125 C-343.87625 264.9365625 -343.7525 263.7403125 -343.625 262.5078125 C-343.17290473 258.84584078 -342.23842766 255.6158903 -341 252.1328125 C-340.63893903 250.47193205 -340.29537827 248.80662269 -340 247.1328125 C-339.34 247.1328125 -338.68 247.1328125 -338 247.1328125 C-337.67 244.4928125 -337.34 241.8528125 -337 239.1328125 C-336.34 239.1328125 -335.68 239.1328125 -335 239.1328125 C-334.9071875 237.740625 -334.9071875 237.740625 -334.8125 236.3203125 C-334.06985193 230.85172219 -331.40373236 226.0378457 -329 221.1328125 C-328.34 221.1328125 -327.68 221.1328125 -327 221.1328125 C-326.67 218.8228125 -326.34 216.5128125 -326 214.1328125 C-325.34 214.1328125 -324.68 214.1328125 -324 214.1328125 C-324 213.1428125 -324 212.1528125 -324 211.1328125 C-323.34 211.1328125 -322.68 211.1328125 -322 211.1328125 C-321.34 208.1628125 -320.68 205.1928125 -320 202.1328125 C-319.34 202.1328125 -318.68 202.1328125 -318 202.1328125 C-317.505 199.1628125 -317.505 199.1628125 -317 196.1328125 C-316.34 196.1328125 -315.68 196.1328125 -315 196.1328125 C-314.88140625 195.56046875 -314.7628125 194.988125 -314.640625 194.3984375 C-313.48309668 190.3047398 -311.13870329 186.78469305 -309 183.1328125 C-308.54753906 182.35292969 -308.09507812 181.57304687 -307.62890625 180.76953125 C-307.19449219 180.04378906 -306.76007813 179.31804687 -306.3125 178.5703125 C-305.91675781 177.90902344 -305.52101563 177.24773437 -305.11328125 176.56640625 C-304.74589844 176.09332031 -304.37851562 175.62023437 -304 175.1328125 C-303.34 175.1328125 -302.68 175.1328125 -302 175.1328125 C-301.71125 174.3903125 -301.4225 173.6478125 -301.125 172.8828125 C-298.5 166.46614583 -298.5 166.46614583 -295 164.1328125 C-293.40053364 161.59964682 -293.40053364 161.59964682 -291.9375 158.6953125 C-290.38347433 155.72566039 -288.8610928 152.9244517 -287 150.1328125 C-286.34 150.1328125 -285.68 150.1328125 -285 150.1328125 C-284.67 148.8128125 -284.34 147.4928125 -284 146.1328125 C-283.34 146.1328125 -282.68 146.1328125 -282 146.1328125 C-281.62875 145.3284375 -281.62875 145.3284375 -281.25 144.5078125 C-279.69347463 141.5504143 -277.96564327 138.83557199 -276 136.1328125 C-275.34 136.1328125 -274.68 136.1328125 -274 136.1328125 C-273.67 135.1428125 -273.34 134.1528125 -273 133.1328125 C-272.34 133.1328125 -271.68 133.1328125 -271 133.1328125 C-270.58814453 132.24529297 -270.58814453 132.24529297 -270.16796875 131.33984375 C-266.0533469 123.56472219 -258.36867811 117.42613597 -252.15551758 111.32495117 C-251.52025146 110.6982251 -250.88498535 110.07149902 -250.23046875 109.42578125 C-249.65707764 108.8639917 -249.08368652 108.30220215 -248.49291992 107.72338867 C-246.79042085 105.99716973 -246.79042085 105.99716973 -245 103.1328125 C-244.34 103.1328125 -243.68 103.1328125 -243 103.1328125 C-242.505 101.6478125 -242.505 101.6478125 -242 100.1328125 C-240.22265625 98.52734375 -240.22265625 98.52734375 -238.0625 96.9453125 C-236.99708984 96.15060547 -236.99708984 96.15060547 -235.91015625 95.33984375 C-234 94.1328125 -234 94.1328125 -232 94.1328125 C-232 93.4728125 -232 92.8128125 -232 92.1328125 C-231.38125 92.0503125 -230.7625 91.9678125 -230.125 91.8828125 C-227.84792493 91.35825533 -227.84792493 91.35825533 -227.11328125 89.3203125 C-225.79325041 86.7265677 -224.25044714 85.28962677 -222.0625 83.3828125 C-221.37285156 82.76921875 -220.68320313 82.155625 -219.97265625 81.5234375 C-218 80.1328125 -218 80.1328125 -215 80.1328125 C-215 79.4728125 -215 78.8128125 -215 78.1328125 C-211.53846154 75.1328125 -211.53846154 75.1328125 -209 75.1328125 C-209 74.4728125 -209 73.8128125 -209 73.1328125 C-207.68 72.8028125 -206.36 72.4728125 -205 72.1328125 C-205 71.4728125 -205 70.8128125 -205 70.1328125 C-203.36675689 69.07910727 -201.68756133 68.09713326 -200 67.1328125 C-197.75166816 65.57971528 -195.51174075 64.01612197 -193.28125 62.4375 C-190.83133454 61.03634972 -188.77794203 60.53385343 -186 60.1328125 C-186 59.4728125 -186 58.8128125 -186 58.1328125 C-185.34 58.1328125 -184.68 58.1328125 -184 58.1328125 C-184 57.4728125 -184 56.8128125 -184 56.1328125 C-179.9811485 54.32038927 -176.38889325 52.79779633 -172 52.1328125 C-171.67 50.8128125 -171.34 49.4928125 -171 48.1328125 C-168.03 47.6378125 -168.03 47.6378125 -165 47.1328125 C-165 46.4728125 -165 45.8128125 -165 45.1328125 C-162.525 44.6378125 -162.525 44.6378125 -160 44.1328125 C-160 43.4728125 -160 42.8128125 -160 42.1328125 C-156.92274141 40.62011014 -153.83728731 39.12492669 -150.75 37.6328125 C-149.87730469 37.20355469 -149.00460938 36.77429687 -148.10546875 36.33203125 C-147.26113281 35.92597656 -146.41679687 35.51992188 -145.546875 35.1015625 C-144.77182617 34.72451172 -143.99677734 34.34746094 -143.19824219 33.95898438 C-141 33.1328125 -141 33.1328125 -137 33.1328125 C-137 32.4728125 -137 31.8128125 -137 31.1328125 C-134.69 30.8028125 -132.38 30.4728125 -130 30.1328125 C-130 29.4728125 -130 28.8128125 -130 28.1328125 C-127.36 27.8028125 -124.72 27.4728125 -122 27.1328125 C-122 26.4728125 -122 25.8128125 -122 25.1328125 C-120.68 25.1328125 -119.36 25.1328125 -118 25.1328125 C-118 24.4728125 -118 23.8128125 -118 23.1328125 C-115.36 22.8028125 -112.72 22.4728125 -110 22.1328125 C-110 21.4728125 -110 20.8128125 -110 20.1328125 C-106.7 19.8028125 -103.4 19.4728125 -100 19.1328125 C-100 18.4728125 -100 17.8128125 -100 17.1328125 C-96.7 16.8028125 -93.4 16.4728125 -90 16.1328125 C-90 15.4728125 -90 14.8128125 -90 14.1328125 C-66.9109116 7.60864123 -66.9109116 7.60864123 -58 8.1328125 C-58 7.4728125 -58 6.8128125 -58 6.1328125 C-52.27959989 5.3007543 -46.77759884 5.01244586 -41 5.1328125 C-41 4.4728125 -41 3.8128125 -41 3.1328125 C-35.39 3.1328125 -29.78 3.1328125 -24 3.1328125 C-24 2.4728125 -24 1.8128125 -24 1.1328125 C-15.98095482 0.25208852 -8.06352186 -0.01435731 0 0 Z M-248.55981445 130.51098633 C-249.11150299 131.42828522 -249.66319153 132.34558411 -250.2315979 133.29067993 C-254.10325002 139.51310445 -259.11607036 145.00354555 -263.9375 150.5078125 C-288.18260838 178.69358588 -308.93228048 214.00234013 -321 249.1328125 C-321.42611572 250.35411865 -321.42611572 250.35411865 -321.86083984 251.60009766 C-324.34484365 258.74491348 -326.70541567 265.92506597 -329 273.1328125 C-329.31259766 274.10734375 -329.62519531 275.081875 -329.94726562 276.0859375 C-339.20279712 305.41824287 -345.04725994 338.2968253 -344 369.1328125 C-340.49356462 370.30162429 -337.75098532 370.25279677 -334.05004883 370.24633789 C-333.34735367 370.24648392 -332.64465851 370.24662994 -331.92066956 370.2467804 C-329.59942532 370.24608407 -327.27826146 370.23830476 -324.95703125 370.23046875 C-323.3470616 370.22860358 -321.73709139 370.22718014 -320.12712097 370.22618103 C-315.89057853 370.22236368 -311.6540704 370.21254005 -307.4175415 370.20147705 C-303.09412093 370.19124614 -298.77069481 370.18667981 -294.44726562 370.18164062 C-285.96482626 370.17091709 -277.48242135 370.1533266 -269 370.1328125 C-268.505 377.5578125 -268.505 377.5578125 -268 385.1328125 C-293.08 385.1328125 -318.16 385.1328125 -344 385.1328125 C-344 424.41348297 -337.19167771 467.52320377 -321.4375 503.7578125 C-320.30694213 506.41216576 -319.23242794 509.06961614 -318.1875 511.7578125 C-311.74383601 528.31351551 -303.94398426 543.79564239 -295 559.1328125 C-294.58911133 559.84163574 -294.17822266 560.55045898 -293.75488281 561.28076172 C-284.24619723 577.58499762 -273.18023145 592.72422609 -261 607.1328125 C-260.1306313 608.18677547 -259.26218963 609.24150359 -258.39453125 610.296875 C-252.2986889 617.6656185 -245.85770362 624.46738094 -239 631.1328125 C-238.02858063 632.42483078 -238.02858063 632.42483078 -237.03753662 633.74295044 C-232.51639782 637.30007565 -228.49522655 636.84554796 -222.89160156 636.80810547 C-221.77081711 636.82019547 -220.65003265 636.83228546 -219.49528503 636.84474182 C-215.7934723 636.87862008 -212.09257802 636.87715877 -208.390625 636.875 C-205.8218253 636.89065258 -203.2530373 636.90834951 -200.68426514 636.92800903 C-195.30425878 636.96428528 -189.92455093 636.98534225 -184.54443359 636.9921875 C-176.94823161 637.00190666 -169.35250733 637.04614121 -161.75648165 637.09641433 C-155.86373421 637.13396621 -149.97093018 637.1608341 -144.078125 637.1875 C-142.81498726 637.19366207 -141.55184952 637.19982414 -140.25043488 637.20617294 C-136.69721603 637.22114095 -133.14406545 637.22885859 -129.59082031 637.23388672 C-128.52693588 637.23897751 -127.46305145 637.2440683 -126.3669281 637.24931335 C-125.40515152 637.24912704 -124.44337494 637.24894073 -123.45245361 637.24874878 C-122.19150312 637.25145185 -122.19150312 637.25145185 -120.90507889 637.25420952 C-118.98974591 637.34279436 -118.98974591 637.34279436 -118 636.1328125 C-117.95936168 634.46664135 -117.957279 632.79893155 -118 631.1328125 C-118.66 631.1328125 -119.32 631.1328125 -120 631.1328125 C-120.12375 629.9365625 -120.2475 628.7403125 -120.375 627.5078125 C-120.70150914 624.84909523 -121.14537382 622.69669104 -122 620.1328125 C-123.23032984 616.44182298 -123.5999903 612.9995729 -124 609.1328125 C-119.38 609.1328125 -114.76 609.1328125 -110 609.1328125 C-109.68546875 610.17179687 -109.3709375 611.21078125 -109.046875 612.28125 C-106.079619 625.0981843 -106.079619 625.0981843 -100 636.1328125 C-97.20576409 636.23071198 -94.43624787 636.26274159 -91.6415863 636.25306702 C-90.75460102 636.25392144 -89.86761573 636.25477587 -88.9537521 636.25565618 C-85.95799894 636.25731371 -82.9623008 636.25178517 -79.96655273 636.24633789 C-77.8285014 636.24605605 -75.69044996 636.24621369 -73.55239868 636.2467804 C-67.72825507 636.2470685 -61.90413186 636.24116972 -56.07999301 636.23420644 C-50.00076318 636.22797501 -43.92153294 636.22736927 -37.84230042 636.22618103 C-26.32151502 636.22306709 -14.80073906 636.21485286 -3.27995783 636.20483154 C9.83226929 636.19367235 22.94449685 636.18816044 36.05672753 636.18313611 C63.03782359 636.17267029 90.01891127 636.15506964 117 636.1328125 C117.67667998 634.88820467 118.34094719 633.63684354 119 632.3828125 C119.37125 631.68671875 119.7425 630.990625 120.125 630.2734375 C121.25224649 627.90113493 121.25224649 627.90113493 121 624.1328125 C121.66 624.1328125 122.32 624.1328125 123 624.1328125 C123.19335938 623.55273438 123.38671875 622.97265625 123.5859375 622.375 C125.05729167 617.9609375 126.52864583 613.546875 128 609.1328125 C132.38507941 609.65307616 136.67498095 610.23145126 141 611.1328125 C138.93905233 617.90150867 136.88140103 624.65865003 134.515625 631.328125 C133.86263944 633.30075725 133.86263944 633.30075725 134 636.1328125 C150.9073712 636.34344689 167.81433056 636.50195179 184.72271538 636.59912205 C192.57437993 636.64544793 200.42522732 636.70855643 208.27636719 636.81176758 C215.12284988 636.90172827 221.96874059 636.9595959 228.81579792 636.97960895 C232.43862242 636.99130091 236.05975405 637.01859404 239.68203354 637.08438301 C243.73522391 637.15739501 247.78550896 637.15870598 251.83935547 637.15454102 C253.02834946 637.1868985 254.21734344 637.21925598 255.44236755 637.25259399 C263.46606533 637.16364333 267.3552084 635.1077286 272.96618843 629.37959194 C273.97292516 628.26743612 273.97292516 628.26743612 275 627.1328125 C275.84232839 626.27791151 275.84232839 626.27791151 276.70167351 625.40573978 C278.04642305 624.03765001 279.33865661 622.61845749 280.625 621.1953125 C281.46289062 620.27878906 282.30078125 619.36226562 283.1640625 618.41796875 C285.20877294 616.36150927 285.20877294 616.36150927 285 614.1328125 C285.66 614.1328125 286.32 614.1328125 287 614.1328125 C288.64502063 612.35597117 288.64502063 612.35597117 290.3125 610.0703125 C290.93253906 609.25175781 291.55257812 608.43320312 292.19140625 607.58984375 C293.7340563 605.49410534 295.25134741 603.38507925 296.75 601.2578125 C298.45119732 598.89503844 299.95479558 597.13094061 302 595.1328125 C305.84287226 591.26099823 305.84287226 591.26099823 307 586.1328125 C307.66 586.1328125 308.32 586.1328125 309 586.1328125 C310.02611949 584.48209854 311.02308143 582.81311244 312 581.1328125 C312.495 580.6584375 312.99 580.1840625 313.5 579.6953125 C315.6256023 577.48114343 316.65549048 574.87785276 318 572.1328125 C319 570.79947917 320 569.46614583 321 568.1328125 C321 567.4728125 321 566.8128125 321 566.1328125 C321.66 566.1328125 322.32 566.1328125 323 566.1328125 C323.25394531 565.54113281 323.50789062 564.94945312 323.76953125 564.33984375 C325.28805028 560.85350606 326.76980563 557.51098896 328.75 554.2578125 C330.25351006 552.11274295 330.25351006 552.11274295 330 549.1328125 C330.66 549.1328125 331.32 549.1328125 332 549.1328125 C333.5094588 546.03315847 335.00590667 542.92739847 336.5 539.8203125 C336.92925781 538.93923828 337.35851562 538.05816406 337.80078125 537.15039062 C338.20683594 536.30283203 338.61289062 535.45527344 339.03125 534.58203125 C339.40830078 533.80174561 339.78535156 533.02145996 340.17382812 532.2175293 C341.18421148 530.04172585 341.18421148 530.04172585 341 527.1328125 C341.66 527.1328125 342.32 527.1328125 343 527.1328125 C343 526.1428125 343 525.1528125 343 524.1328125 C343.66 524.1328125 344.32 524.1328125 345 524.1328125 C345.33 521.4928125 345.66 518.8528125 346 516.1328125 C346.66 516.1328125 347.32 516.1328125 348 516.1328125 C348.33 513.4928125 348.66 510.8528125 349 508.1328125 C349.66 508.1328125 350.32 508.1328125 351 508.1328125 C351.33 505.4928125 351.66 502.8528125 352 500.1328125 C352.66 500.1328125 353.32 500.1328125 354 500.1328125 C354.26554688 499.25238281 354.53109375 498.37195313 354.8046875 497.46484375 C355.15789063 496.30339844 355.51109375 495.14195312 355.875 493.9453125 C356.39707031 492.22248047 356.39707031 492.22248047 356.9296875 490.46484375 C358 487.1328125 358 487.1328125 359.125 484.3828125 C360.11786058 481.82974243 360.1551809 479.84847831 360 477.1328125 C360.66 477.1328125 361.32 477.1328125 362 477.1328125 C362.13277344 476.27816406 362.26554688 475.42351562 362.40234375 474.54296875 C362.57894531 473.43824219 362.75554688 472.33351563 362.9375 471.1953125 C363.11152344 470.09316406 363.28554688 468.99101562 363.46484375 467.85546875 C364 465.1328125 364 465.1328125 365 464.1328125 C365.04080783 462.13322886 365.04254356 460.13235996 365 458.1328125 C365.66 458.1328125 366.32 458.1328125 367 458.1328125 C369.78751399 445.80814375 371.175682 434.76239613 371 422.1328125 C371.66 422.1328125 372.32 422.1328125 373 422.1328125 C373.06058594 421.30136719 373.12117187 420.46992188 373.18359375 419.61328125 C373.26738281 418.52660156 373.35117187 417.43992187 373.4375 416.3203125 C373.51871094 415.24136719 373.59992187 414.16242188 373.68359375 413.05078125 C374 410.1328125 374 410.1328125 375 407.1328125 C375.36733233 403.97625127 375.51073579 400.80514078 375.6875 397.6328125 C375.77741211 396.33150391 375.77741211 396.33150391 375.86914062 395.00390625 C375.91619141 394.16988281 375.96324219 393.33585937 376.01171875 392.4765625 C376.05772217 391.71537109 376.10372559 390.95417969 376.15112305 390.16992188 C376.14439085 387.81680659 376.14439085 387.81680659 374 385.1328125 C371.09929946 384.84667811 368.41303409 384.75472523 365.51123047 384.79223633 C364.63311707 384.79179825 363.75500366 384.79136017 362.85028076 384.79090881 C359.93902584 384.7930039 357.02834218 384.81636875 354.1171875 384.83984375 C352.10222692 384.84543714 350.08726226 384.84970845 348.07229614 384.85270691 C342.76211332 384.86417587 337.45217563 384.89366068 332.14208984 384.92681885 C326.72627072 384.95747557 321.31041208 384.97120283 315.89453125 384.98632812 C305.26291297 385.01852842 294.63147685 385.06974951 284 385.1328125 C284.11470137 383.38210733 284.24219028 381.63223714 284.375 379.8828125 C284.44460938 378.90828125 284.51421875 377.93375 284.5859375 376.9296875 C285 374.1328125 285 374.1328125 287 370.1328125 C330.065 369.6378125 330.065 369.6378125 374 369.1328125 C374.05119773 355.57224266 374.05119773 355.57224266 373.5 342.0703125 C373.45230469 341.28849609 373.40460937 340.50667969 373.35546875 339.70117188 C373.24157871 337.84476418 373.12155743 335.9887339 373 334.1328125 C372.34 334.1328125 371.68 334.1328125 371 334.1328125 C371.03480469 332.86050781 371.03480469 332.86050781 371.0703125 331.5625 C371.20370056 322.8922764 370.71096218 314.66264586 369 306.1328125 C368.67 305.8028125 368.34 305.4728125 368 305.1328125 C367.63239269 302.80463286 367.29758419 300.470974 367 298.1328125 C366.34 298.1328125 365.68 298.1328125 365 298.1328125 C365.06960938 296.6478125 365.06960938 296.6478125 365.140625 295.1328125 C365.13638199 290.90676968 364.03393491 287.12867073 362.75 283.1328125 C362.29127783 281.64505156 361.83428326 280.15675699 361.37890625 278.66796875 C361.03303467 277.54479248 361.03303467 277.54479248 360.68017578 276.39892578 C359.60307601 272.81039739 358.63980417 269.1936282 357.6875 265.5703125 C357.36136719 264.33152344 357.03523437 263.09273437 356.69921875 261.81640625 C356.46847656 260.93082031 356.23773437 260.04523438 356 259.1328125 C355.34 259.1328125 354.68 259.1328125 354 259.1328125 C353.9175 258.1634375 353.835 257.1940625 353.75 256.1953125 C353.19574832 252.29993799 351.77636134 249.13307606 350.109375 245.59375 C348.51039645 242.04672011 347.25285993 238.39406115 345.94921875 234.73046875 C344.75724464 231.46848198 343.41018503 228.30572883 342 225.1328125 C341.34 225.1328125 340.68 225.1328125 340 225.1328125 C339.87625 223.8334375 339.87625 223.8334375 339.75 222.5078125 C338.87987863 218.59226635 337.23224576 216.45307733 335 213.1328125 C333.19259606 209.60916754 331.48829281 206.04580723 329.78125 202.47265625 C328.15126862 199.16294472 328.15126862 199.16294472 326.03125 196.69921875 C323.87442818 193.97415734 322.52604415 191.28590619 321.02734375 188.171875 C319.42610961 184.9937601 317.4930729 182.07610424 315.5 179.1328125 C315.07275635 178.49762695 314.6455127 177.86244141 314.20532227 177.20800781 C304.38916448 162.76884747 293.6491986 148.94009672 281.71655273 136.19042969 C279.78515487 134.12150413 277.9632802 132.08196319 276.3046875 129.78515625 C275.65886719 128.96724609 275.65886719 128.96724609 275 128.1328125 C274.34 128.1328125 273.68 128.1328125 273 128.1328125 C272.67 127.1428125 272.34 126.1528125 272 125.1328125 C270.61032458 123.93263827 269.21790674 122.73298245 267.765625 121.609375 C266 120.1328125 266 120.1328125 264.15376282 117.57600403 C259.31278657 113.82574352 254.73406913 114.47358124 248.77416992 114.56518555 C247.53473633 114.56445541 246.29530273 114.56372528 245.01831055 114.56297302 C241.62761886 114.56585612 238.23845659 114.5908969 234.84803557 114.62584281 C231.30200076 114.6571381 227.7559447 114.66003951 224.20979309 114.66596985 C217.49843791 114.68149912 210.78749084 114.72251466 204.07631522 114.7727173 C196.43432262 114.82863971 188.79231035 114.85610446 181.15016401 114.88119447 C165.43320646 114.93343174 149.7166559 115.0213556 134 115.1328125 C134.4702827 116.87107365 134.94159449 118.6090564 135.41333008 120.34692383 C135.67567947 121.31479324 135.93802887 122.28266266 136.20832825 123.27986145 C137.28350671 127.1544869 138.46920065 130.98874265 139.6875 134.8203125 C139.91244141 135.53380859 140.13738281 136.24730469 140.36914062 136.98242188 C140.91086912 138.69981648 141.45514375 140.41640764 142 142.1328125 C137.05 142.7928125 132.1 143.4528125 127 144.1328125 C126.67386719 143.01003906 126.34773438 141.88726562 126.01171875 140.73046875 C122.71991409 127.38345966 122.71991409 127.38345966 117 115.1328125 C114.09093898 114.83865903 111.39475723 114.74184808 108.48336792 114.77204895 C107.59144466 114.76948568 106.69952139 114.7669224 105.78057015 114.76428145 C102.77394314 114.75931643 99.76781167 114.77588115 96.76123047 114.79223633 C94.61317965 114.79308201 92.46512795 114.79260861 90.31707764 114.79090881 C84.47019978 114.79004515 78.62350512 114.80773088 72.77666998 114.82863069 C66.67209638 114.84733578 60.56751897 114.84914305 54.46292114 114.85270691 C42.89609215 114.86204555 31.32934783 114.8866839 19.7625562 114.91675538 C6.59711319 114.95024287 -6.56833379 114.96677116 -19.73380876 114.98184168 C-46.82258618 115.01323189 -73.91128836 115.06602766 -101 115.1328125 C-101.96262627 117.67775805 -102.92327199 120.22342239 -103.8828125 122.76953125 C-104.15327393 123.48395386 -104.42373535 124.19837646 -104.70239258 124.93444824 C-108.50725596 134.28963945 -108.50725596 134.28963945 -110 144.1328125 C-111.01320313 143.80796875 -111.01320313 143.80796875 -112.046875 143.4765625 C-112.93890625 143.198125 -113.8309375 142.9196875 -114.75 142.6328125 C-115.63171875 142.354375 -116.5134375 142.0759375 -117.421875 141.7890625 C-120.20267529 140.96835965 -120.20267529 140.96835965 -124 141.1328125 C-124 139.1528125 -124 137.1728125 -124 135.1328125 C-123.34 135.1328125 -122.68 135.1328125 -122 135.1328125 C-121.67 131.8328125 -121.34 128.5328125 -121 125.1328125 C-120.34 125.1328125 -119.68 125.1328125 -119 125.1328125 C-117.8422494 121.65956069 -117.93133348 118.77213802 -118 115.1328125 C-132.36886813 114.63877947 -146.73639314 114.27170128 -161.11205578 114.04475689 C-167.79016506 113.93716275 -174.46187897 113.78831683 -181.13696289 113.54858398 C-219.36256901 110.22938773 -219.36256901 110.22938773 -248.55981445 130.51098633 Z " fill="#F79624" transform="translate(388,16.8671875)"/>
<path d="M0 0 C0.9590625 -0.00386719 1.918125 -0.00773437 2.90625 -0.01171875 C17.48765559 0.00831065 29.49827741 4.21339875 40.0625 14.5 C46.95783505 22.01560507 57 33.25059519 57 44.125 C53.45995797 44.8004914 49.91773831 45.46380798 46.375 46.125 C45.37597656 46.31578125 44.37695312 46.5065625 43.34765625 46.703125 C38.50947407 47.60027136 33.94607582 48.39509288 29 48.125 C28.01 45.155 28.01 45.155 27 42.125 C26.278125 42.125 25.55625 42.125 24.8125 42.125 C20.97170638 40.75938449 20.20063147 38.56624264 18.40625 35.03515625 C16.5295917 32.48602873 15.02964514 31.97884849 12 31.125 C2.01545789 29.99961255 -6.43973073 31.64028745 -14.6875 37.4375 C-22.33590737 44.50593335 -26.79796111 58.50019355 -27.625 68.5625 C-27.69976563 69.42746094 -27.77453125 70.29242188 -27.8515625 71.18359375 C-27.90054688 71.82425781 -27.94953125 72.46492188 -28 73.125 C-25.69 72.795 -23.38 72.465 -21 72.125 C-21 71.465 -21 70.805 -21 70.125 C-19.41800369 69.47589846 -17.83434276 68.83085306 -16.25 68.1875 C-14.92742188 67.64802734 -14.92742188 67.64802734 -13.578125 67.09765625 C-2.19491936 62.80308321 12.96598498 63.7132432 24.265625 67.85546875 C30.95187197 70.9597977 35.84113797 74.91083623 41 80.125 C41.79019531 80.82238281 42.58039063 81.51976562 43.39453125 82.23828125 C48.70399581 87.06740653 52.28617678 91.74319018 55.5 98.125 C55.82589111 98.76477783 56.15178223 99.40455566 56.48754883 100.0637207 C63.78272451 115.43922916 63.46513624 136.70048487 58.18994141 152.63134766 C53.4570675 165.57989785 45.47733443 175.55531291 33.1875 182.0625 C17.9960519 188.98105424 -0.21217618 190.99341719 -16.40234375 186.09765625 C-34.73188841 179.23441321 -48.55482948 165.55567186 -57 148.125 C-67.20869771 125.609498 -68.42835836 95.37746098 -65 71.125 C-64.505 70.63 -64.505 70.63 -64 70.125 C-63.80427367 68.35282576 -63.61451139 66.57978422 -63.45532227 64.80395508 C-62.81169515 57.77762863 -61.70520482 51.16887245 -59.5625 44.4375 C-59.3572168 43.79159912 -59.15193359 43.14569824 -58.94042969 42.48022461 C-57.61311113 38.50917414 -55.95012238 34.82625268 -54 31.125 C-53.34 31.125 -52.68 31.125 -52 31.125 C-51.67 29.145 -51.34 27.165 -51 25.125 C-50.34 25.125 -49.68 25.125 -49 25.125 C-48.7628125 24.40183594 -48.525625 23.67867188 -48.28125 22.93359375 C-44.03653994 13.62887871 -33.80346468 6.95791808 -24.6171875 3.1328125 C-16.51241041 0.24806133 -8.52283482 -0.03436627 0 0 Z " fill="#E1DFB5" transform="translate(580,277.875)"/>
<path d="M0 0 C1.11586487 -0.00315216 2.23172974 -0.00630432 3.38140869 -0.009552 C5.20306549 -0.00651566 5.20306549 -0.00651566 7.06152344 -0.00341797 C8.31286072 -0.00437469 9.564198 -0.00533142 10.85345459 -0.00631714 C13.51334032 -0.0069993 16.17313502 -0.00564271 18.83300781 -0.00097656 C21.53680627 0.00354079 24.24053765 0.00363321 26.94433594 -0.00097656 C30.85841839 -0.00722448 34.77243812 -0.00638333 38.68652344 -0.00341797 C40.47174408 -0.00645432 40.47174408 -0.00645432 42.29302979 -0.009552 C65.34985156 0.05344478 84.84451329 3.07873618 101.92089844 19.62939453 C113.42581774 31.2012496 119.07545698 43.79431487 119.04589844 60.25439453 C118.99935873 75.79743058 115.07967467 88.73274972 104.41308594 100.47705078 C91.50077743 112.72347791 74.40781876 117.34788955 57.01464844 117.22705078 C56.31500977 117.2260437 55.61537109 117.22503662 54.89453125 117.22399902 C52.31996993 117.21882866 49.74543226 117.20486823 47.17089844 117.19189453 C41.39589844 117.17126953 35.62089844 117.15064453 29.67089844 117.12939453 C29.67089844 139.23939453 29.67089844 161.34939453 29.67089844 184.12939453 C19.77089844 184.12939453 9.87089844 184.12939453 -0.32910156 184.12939453 C-1.32910156 183.12939453 -1.32910156 183.12939453 -1.39160156 180.06689453 C-1.37097656 179.09751953 -1.35035156 178.12814453 -1.32910156 177.12939453 C-2.78316406 177.16033203 -2.78316406 177.16033203 -4.26660156 177.19189453 C-7.32910156 177.12939453 -7.32910156 177.12939453 -8.32910156 176.12939453 C-8.41385532 173.87617734 -8.42589748 171.62022721 -8.41139221 169.36546326 C-8.40654852 168.29224912 -8.40654852 168.29224912 -8.40160698 167.1973539 C-8.38947128 164.78198874 -8.37011132 162.36673395 -8.35083008 159.95141602 C-8.3406937 158.22715499 -8.33099934 156.50289132 -8.32171631 154.77862549 C-8.2951711 150.0825172 -8.26240489 145.38647006 -8.22856641 140.69040942 C-8.19428672 135.7883434 -8.1656663 130.88624452 -8.13645935 125.98414612 C-8.08024442 116.69454251 -8.01890037 107.40498004 -7.95573801 98.11542135 C-7.88409739 87.54246752 -7.8181375 76.96948068 -7.75266755 66.39648712 C-7.61782398 44.64074671 -7.47580502 22.88505798 -7.32910156 1.12939453 C-4.74747206 -0.16142022 -2.89082079 0.00233804 0 0 Z " fill="#E1DFB5" transform="translate(252.3291015625,279.87060546875)"/>
<path d="M0 0 C1.01094727 0.00161133 2.02189453 0.00322266 3.06347656 0.00488281 C11.92129752 0.14824964 19.5877302 1.61892531 28 4.375 C28.94359375 4.65214844 29.8871875 4.92929687 30.859375 5.21484375 C43.43675019 9.25225561 55.1534291 16.68783762 65 25.375 C65.81726563 26.07238281 66.63453125 26.76976563 67.4765625 27.48828125 C78.04495175 36.69881244 86.43898804 46.82145149 93.89111328 58.62402344 C94.90916065 60.23156103 95.95149247 61.82365195 96.99609375 63.4140625 C97.83333984 64.72503906 97.83333984 64.72503906 98.6875 66.0625 C99.16574219 66.80886719 99.64398438 67.55523437 100.13671875 68.32421875 C101.1887945 70.82349373 100.75024811 71.83989545 100 74.375 C74.49658784 74.39833696 48.99317727 74.41598311 23.48975658 74.42681217 C11.64868501 74.43197343 -0.19237994 74.4390129 -12.03344727 74.45043945 C-22.35138999 74.46039147 -32.66932791 74.46685467 -42.9872753 74.46908849 C-48.45299256 74.47039472 -53.91869609 74.47347502 -59.38440895 74.48073006 C-64.52494244 74.48749842 -69.66545651 74.48961528 -74.80599403 74.48810768 C-76.6962647 74.48838364 -78.586536 74.49038393 -80.47680283 74.49420547 C-83.05066554 74.49915543 -85.62445417 74.49799342 -88.19831848 74.49525452 C-88.95220582 74.49816736 -89.70609316 74.5010802 -90.48282558 74.50408131 C-93.59843763 74.49507424 -96.02019161 74.36826946 -99 73.375 C-98.33247233 69.25686773 -96.18826327 65.9480334 -94.0625 62.4375 C-93.66281006 61.7765332 -93.26312012 61.11556641 -92.85131836 60.43457031 C-83.59663008 45.42152911 -72.0703953 32.04979412 -58 21.375 C-57.21109375 20.77042969 -56.4221875 20.16585937 -55.609375 19.54296875 C-44.30111535 11.24899685 -32.63440276 5.61899218 -19 2.375 C-17.77152344 2.01921875 -16.54304688 1.6634375 -15.27734375 1.296875 C-10.21215155 0.03920152 -5.19751088 -0.00865963 0 0 Z " fill="#FEFEFD" transform="translate(395,42.625)"/>
<path d="M0 0 C66 0 132 0 200 0 C198.91428571 7.6 198.91428571 7.6 196 11 C195.67 11.99 195.34 12.98 195 14 C194.34 14 193.68 14 193 14 C193 14.99 193 15.98 193 17 C192.34 17 191.68 17 191 17 C190.62875 18.051875 190.62875 18.051875 190.25 19.125 C188.23557654 23.75817396 185.57127014 27.47337074 182 31 C180.97170227 32.18104222 179.95147997 33.36914274 178.9375 34.5625 C175.96499578 37.96598564 172.89910075 41.2589547 169.75 44.5 C168.91984375 45.3559375 168.0896875 46.211875 167.234375 47.09375 C165 49 165 49 162 49 C162 49.66 162 50.32 162 51 C161.34 51 160.68 51 160 51 C160 51.66 160 52.32 160 53 C154.70588235 57 154.70588235 57 151 57 C151 57.66 151 58.32 151 59 C148.525 59.495 148.525 59.495 146 60 C146 60.66 146 61.32 146 62 C140.375 65 140.375 65 137 65 C137 65.66 137 66.32 137 67 C134.36 67.33 131.72 67.66 129 68 C129 68.66 129 69.32 129 70 C128.14535156 70.13277344 127.29070312 70.26554688 126.41015625 70.40234375 C125.30542969 70.57894531 124.20070313 70.75554687 123.0625 70.9375 C121.96035156 71.11152344 120.85820312 71.28554688 119.72265625 71.46484375 C117.09573071 71.71845136 117.09573071 71.71845136 116 73 C83.28122793 75.12821728 57.82538457 67.43760091 32.9296875 45.61328125 C31.47949219 44.31970703 31.47949219 44.31970703 30 43 C29.34257812 42.41605469 28.68515625 41.83210937 28.0078125 41.23046875 C19.18608068 32.89414322 12.19220389 22.66596251 5.875 12.375 C5.4015918 11.60502686 4.92818359 10.83505371 4.44042969 10.04174805 C2.3539902 6.56370731 0.99996669 3.99986678 0 0 Z " fill="#FEFEFE" transform="translate(296,669)"/>
<path d="M0 0 C1.20527344 0.00322266 2.41054688 0.00644531 3.65234375 0.00976562 C4.90660156 0.01814453 6.16085937 0.02652344 7.453125 0.03515625 C9.35771484 0.04192383 9.35771484 0.04192383 11.30078125 0.04882812 C14.43494336 0.06061069 17.56901041 0.07706209 20.703125 0.09765625 C21.095 1.04640625 21.486875 1.99515625 21.890625 2.97265625 C23.34414448 6.28431864 23.34414448 6.28431864 26.14720154 6.87858582 C28.703125 8.09765625 28.703125 8.09765625 30.18861389 10.98408508 C30.59180344 12.21950546 30.99499298 13.45492584 31.41040039 14.7277832 C31.63879105 15.40945053 31.8671817 16.09111786 32.10249329 16.79344177 C32.85399193 19.05189895 33.57733956 21.31835261 34.30078125 23.5859375 C34.82047107 25.16674278 35.34185513 26.74699199 35.86485291 28.32670593 C37.24023245 32.49683716 38.59180227 36.67432214 39.93878174 40.85369873 C41.29933001 45.06028057 42.68310841 49.25919636 44.06445312 53.45898438 C48.38982095 66.63777871 52.67125071 79.82561584 56.703125 93.09765625 C59.49979962 90.30098163 60.21600833 86.97150727 61.390625 83.28515625 C61.92423477 81.64705578 62.45809938 80.00903832 62.9921875 78.37109375 C63.27094727 77.50967773 63.54970703 76.64826172 63.83691406 75.76074219 C65.28722081 71.30190734 66.77853701 66.85682901 68.265625 62.41015625 C68.86347467 60.61725199 69.46113474 58.82428448 70.05859375 57.03125 C74.078125 44.97265625 74.078125 44.97265625 75.25390625 41.45703125 C76.47218985 37.80487379 77.6716184 34.14665545 78.87109375 30.48828125 C79.6692342 28.06639418 80.46741161 25.64451928 81.265625 23.22265625 C81.64187012 22.06878418 82.01811523 20.91491211 82.40576172 19.72607422 C87.99774262 2.80303863 87.99774262 2.80303863 90.703125 0.09765625 C92.75194697 -0.00230469 94.80421069 -0.03315321 96.85546875 -0.03515625 C98.73202148 -0.03708984 98.73202148 -0.03708984 100.64648438 -0.0390625 C101.96455078 -0.03519531 103.28261719 -0.03132813 104.640625 -0.02734375 C106.61192383 -0.03314453 106.61192383 -0.03314453 108.62304688 -0.0390625 C109.87537109 -0.03777344 111.12769531 -0.03648437 112.41796875 -0.03515625 C114.15228149 -0.03346436 114.15228149 -0.03346436 115.92163086 -0.03173828 C118.703125 0.09765625 118.703125 0.09765625 120.703125 1.09765625 C120.373125 2.74765625 120.043125 4.39765625 119.703125 6.09765625 C121.683125 6.42765625 123.663125 6.75765625 125.703125 7.09765625 C125.2465049 14.99879271 122.40306358 21.88822744 119.5859375 29.21484375 C119.05500128 30.61509031 118.52485322 32.01563594 117.99543762 33.41645813 C116.57651765 37.16434057 115.14684513 40.90803402 113.71500778 44.65099716 C112.23284013 48.53097778 110.76056953 52.41470945 109.28735352 56.2980957 C106.90826221 62.56581658 104.52349953 68.83134917 102.13427734 75.09521484 C99.00642038 83.29612189 95.89317444 91.50249459 92.78515625 99.7109375 C89.54156983 108.27228034 86.29793355 116.83360044 83.04296875 125.390625 C82.71504837 126.25496658 82.38712799 127.11930817 82.04927063 128.00984192 C79.81866232 133.86658161 79.81866232 133.86658161 78.703125 136.09765625 C73.91599567 136.1965246 69.12946025 136.26912248 64.34155273 136.31738281 C62.71286671 136.33750006 61.08425292 136.36479762 59.45581055 136.39941406 C57.11489042 136.44793054 54.77492482 136.47062257 52.43359375 136.48828125 C51.70536911 136.50892639 50.97714447 136.52957153 50.22685242 136.55084229 C46.94474382 136.5522995 45.1806676 136.53998427 42.7199707 134.26074219 C41.703125 132.09765625 41.703125 132.09765625 41.703125 129.09765625 C40.94515625 129.08863281 40.1871875 129.07960938 39.40625 129.0703125 C36.703125 128.09765625 36.703125 128.09765625 35 124.90625 C34.46393191 123.45661549 33.9499975 121.99868859 33.453125 120.53515625 C32.85419096 118.88540785 32.25523129 117.23566875 31.65625 115.5859375 C31.18541992 114.2548999 31.18541992 114.2548999 30.70507812 112.89697266 C29.67038422 110.0061831 28.59216452 107.13516857 27.5 104.265625 C23.65778806 94.16903171 19.95603379 84.03780468 16.43969727 73.82348633 C13.60091485 65.65620299 10.46465658 57.60807822 7.33544922 49.54858398 C4.6654378 42.65438304 2.10594568 35.73676284 -0.31396484 28.7512207 C-2.15405019 23.44888694 -4.15654604 18.22063697 -6.1953125 12.9921875 C-7.69001882 9.06460813 -9.00884953 5.09731429 -10.296875 1.09765625 C-6.82022405 0.02877101 -3.62550022 -0.01710142 0 0 Z " fill="#E1DFB5" transform="translate(382.296875,327.90234375)"/>
<path d="M0 0 C1.25232422 -0.00128906 2.50464844 -0.00257813 3.79492188 -0.00390625 C5.10912109 -0.00003906 6.42332031 0.00382812 7.77734375 0.0078125 C9.09541016 0.00394531 10.41347656 0.00007813 11.77148438 -0.00390625 C13.02251953 -0.00261719 14.27355469 -0.00132812 15.5625 0 C16.71758057 0.00112793 17.87266113 0.00225586 19.06274414 0.00341797 C21.71484375 0.1328125 21.71484375 0.1328125 22.71484375 1.1328125 C22.75565158 3.13239614 22.75738731 5.13326504 22.71484375 7.1328125 C25.02484375 7.1328125 27.33484375 7.1328125 29.71484375 7.1328125 C29.71484375 65.5428125 29.71484375 123.9528125 29.71484375 184.1328125 C19.81484375 184.1328125 9.91484375 184.1328125 -0.28515625 184.1328125 C-2.28515625 181.1328125 -2.28515625 181.1328125 -2.28515625 177.1328125 C-4.26515625 177.1328125 -6.24515625 177.1328125 -8.28515625 177.1328125 C-8.28515625 119.0528125 -8.28515625 60.9728125 -8.28515625 1.1328125 C-5.4791336 -0.27019883 -3.13497258 0.0030583 0 0 Z " fill="#E1DFB5" transform="translate(178.28515625,279.8671875)"/>
<path d="M0 0 C39.27 0 78.54 0 119 0 C117 5 117 5 114 7 C113.01 7 112.02 7 111 7 C111 7.66 111 8.32 111 9 C109.07412421 10.63139937 107.15673283 12.13723225 105.125 13.625 C104.56941406 14.04523437 104.01382813 14.46546875 103.44140625 14.8984375 C99.26235288 18 99.26235288 18 97 18 C97 18.66 97 19.32 97 20 C96.11248047 20.47179687 96.11248047 20.47179687 95.20703125 20.953125 C90.79550109 23.34240398 86.86575507 25.77853744 83 29 C78.5 32 78.5 32 75 32 C75 32.66 75 33.32 75 34 C72.09451118 36.04169485 70.59857954 37 67 37 C67 37.66 67 38.32 67 39 C65.73308493 39.67408308 64.46129251 40.33900497 63.1875 41 C62.47980469 41.37125 61.77210938 41.7425 61.04296875 42.125 C59 43 59 43 56 43 C56 43.66 56 44.32 56 45 C53.03 45.495 53.03 45.495 50 46 C50 46.66 50 47.32 50 48 C49.01 48 48.02 48 47 48 C47 48.66 47 49.32 47 50 C31.96954315 57 31.96954315 57 25 57 C25 57.66 25 58.32 25 59 C23.75336669 59.50833591 22.50250613 60.00631145 21.25 60.5 C20.55390625 60.7784375 19.8578125 61.056875 19.140625 61.34375 C17 62 17 62 13 62 C13 62.66 13 63.32 13 64 C10.36 64.33 7.72 64.66 5 65 C5 65.66 5 66.32 5 67 C0.05 67.495 0.05 67.495 -5 68 C-5 68.66 -5 69.32 -5 70 C-5.64066406 70.12117187 -6.28132813 70.24234375 -6.94140625 70.3671875 C-13.26547507 71.59241693 -19.36280007 73.15232859 -25.5 75.125 C-29.13526564 76.03381641 -32.26880993 76.15229347 -36 76 C-36 76.66 -36 77.32 -36 78 C-44.415 78.495 -44.415 78.495 -53 79 C-53 79.66 -53 80.32 -53 81 C-58.88400655 81.85695967 -64.55909292 82.12539234 -70.5 82.0625 C-71.32242187 82.05798828 -72.14484375 82.05347656 -72.9921875 82.04882812 C-74.99482396 82.03718489 -76.99742227 82.01925556 -79 82 C-75.76606666 79.35763983 -72.40277271 77.69671452 -68.625 75.9375 C-55.81137545 69.71113756 -45.1490992 60.90337396 -35 51 C-34.37689941 50.40461426 -33.75379883 49.80922852 -33.11181641 49.19580078 C-28.27909799 44.49767909 -24.09724117 39.56523094 -20.125 34.125 C-19.5271167 33.31071533 -18.9292334 32.49643066 -18.31323242 31.6574707 C-11.13173168 21.67638559 -5.48766428 10.97532856 0 0 Z " fill="#FEFEFD" transform="translate(514,669)"/>
<path d="M0 0 C8.70270086 0.55855228 17.17535361 1.74232829 25.75 3.3125 C27.59706543 3.64797852 27.59706543 3.64797852 29.48144531 3.99023438 C43.98776429 6.6736167 57.98079537 10.42672275 72 15 C72.94568848 15.30486328 73.89137695 15.60972656 74.86572266 15.92382812 C78.01727442 16.94132486 81.16524273 17.96930228 84.3125 19 C85.7975 19.48001465 85.7975 19.48001465 87.3125 19.96972656 C94.10584028 22.21678938 100.53257605 24.94853525 107 28 C108.32686767 28.59655449 109.65487362 29.19058838 110.984375 29.78125 C122.55077798 35.02130305 133.5226408 41.21361896 144.50976562 47.56542969 C146.54565768 48.73826319 148.58822769 49.89551558 150.640625 51.0390625 C157.49047946 54.90355258 163.82491662 59.32300304 170.1640625 63.9609375 C172.78189314 65.95721479 172.78189314 65.95721479 175 67 C175 67.66 175 68.32 175 69 C175.99 69.2784375 175.99 69.2784375 177 69.5625 C181.31339218 71.62933375 184.51456519 74.76537811 188 78 C186 80 186 80 184.04437351 80.24888897 C183.23893573 80.2483442 182.43349794 80.24779943 181.60365295 80.24723816 C180.67968216 80.25143265 179.75571136 80.25562714 178.80374146 80.25994873 C177.27872513 80.25151947 177.27872513 80.25151947 175.72290039 80.24291992 C174.65453445 80.24481827 173.58616852 80.24671661 172.48542786 80.24867249 C168.9394303 80.25238946 165.39363573 80.24166221 161.84765625 80.23046875 C159.39147465 80.22927727 156.93529259 80.22882372 154.47911072 80.2290802 C149.32499347 80.2275137 144.17094552 80.2192118 139.0168457 80.20581055 C132.40102042 80.18882942 125.78527144 80.18499587 119.16942692 80.18575573 C114.09520231 80.18548412 109.02099447 80.18000423 103.94677544 80.17275429 C101.5070553 80.16956571 99.06733326 80.16759977 96.62761116 80.16686058 C93.22053906 80.16469854 89.81354875 80.15595686 86.40649414 80.14526367 C84.88451416 80.14594345 84.88451416 80.14594345 83.33178711 80.14663696 C82.40499649 80.14237198 81.47820587 80.13810699 80.52333069 80.13371277 C79.71751588 80.13203692 78.91170107 80.13036108 78.08146763 80.12863445 C76 80 76 80 73 79 C71.5123509 76.45785264 70.17627796 73.94770854 68.875 71.3125 C60.59663258 55.14559575 50.35621508 41.3293236 38 28 C37.46117187 27.39542969 36.92234375 26.79085937 36.3671875 26.16796875 C30.52802189 19.9033363 22.67003613 13.83501806 15 10 C15 9.34 15 8.68 15 8 C14.45859375 7.89816406 13.9171875 7.79632813 13.359375 7.69140625 C10.39403419 6.82242393 7.94475054 5.44527709 5.25 3.9375 C4.26515625 3.38964844 3.2803125 2.84179688 2.265625 2.27734375 C1.51796875 1.85582031 0.7703125 1.43429688 0 1 C0 0.67 0 0.34 0 0 Z " fill="#FEFEFD" transform="translate(441,37)"/>
<path d="M0 0 C34.65 0 69.3 0 105 0 C109 7 113 14 117 21 C123.3094293 31.67550256 130.62399198 40.88070925 139 50 C139.71027344 50.78246094 140.42054688 51.56492187 141.15234375 52.37109375 C150.03341078 61.70278575 160.69886062 68.6892461 171.78515625 75.08984375 C174.34096107 76.60842037 176.67855674 78.15326584 179 80 C167.52649009 79.6911572 157.09446346 77.86866189 146 75 C144.46043595 74.65708635 142.9191612 74.32157954 141.375 74 C132.29835235 71.99080033 123.27679786 69.75887459 114.703125 66.125 C111.27390742 64.69781118 107.79488024 63.41492358 104.3125 62.125 C101.53998054 61.0877891 98.7695003 60.04524386 96 59 C95.36368652 58.76023437 94.72737305 58.52046875 94.07177734 58.2734375 C84.03443268 54.46264902 74.50471839 49.97114119 65 45 C64.01128906 44.484375 63.02257812 43.96875 62.00390625 43.4375 C51.8657334 38.02262684 42.18921643 31.80920352 32.5234375 25.6015625 C30.87472353 24.55516509 29.21352582 23.52811549 27.5390625 22.5234375 C25.66265616 21.3975937 23.8260147 20.20585876 22 19 C22 18.34 22 17.68 22 17 C21.32195312 16.78085937 20.64390625 16.56171875 19.9453125 16.3359375 C16.12662486 14.60385372 13.13555921 12.23344737 9.875 9.625 C9.25496094 9.14289062 8.63492188 8.66078125 7.99609375 8.1640625 C4.70197608 5.55710486 2.59276149 3.45701532 0 0 Z " fill="#FEFEFC" transform="translate(173,669)"/>
<path d="M0 0 C-5.83098592 5.99295775 -5.83098592 5.99295775 -9 8 C-9.99 8 -10.98 8 -12 8 C-12 8.66 -12 9.32 -12 10 C-13.65 10.33 -15.3 10.66 -17 11 C-17 11.66 -17 12.32 -17 13 C-18.546875 14.3046875 -18.546875 14.3046875 -20.75 15.875 C-27.09673785 20.65016467 -32.47359787 26.32423565 -38 32 C-38.59167969 32.56332031 -39.18335938 33.12664062 -39.79296875 33.70703125 C-41.19119385 35.0430167 -41.19119385 35.0430167 -41.9375 37.4375 C-43.16137121 40.3891894 -44.72224072 41.79126373 -47 44 C-48.0064275 45.66279327 -49.00585407 47.32983484 -50 49 C-50.85986253 50.05419679 -51.73568134 51.09553083 -52.625 52.125 C-55.13912472 54.8167087 -55.13912472 54.8167087 -56 58 C-56.66 58 -57.32 58 -58 58 C-58.33 59.65 -58.66 61.3 -59 63 C-59.66 63 -60.32 63 -61 63 C-61.18949219 63.86238281 -61.18949219 63.86238281 -61.3828125 64.7421875 C-62.00879024 67.0321567 -62.8305867 68.99569227 -63.875 71.125 C-64.20242188 71.80820313 -64.52984375 72.49140625 -64.8671875 73.1953125 C-66 75 -66 75 -69 77 C-72.02491087 77.19012029 -74.95701596 77.26246569 -77.98193359 77.24291992 C-79.36042732 77.24576744 -79.36042732 77.24576744 -80.76676941 77.24867249 C-83.81074502 77.25238305 -86.85448301 77.24167024 -89.8984375 77.23046875 C-92.01209485 77.22927677 -94.12575273 77.22882383 -96.2394104 77.2290802 C-100.67298694 77.22751474 -105.10648282 77.21922154 -109.54003906 77.20581055 C-115.22184618 77.18884144 -120.90356442 77.18499563 -126.58539391 77.18575573 C-130.95198413 77.18548367 -135.31855494 77.17999627 -139.6851387 77.17275429 C-141.77990192 77.16957269 -143.87466733 77.1676014 -145.96943283 77.16686058 C-148.899419 77.16469047 -151.82931136 77.155931 -154.75927734 77.14526367 C-155.62490799 77.14571686 -156.49053864 77.14617004 -157.38240051 77.14663696 C-161.38676108 77.12533891 -165.0921086 76.99792515 -169 76 C-131.6081705 36.38136179 -64.13325283 9.7330784 -11.17578125 1.54296875 C-1.90842237 -0.04148744 -1.90842237 -0.04148744 0 0 Z " fill="#FEFDFC" transform="translate(345,40)"/>
<path d="M0 0 C4.90100634 4.38511094 6.67093222 10.64728407 7.15673828 17.07324219 C7.64781407 28.50864533 6.91378193 38.50237497 2 49 C1.34 49 0.68 49 0 49 C-0.185625 49.556875 -0.37125 50.11375 -0.5625 50.6875 C-3.81803937 55.92467203 -9.20749067 58.40475569 -15 60 C-22.48426472 60.83353476 -29.71679777 61.00332226 -36.16796875 56.73046875 C-43.76871281 49.5510879 -46.07928516 36.90359026 -46.375 26.875 C-46.08864051 16.93051589 -43.12884663 8.72332164 -35.8125 1.8125 C-26.04082618 -6.04194668 -10.49823169 -7.03753142 0 0 Z " fill="#FEFDFD" transform="translate(598,376)"/>
<path d="M0 0 C7.3321875 -0.0928125 7.3321875 -0.0928125 14.8125 -0.1875 C16.33077393 -0.21481201 17.84904785 -0.24212402 19.41333008 -0.27026367 C28.3649021 -0.32473571 37.94486533 -0.28633981 45.5 5.1875 C52.15013553 12.66890247 51.68899797 21.56171804 51.17285156 31.06054688 C50.43267525 39.36557596 46.27795055 46.55910952 40 52 C39.34 52 38.68 52 38 52 C38 52.66 38 53.32 38 54 C25.54950758 59.20656956 13.74522702 58 0 58 C0 38.86 0 19.72 0 0 Z " fill="#FEFEFE" transform="translate(282,310)"/>
<path d="M0 0 C9.93621688 7.76083212 16.35205428 17.51133028 19 30 C20.42879551 49.04338065 18.29021301 64.34813258 6.25 79.6875 C-3.89929151 90.86223806 -19.24037241 96.64076504 -34 98 C-36.88698868 98.11886465 -39.767216 98.11772777 -42.65625 98.09765625 C-43.35588867 98.09664917 -44.05552734 98.09564209 -44.77636719 98.09460449 C-47.35092851 98.08943413 -49.92546618 98.0754737 -52.5 98.0625 C-58.275 98.041875 -64.05 98.02125 -70 98 C-70 120.11 -70 142.22 -70 165 C-79.9 165 -89.8 165 -100 165 C-101 164 -101 164 -101.0625 160.9375 C-101.041875 159.968125 -101.02125 158.99875 -101 158 C-102.65 158 -104.3 158 -106 158 C-106 157.67 -106 157.34 -106 157 C-96.43 157 -86.86 157 -77 157 C-77 134.89 -77 112.78 -77 90 C-58.75 89.625 -58.75 89.625 -53.06933594 89.52197266 C-33.33514736 89.09846513 -17.28557836 86.10910166 -2.19140625 72.3515625 C7.90755608 61.59682339 10.35706719 48.22595259 10.3125 34.0625 C10.32861328 33.04220703 10.34472656 32.02191406 10.36132812 30.97070312 C10.36687384 22.28056223 9.16647295 14.20199994 3.875 7.0625 C2.06820337 4.58602004 0.98075576 2.94226727 0 0 Z " fill="#E97638" transform="translate(352,299)"/>
<path d="M0 0 C0.33 0 0.66 0 1 0 C1 1.98 1 3.96 1 6 C3.31 6 5.62 6 8 6 C8 64.41 8 122.82 8 183 C-1.9 183 -11.8 183 -22 183 C-24 180 -24 180 -24 176 C-25.65 176 -27.3 176 -29 176 C-29 175.67 -29 175.34 -29 175 C-19.43 175 -9.86 175 0 175 C0 117.25 0 59.5 0 0 Z " fill="#E9773A" transform="translate(200,281)"/>
<path d="M0 0 C0.495 1.485 0.495 1.485 1 3 C3.31 3 5.62 3 8 3 C7.5433799 10.90113646 4.69993858 17.79057119 1.8828125 25.1171875 C1.35187628 26.51743406 0.82172822 27.91797969 0.29231262 29.31880188 C-1.12660735 33.06668432 -2.55627987 36.81037777 -3.98811722 40.55334091 C-5.47028487 44.43332153 -6.94255547 48.3170532 -8.41577148 52.20043945 C-10.79486279 58.46816033 -13.17962547 64.73369292 -15.56884766 70.99755859 C-18.69670462 79.19846564 -21.80995056 87.40483834 -24.91796875 95.61328125 C-28.16155517 104.17462409 -31.40519145 112.73594419 -34.66015625 121.29296875 C-34.98807663 122.15731033 -35.31599701 123.02165192 -35.65385437 123.91218567 C-37.88446268 129.76892536 -37.88446268 129.76892536 -39 132 C-43.78712933 132.09886835 -48.57366475 132.17146623 -53.36157227 132.21972656 C-54.99025829 132.23984381 -56.61887208 132.26714137 -58.24731445 132.30175781 C-60.58823458 132.35027429 -62.92820018 132.37296632 -65.26953125 132.390625 C-65.99775589 132.41127014 -66.72598053 132.43191528 -67.47627258 132.45318604 C-70.75838118 132.45464325 -72.5224574 132.44232802 -74.9831543 130.16308594 C-76 128 -76 128 -76 125 C-77.32 124.67 -78.64 124.34 -80 124 C-68.78 124 -57.56 124 -46 124 C-45.01 120.7 -44.02 117.4 -43 114 C-42.32153085 112.03012504 -41.62285214 110.06695388 -40.89379883 108.11523438 C-40.50465302 107.0688681 -40.1155072 106.02250183 -39.71456909 104.94442749 C-39.09208786 103.28584213 -39.09208786 103.28584213 -38.45703125 101.59375 C-38.01594025 100.41108551 -37.57484924 99.22842102 -37.12039185 98.00991821 C-35.93301148 94.82897436 -34.74268915 91.64916566 -33.55070114 88.46994781 C-32.56028607 85.82694728 -31.57223407 83.1830657 -30.58406544 80.53922462 C-20.52850451 53.63977563 -10.32148115 26.79849086 0 0 Z " fill="#E97638" transform="translate(500,332)"/>
<path d="M0 0 C11.86510788 9.58335636 18.8732881 20.62992194 21 36 C22.63081024 55.92063532 20.93375538 74.66122264 7.88671875 90.578125 C-2.53048677 101.96714838 -16.58308444 107.56380232 -31.83984375 108.27734375 C-50.54088077 108.79564172 -65.53889577 104.56626875 -79.46191406 91.64306641 C-81.01089307 90.17285733 -82.54106073 88.68617277 -84.0625 87.1875 C-84.55226318 86.70716309 -85.04202637 86.22682617 -85.54663086 85.73193359 C-89 82.245793 -89 82.245793 -89 80 C-88.34 80 -87.68 80 -87 80 C-85.95244255 81.14576596 -84.96190283 82.3439356 -84 83.5625 C-76.29572351 92.53758499 -66.44355562 98.04754987 -54.61499023 99.38183594 C-51.08865329 99.53434235 -47.59161601 99.54641029 -44.0625 99.5 C-42.89009766 99.51546875 -41.71769531 99.5309375 -40.50976562 99.546875 C-26.03861656 99.48294944 -12.63625315 94.93814533 -1.9140625 85.0703125 C10.42622183 71.72265802 13.77070906 54.01799438 13.31640625 36.38671875 C12.71528982 25.06611179 9.51608967 11.96334018 1.6875 3.5 C1.130625 3.005 0.57375 2.51 0 2 C0 1.34 0 0.68 0 0 Z " fill="#E97639" transform="translate(620,358)"/>
<path d="M0 0 C41.68292683 0 41.68292683 0 52 9 C54.4375 11.8125 54.4375 11.8125 56 14 C55.67 14.66 55.34 15.32 55 16 C54.401875 15.401875 53.80375 14.80375 53.1875 14.1875 C44.27508659 8.07113785 33.22280382 8.48319694 22.8125 8.3125 C17.924375 8.209375 13.03625 8.10625 8 8 C8 27.14 8 46.28 8 66 C8.66 66.33 9.32 66.66 10 67 C6.7 67 3.4 67 0 67 C0 44.89 0 22.78 0 0 Z " fill="#E87A3D" transform="translate(274,302)"/>
<path d="M0 0 C3.21023091 2.49246429 5.55317798 5.08256328 7.21484375 8.796875 C6.88484375 9.786875 6.55484375 10.776875 6.21484375 11.796875 C5.65796875 10.848125 5.10109375 9.899375 4.52734375 8.921875 C2.01689632 5.52937848 1.1237872 4.97735365 -2.78515625 3.796875 C-12.76969836 2.67148755 -21.22488698 4.31216245 -29.47265625 10.109375 C-37.15266863 17.28101777 -41.24493391 30.71942023 -42.78515625 40.796875 C-42.82491447 42.79647978 -42.83506728 44.79749787 -42.78515625 46.796875 C-42.12515625 47.126875 -41.46515625 47.456875 -40.78515625 47.796875 C-41.25566406 48.17199219 -41.72617187 48.54710937 -42.2109375 48.93359375 C-45.90304507 51.96830743 -48.42917602 54.58091038 -50.78515625 58.796875 C-51.44515625 58.796875 -52.10515625 58.796875 -52.78515625 58.796875 C-53.15530528 39.84134815 -51.18265642 17.37335518 -37.78515625 2.796875 C-26.50411698 -6.80400949 -12.38149741 -8.34464158 0 0 Z " fill="#E97639" transform="translate(594.78515625,305.203125)"/>
<path d="M0 0 C4.5894306 2.61166493 8.16870305 5.7784452 11.12109375 10.20703125 C10.79109375 10.86703125 10.46109375 11.52703125 10.12109375 12.20703125 C9.41984375 11.58828125 8.71859375 10.96953125 7.99609375 10.33203125 C1.0669754 5.21050899 -6.60483442 5.62998687 -14.87890625 6.20703125 C-21.93235615 7.35989825 -27.2622247 10.77564119 -31.87890625 16.20703125 C-37.68469592 26.00639879 -38.31189613 37.05687481 -35.64819336 48.00219727 C-34.01572151 54.14756731 -32.03170918 59.68962612 -28.87890625 65.20703125 C-35.83451482 62.05342906 -38.88081015 55.88334711 -41.87890625 49.20703125 C-42.27078125 48.34078125 -42.66265625 47.47453125 -43.06640625 46.58203125 C-46.25995545 37.24704129 -46.69665337 23.72897525 -43.19140625 14.45703125 C-39.21612589 6.38181017 -33.39886994 1.38456175 -25.046875 -1.91015625 C-16.69861077 -4.23655294 -7.84732603 -3.64662277 0 0 Z " fill="#E97639" transform="translate(589.87890625,366.79296875)"/>
<path d="M0 0 C0.99 0.495 0.99 0.495 2 1 C2.33 1.99 2.66 2.98 3 4 C3.78978745 4.25512863 4.57957489 4.51025726 5.39329529 4.77311707 C8 6 8 6 9.48548889 8.88642883 C9.88867844 10.12184921 10.29186798 11.35726959 10.70727539 12.63012695 C10.93566605 13.31179428 11.1640567 13.99346161 11.39936829 14.69578552 C12.15086693 16.9542427 12.87421456 19.22069636 13.59765625 21.48828125 C14.11734607 23.06908653 14.63873013 24.64933574 15.16172791 26.22904968 C16.53710745 30.39918091 17.88867727 34.57666589 19.23565674 38.75604248 C20.59620501 42.96262432 21.97998341 47.16154011 23.36132812 51.36132812 C27.68669595 64.54012246 31.96812571 77.72795959 36 91 C36.99 90.67 37.98 90.34 39 90 C38.79503906 90.67546875 38.59007812 91.3509375 38.37890625 92.046875 C38.10949219 92.93890625 37.84007812 93.8309375 37.5625 94.75 C37.29566406 95.63171875 37.02882813 96.5134375 36.75390625 97.421875 C36.11531506 99.60565835 35.53224167 101.78835498 35 104 C34.34 104 33.68 104 33 104 C32.74532959 103.14510986 32.49065918 102.29021973 32.22827148 101.40942383 C24.06016863 74.09535993 15.13366529 47.05868835 6.00366211 20.05291748 C5.01538584 17.12862205 4.03085372 14.20308757 3.046875 11.27734375 C2.7409845 10.37568985 2.43509399 9.47403595 2.11993408 8.5450592 C1.84155701 7.7154216 1.56317993 6.885784 1.27636719 6.03100586 C1.02924988 5.29893417 0.78213257 4.56686249 0.52752686 3.81260681 C0 2 0 2 0 0 Z " fill="#E97A3F" transform="translate(403,330)"/>
<path d="M0 0 C11.97104822 5.18835498 19.5452993 19.03585933 24.15234375 30.53125 C25 33 25 33 25 35 C21.45995797 35.6754914 17.91773831 36.33880798 14.375 37 C13.37597656 37.19078125 12.37695312 37.3815625 11.34765625 37.578125 C6.50947407 38.47527136 1.94607582 39.27009288 -3 39 C-6 33.25 -6 33.25 -6 31 C-3.29273634 30.4935186 -0.58442876 29.994649 2.125 29.5 C2.88554688 29.35691406 3.64609375 29.21382813 4.4296875 29.06640625 C8.68042914 28.29687544 12.65859197 27.83355624 17 28 C13.26379379 18.13987963 9.44016031 10.44016031 1.94140625 2.94140625 C1.30074219 2.30074219 0.66007813 1.66007812 0 1 C0 0.67 0 0.34 0 0 Z " fill="#E9773A" transform="translate(612,287)"/>
<path d="M0 0 C3.54712346 1.51096147 5.85663515 3.58832135 8.5625 6.3125 C9.32691406 7.07175781 10.09132813 7.83101563 10.87890625 8.61328125 C12.95591874 10.95039844 14.48825474 13.27113077 16 16 C15.01 16.66 14.02 17.32 13 18 C12.64808594 17.35933594 12.29617188 16.71867187 11.93359375 16.05859375 C8.90313483 10.74935633 5.82573564 6.42194296 1.3203125 2.27734375 C0.88460937 1.85582031 0.44890625 1.43429687 0 1 C0 0.67 0 0.34 0 0 Z " fill="#EB9562" transform="translate(612,287)"/>
<path d="M0 0 C1.40668945 0.00966797 1.40668945 0.00966797 2.84179688 0.01953125 C4.30649414 0.04466797 4.30649414 0.04466797 5.80078125 0.0703125 C6.78884766 0.07933594 7.77691406 0.08835937 8.79492188 0.09765625 C11.2346189 0.1212282 13.67382822 0.15413228 16.11328125 0.1953125 C16.11328125 0.8553125 16.11328125 1.5153125 16.11328125 2.1953125 C13.96857532 2.55624354 11.82247328 2.90888839 9.67578125 3.2578125 C8.48082031 3.45503906 7.28585937 3.65226563 6.0546875 3.85546875 C5.08402344 3.96761719 4.11335938 4.07976563 3.11328125 4.1953125 C2.78328125 3.8653125 2.45328125 3.5353125 2.11328125 3.1953125 C0.43144177 2.96244242 -1.25796035 2.78267084 -2.94921875 2.6328125 C-4.32787109 2.50712891 -4.32787109 2.50712891 -5.734375 2.37890625 C-6.79978516 2.28802734 -6.79978516 2.28802734 -7.88671875 2.1953125 C-4.63281887 0.02604591 -3.75275918 -0.04548799 0 0 Z " fill="#FABC73" transform="translate(438.88671875,749.8046875)"/>
<path d="M0 0 C-0.33 0.99 -0.66 1.98 -1 3 C-1.99 3 -2.98 3 -4 3 C-4 3.66 -4 4.32 -4 5 C-5.97946592 6.36363208 -7.9819245 7.69418644 -10 9 C-11.79394446 10.62351109 -11.79394446 10.62351109 -13 12 C-13.66 11.67 -14.32 11.34 -15 11 C-4.47030879 0 -4.47030879 0 0 0 Z " fill="#EDE1C5" transform="translate(550,285)"/>
<path d="M0 0 C7.48291572 6.15034169 7.48291572 6.15034169 10 10 C8.68 10.33 7.36 10.66 6 11 C3.90503568 7.36872851 1.84852232 3.76365807 0 0 Z " fill="#EA8851" transform="translate(352,299)"/>
<path d="M0 0 C0.33 0 0.66 0 1 0 C0.88521587 2.06309376 0.75773802 4.12548354 0.625 6.1875 C0.55539063 7.33605469 0.48578125 8.48460937 0.4140625 9.66796875 C0.02490426 12.79959117 -0.6809851 15.15285809 -2 18 C-2.33 18 -2.66 18 -3 18 C-3 15.69 -3 13.38 -3 11 C-2.34 11 -1.68 11 -1 11 C-1.020625 9.9275 -1.04125 8.855 -1.0625 7.75 C-1.0142016 4.85209576 -0.86844115 2.71387859 0 0 Z " fill="#F9B666" transform="translate(37,301)"/>
<path d="M0 0 C0.33 0 0.66 0 1 0 C1.14285714 7.42857143 1.14285714 7.42857143 0 11 C-0.66 11 -1.32 11 -2 11 C-2.33 11.99 -2.66 12.98 -3 14 C-2.48594831 9.03083364 -1.76615118 4.70973649 0 0 Z " fill="#FABE76" transform="translate(748,494)"/>
<path d="M0 0 C3.96 0.33 7.92 0.66 12 1 C10.68 1.33 9.36 1.66 8 2 C8 2.66 8 3.32 8 4 C2.25 2.25 2.25 2.25 0 0 Z " fill="#FCDDB9" transform="translate(441,37)"/>
<path d="M0 0 C-0.33 0.66 -0.66 1.32 -1 2 C-4.0625 2.625 -4.0625 2.625 -7 3 C-7 3.66 -7 4.32 -7 5 C-8.65 5.33 -10.3 5.66 -12 6 C-10.68 5.34 -9.36 4.68 -8 4 C-8 3.34 -8 2.68 -8 2 C-3.61016949 -1.20338983 -3.61016949 -1.20338983 0 0 Z " fill="#F9B96D" transform="translate(597,699)"/>
<path d="M0 0 C3.96 1.98 3.96 1.98 8 4 C6.02 4.99 6.02 4.99 4 6 C2.62437146 4.71034824 1.29233607 3.37310707 0 2 C0 1.34 0 0.68 0 0 Z " fill="#EB8B56" transform="translate(541,448)"/>
<path d="M0 0 C2.5 2.3125 2.5 2.3125 5 5 C5 5.99 5 6.98 5 8 C2.56070254 6.07423885 0.19909405 4.19909405 -2 2 C-1.34 2 -0.68 2 0 2 C0 1.34 0 0.68 0 0 Z " fill="#EB8A55" transform="translate(324,310)"/>
</svg>
